SplineFontDB: 3.0
FontName: Exo-ThinItalic
FullName: Exo Thin Italic
FamilyName: Exo
Weight: Thin
Copyright: Copyright (c) 2011 Natanael Gama (exo@ndiscovered.com), with Reserved Font Name "Exo"
UComments: "2010-2-8: Created." 
Version: 1.00
ItalicAngle: 0
UnderlinePosition: -100
UnderlineWidth: 50
Ascent: 800
Descent: 200
sfntRevision: 0x00010000
LayerCount: 2
Layer: 0 0 "Back"  1
Layer: 1 0 "Fore"  0
XUID: [1021 348 1054973004 1200425]
FSType: 8
OS2Version: 0
OS2_WeightWidthSlopeOnly: 0
OS2_UseTypoMetrics: 1
CreationTime: 1265665101
ModificationTime: 1325018762
PfmFamily: 33
TTFWeight: 100
TTFWidth: 5
LineGap: 90
VLineGap: 0
OS2TypoAscent: 0
OS2TypoAOffset: 1
OS2TypoDescent: 0
OS2TypoDOffset: 1
OS2TypoLinegap: 90
OS2WinAscent: 0
OS2WinAOffset: 1
OS2WinDescent: 0
OS2WinDOffset: 1
HheadAscent: 0
HheadAOffset: 1
HheadDescent: 0
HheadDOffset: 1
OS2Vendor: 'PfEd'
Lookup: 4 0 0 "'ordn' Ordinals lookup 21"  {"'ordn' Ordinals lookup 21-1"  } ['ordn' ('DFLT' <'dflt' > 'grek' <'dflt' > 'latn' <'dflt' > ) ]
Lookup: 1 0 0 "'smcp' Lowercase to Small Capitals lookup 16"  {"'smcp' Lowercase to Small Capitals lookup 16-1" ("smcp" ) } ['smcp' ('DFLT' <'dflt' > 'grek' <'dflt' > 'latn' <'FRA ' 'dflt' > ) ]
Lookup: 1 0 0 "'c2sc' Capitals to Small Capitals in Latin lookup 17"  {"'c2sc' Capitals to Small Capitals in Latin lookup 17 subtable" ("smcp" ) } ['c2sc' ('latn' <'dflt' > ) ]
Lookup: 4 0 0 "'dlig' Discretionary Ligatures lookup 14"  {"'dlig' Discretionary Ligatures lookup 14-1"  } ['dlig' ('DFLT' <'dflt' > 'grek' <'dflt' > 'latn' <'dflt' > ) ]
Lookup: 4 0 1 "'liga' Standard Ligatures lookup 15"  {"'liga' Standard Ligatures lookup 15-1"  } ['liga' ('DFLT' <'dflt' > 'grek' <'dflt' > 'latn' <'FRA ' 'dflt' > ) ]
Lookup: 1 0 0 "'frac' Diagonal Fractions lookup 13"  {"'frac' Diagonal Fractions lookup 13-1"  } ['frac' ('DFLT' <'dflt' > 'grek' <'dflt' > 'latn' <'FRA ' 'dflt' > ) ]

StartChar: a
Encoding: 97 97 0
Width: 545
VWidth: 0
Flags: W
HStem: -7 23<177.986 318.991> 0 21G<452 468.923>
VStem: 453 13<0 47.9>
DStem2: 511 476 536 479 0.144602 0.98949<-412.388 4.78166>
LayerCount: 2
Fore
SplineSet
90 279 m 0xa0
 130 507 228 531 310 541 c 0
 380 550 485 528 536 479 c 9
 466 0 l 17
 452 0 l 1x60
 453 60 l 17
 424 41 323 -7 246 -7 c 3
 132 -7 49 45 90 279 c 0xa0
109 246 m 0
 86 98 128 16 238 16 c 3xa0
 325 16 385 46 453 75 c 1
 511 476 l 1
 482 494 406 530 309 517 c 0
 192 501 139 438 109 246 c 0
EndSplineSet
Validated: 545
AlternateSubs2: "'salt' Access All Alternates in Latin lookup 4-1" a.salt
Substitution2: "'smcp' Lowercase to Small Capitals lookup 16-1" a.smcp
EndChar

StartChar: z
Encoding: 122 122 1
Width: 449
VWidth: 0
Flags: W
HStem: 1 24<82 427.427> 507 24<114 472>
DStem2: 49 25 82 25 0.660487 0.750837<21.7961 641.29>
LayerCount: 2
Fore
SplineSet
45 1 m 25
 49 25 l 25
 472 507 l 21
 110 507 l 17
 114 531 l 25
 510 531 l 25
 506 507 l 25
 82 25 l 17
 430 25 l 17
 431 24 426 1 426 1 c 25
 45 1 l 25
EndSplineSet
Validated: 513
Substitution2: "'smcp' Lowercase to Small Capitals lookup 16-1" z.smcp
EndChar

StartChar: e
Encoding: 101 101 2
Width: 537
VWidth: 0
Flags: W
HStem: -7 24<156.35 368.237> 517 24<253.042 436.143>
LayerCount: 2
Fore
SplineSet
87 278 m 0
 113 430 144 541 339 541 c 0
 465 541 542 504 527 388 c 0
 499 169 143 232 106 247 c 1
 86 94 105 19 212 17 c 0
 289 16 372 27 450 38 c 1
 447 22 l 17
 363 -1 297 -7 214 -7 c 0
 86 -7 54 84 87 278 c 0
108 261 m 0
 108 261 477 192 502 388 c 0
 515 486 451 517 347 517 c 0
 149 517 137 406 108 261 c 0
EndSplineSet
Validated: 545
Substitution2: "'smcp' Lowercase to Small Capitals lookup 16-1" e.smcp
EndChar

StartChar: o
Encoding: 111 111 3
Width: 560
VWidth: 0
Flags: W
HStem: -5 24<177.716 365.943> 512 24<252.013 437.291>
LayerCount: 2
Fore
SplineSet
91 265 m 0
 125 482 195 536 354 536 c 3
 527 536 559 438 529 251 c 0
 498 57 436 -5 268 -5 c 3
 92 -5 61 75 91 265 c 0
115 258 m 0
 82 47 146 19 273 19 c 3
 401 19 473 56 505 258 c 0
 539 475 470 512 349 512 c 3
 229 512 152 490 115 258 c 0
EndSplineSet
Validated: 545
Substitution2: "'smcp' Lowercase to Small Capitals lookup 16-1" o.smcp
EndChar

StartChar: c
Encoding: 99 99 5
Width: 491
VWidth: 0
Flags: W
HStem: -5 24<161.554 359.96> 512 24<232.625 427.827>
LayerCount: 2
Fore
SplineSet
90 273 m 4
 127 505 206 536 308 536 c 3
 360 536 442 524 502 510 c 1
 499 496 l 1
 499 496 393 512 304 512 c 3
 213 512 147 478 113 262 c 0
 80 56 140 19 226 19 c 3
 318 19 434 40 434 40 c 1
 432 24 l 17
 347 1 305 -4 222 -5 c 0
 123 -5 53 40 90 273 c 4
EndSplineSet
Validated: 545
Substitution2: "'smcp' Lowercase to Small Capitals lookup 16-1" c.smcp
EndChar

StartChar: d
Encoding: 100 100 6
Width: 521
VWidth: 0
Flags: W
HStem: 0 18<188.4 314.542> 515 24<251.34 414.006> 765 20G<549.853 575>
VStem: 438 13<0 44.3145>
DStem2: 439 73 451 0 0.156027 0.987753<-6.68748 418.284 431.549 721.067>
LayerCount: 2
Fore
SplineSet
89 271 m 0
 111 407 166 539 317 539 c 3
 362 539 448 525 508 499 c 1
 553 785 l 1
 575 785 l 1
 451 0 l 1
 438 0 l 1
 437 59 l 17
 407 35 299 -6 231 -6 c 3
 86 -6 70 149 89 271 c 0
113 263 m 0
 84 82 153 18 238 18 c 3
 317 18 382 46 439 73 c 1
 505 485 l 1
 439 503 393 515 316 515 c 3
 232 515 146 472 113 263 c 0
EndSplineSet
Validated: 545
AlternateSubs2: "'salt' Access All Alternates in Latin lookup 4-1" d.salt
Substitution2: "'smcp' Lowercase to Small Capitals lookup 16-1" d.smcp
EndChar

StartChar: A
Encoding: 65 65 7
Width: 643
VWidth: 0
Flags: W
HStem: 0 21G<45 83.5929 586.968 615> 253 24<220 535> 712 20G<424.344 472.989>
DStem2: 45 0 73 0 0.470213 0.882553<13.166 299.46 326.754 815.696> 469 732 449 709 0.195601 -0.980684<18.6437 459.121 483.635 741.724>
LayerCount: 2
Fore
SplineSet
45 0 m 1
 435 732 l 1
 469 732 l 1
 615 0 l 1
 591 0 l 1
 540 253 l 1
 207 253 l 1
 73 0 l 1
 45 0 l 1
220 277 m 1
 535 277 l 1
 449 709 l 1
 220 277 l 1
EndSplineSet
Validated: 1
Substitution2: "'c2sc' Capitals to Small Capitals in Latin lookup 17 subtable" a.smcp
EndChar

StartChar: p
Encoding: 112 112 8
Width: 527
VWidth: 0
Flags: W
HStem: -10 24<181.96 353.597> 513 24<180.374 422.797>
DStem2: 17 -270 41 -270 0.157362 0.987541<3.77669 306.447 321.606 796.534>
LayerCount: 2
Fore
SplineSet
17 -270 m 9
 144 527 l 1
 195 535 265 537 371 537 c 3
 496 537 539 429 512 261 c 0
 487 103 437 -10 284 -10 c 0
 239 -10 148 3 88 29 c 1
 41 -270 l 17
 17 -270 l 9
91 45 m 1
 171 24 212 14 286 14 c 0
 410 14 462 107 488 268 c 0
 510 405 485 513 365 513 c 2
 165 513 l 2
 91 45 l 1
EndSplineSet
Validated: 545
AlternateSubs2: "'salt' Access All Alternates in Latin lookup 4-1" p.salt
Substitution2: "'smcp' Lowercase to Small Capitals lookup 16-1" p.smcp
EndChar

StartChar: b
Encoding: 98 98 9
Width: 545
VWidth: 0
Flags: W
HStem: -6 24<207.54 337.368> 515 24<265.075 421.242> 765 20G<180.841 206>
DStem2: 60 0 95 73 0.156027 0.987753<2.02835 63.2703 74.014 498.683 508.647 794.733>
LayerCount: 2
Fore
SplineSet
60 0 m 1
 184 785 l 1
 206 785 l 1
 161 499 l 1
 229 525 322 539 367 539 c 3
 518 539 528 392 506 256 c 0
 487 134 426 -6 281 -6 c 3
 213 -6 114 35 92 59 c 9
 73 0 l 1
 60 0 l 1
95 73 m 1
 144 46 203 18 282 18 c 3
 367 18 454 89 482 263 c 0
 514 468 445 515 361 515 c 3
 284 515 232 503 160 485 c 1
 95 73 l 1
EndSplineSet
Validated: 545
AlternateSubs2: "'salt' Access All Alternates in Latin lookup 4-1" b.salt
Substitution2: "'smcp' Lowercase to Small Capitals lookup 16-1" b.smcp
EndChar

StartChar: q
Encoding: 113 113 10
Width: 552
VWidth: 0
Flags: W
HStem: -10 24<174.516 338.276> 513 24<254.868 508.195>
DStem2: 393 -270 417 -270 0.156153 0.987733<3.74768 302.671 314.25 792.758>
LayerCount: 2
Fore
SplineSet
92 277 m 0
 119 445 194 537 319 537 c 1
 425 537 495 535 543 527 c 5
 417 -270 l 17
 393 -270 l 9
 440 29 l 1
 372 3 277 -10 232 -10 c 3
 79 -10 67 119 92 277 c 0
116 268 m 0
 90 107 113 14 237 14 c 3
 311 14 357 24 443 45 c 1
 517 513 l 2
 316 513 l 2
 196 513 138 405 116 268 c 0
EndSplineSet
Validated: 545
Substitution2: "'smcp' Lowercase to Small Capitals lookup 16-1" q.smcp
EndChar

StartChar: n
Encoding: 110 110 11
Width: 540
VWidth: 0
Flags: W
HStem: 0 21G<60 87.1648 440 467.189> 511 20G<140.836 158> 516 24<299.446 439.43>
VStem: 144 14<486.75 531>
DStem2: 440 0 464 0 0.15747 0.987524<3.77928 433.957>
LayerCount: 2
Fore
SplineSet
60 0 m 1xb0
 144 531 l 1
 158 531 l 1xd0
 158 469 l 1
 223 507 305 540 386 540 c 3
 492 540 537 458 523 370 c 2
 464 0 l 9
 440 0 l 17
 499 370 l 2
 512 449 471 516 382 516 c 3
 294 516 236 495 156 455 c 1
 84 0 l 1
 60 0 l 1xb0
EndSplineSet
Validated: 545
AlternateSubs2: "'salt' Access All Alternates in Latin lookup 4-1" n.salt
Substitution2: "'smcp' Lowercase to Small Capitals lookup 16-1" n.smcp
EndChar

StartChar: i
Encoding: 105 105 12
Width: 144
VWidth: 0
Flags: W
HStem: 0 21G<60 87.1638> 511 20G<140.836 168> 630 66<161.611 193.406>
VStem: 60 138
DStem2: 60 0 84 0 0.164399 0.986394<3.94558 537.585 640.706 707.52>
LayerCount: 2
Fore
SplineSet
60 0 m 1
 144 531 l 1
 168 531 l 1
 84 0 l 1
 60 0 l 1
157 642 m 2
 163 684 l 2
 164 692 169 696 177 696 c 2
 189 696 l 2
 197 696 199 691 198 684 c 2
 192 642 l 2
 191 634 185 630 178 630 c 2
 167 630 l 2
 160 630 156 635 157 642 c 2
EndSplineSet
Validated: 513
Substitution2: "'smcp' Lowercase to Small Capitals lookup 16-1" i.smcp
EndChar

StartChar: h
Encoding: 104 104 13
Width: 540
VWidth: 0
Flags: W
HStem: 0 21G<60 87.1648 440 467.189> 516 24<300.504 438.841> 764 20G<180.837 208>
DStem2: 60 0 84 0 0.156221 0.987722<3.74931 471.578 478.551 793.746> 440 0 464 0 0.15747 0.987524<3.77928 435.287>
LayerCount: 2
Fore
SplineSet
60 0 m 1
 184 784 l 1
 208 784 l 1
 158 469 l 1
 223 507 308 540 389 540 c 3
 495 540 537 458 523 370 c 2
 464 0 l 9
 440 0 l 17
 499 370 l 2
 512 454 471 516 382 516 c 3
 294 516 236 495 156 455 c 1
 84 0 l 1
 60 0 l 1
EndSplineSet
Validated: 545
Substitution2: "'smcp' Lowercase to Small Capitals lookup 16-1" h.smcp
EndChar

StartChar: u
Encoding: 117 117 14
Width: 539
VWidth: 0
Flags: W
HStem: -8 24<159.023 298.906> 1 21G<440 457.164> 512 20G<130.811 158 510.835 538>
VStem: 440 14<1 45.25>
DStem2: 75 162 99 162 0.15747 0.987524<-55.4837 374.675> 442 77 454 1 0.156249 0.987718<-7.16798 460.661>
LayerCount: 2
Fore
SplineSet
75 162 m 6xb0
 134 532 l 13
 158 532 l 21
 99 162 l 6
 86 83 127 16 216 16 c 7xb0
 304 16 362 37 442 77 c 5
 514 532 l 5
 538 532 l 5
 454 1 l 5
 440 1 l 5x70
 440 63 l 5
 375 25 294 -8 213 -8 c 7
 107 -8 61 74 75 162 c 6xb0
EndSplineSet
Validated: 545
AlternateSubs2: "'salt' Access All Alternates in Latin lookup 4-1" u.salt
Substitution2: "'smcp' Lowercase to Small Capitals lookup 16-1" u.smcp
EndChar

StartChar: r
Encoding: 114 114 15
Width: 393
VWidth: 0
Flags: W
HStem: 0 21G<60 87.1532> 513 18<307.219 456.562>
VStem: 144 10<486.75 531>
LayerCount: 2
Fore
SplineSet
60 0 m 1
 144 531 l 1
 156 531 l 1
 157 464 l 1
 224 499 297 537 387 537 c 27
 416 537 441 536 460 529 c 1
 456 506 l 1
 433 511 412 513 383 513 c 27
 294 513 237 481 154 444 c 1
 84 0 l 1
 60 0 l 1
EndSplineSet
Validated: 513
AlternateSubs2: "'salt' Access All Alternates in Latin lookup 4-1" r.salt
Substitution2: "'smcp' Lowercase to Small Capitals lookup 16-1" r.smcp
EndChar

StartChar: m
Encoding: 109 109 16
Width: 921
VWidth: 0
Flags: W
HStem: 0 21G<60 87.1648 440 467.189 819 846.189> 511 20G<140.836 158> 516 24<299.446 439.804 683.204 818.43>
VStem: 144 14<486.75 531>
DStem2: 440 0 464 0 0.15747 0.987524<3.77928 436.209> 819 0 843 0 0.15747 0.987524<3.77928 433.957>
LayerCount: 2
Fore
SplineSet
60 0 m 1xb0
 144 531 l 1
 158 531 l 1xd0
 158 469 l 1
 223 507 305 540 386 540 c 3
 454 540 497 506 515 458 c 1
 573 497 685 540 765 540 c 3
 871 540 916 458 902 370 c 2
 843 0 l 1
 819 0 l 1
 878 370 l 2
 891 449 850 516 761 516 c 3
 677 516 596 484 519 446 c 1
 526 422 527 397 523 370 c 2
 464 0 l 1
 440 0 l 1
 499 370 l 2
 512 449 471 516 382 516 c 3
 294 516 236 495 156 455 c 1
 84 0 l 1
 60 0 l 1xb0
EndSplineSet
Validated: 545
AlternateSubs2: "'salt' Access All Alternates in Latin lookup 4-1" m.salt
Substitution2: "'smcp' Lowercase to Small Capitals lookup 16-1" m.smcp
EndChar

StartChar: f
Encoding: 102 102 17
Width: 359
VWidth: 0
Flags: W
HStem: 0 21G<99 126.156> 507 24<207 381> 507 14<94 156.3> 762 24<275.571 462> 762 13<429.491 462>
DStem2: 99 0 123 0 0.155238 0.987877<3.72571 513.273 541.328 735.071>
LayerCount: 2
Fore
SplineSet
92 507 m 1xa0
 94 521 l 1xa0
 183 531 l 1
 198 630 l 2
 207 684 213 782 323 786 c 4xd0
 353 787 430 785 464 775 c 1x88
 462 762 l 1
 320 762 l 2
 252 762 234 708 222 630 c 2
 207 531 l 1
 385 531 l 1
 381 507 l 1xd0
 203 507 l 9
 123 0 l 17
 99 0 l 1
 179 507 l 1
 92 507 l 1xa0
EndSplineSet
Validated: 545
AlternateSubs2: "'salt' Access All Alternates in Latin lookup 4-1" f.salt
Substitution2: "'smcp' Lowercase to Small Capitals lookup 16-1" f.smcp
EndChar

StartChar: l
Encoding: 108 108 18
Width: 313
VWidth: 0
Flags: W
HStem: 0 13<207.594 249> 763 20G<179.835 207>
DStem2: 89 189 113 189 0.156304 0.987709<-89.4128 601.392>
LayerCount: 2
Fore
SplineSet
89 189 m 2
 183 783 l 1
 207 783 l 1
 113 189 l 2
 88 32 150 28 179 24 c 2
 179 24 244 13 251 13 c 1
 249 0 l 1
 184 0 l 2
 100 0 68 57 89 189 c 2
EndSplineSet
Validated: 545
Substitution2: "'smcp' Lowercase to Small Capitals lookup 16-1" l.smcp
EndChar

StartChar: j
Encoding: 106 106 19
Width: 151
VWidth: 0
Flags: W
HStem: 511 20G<151.829 179> 630 66<171.399 202.608>
VStem: 28 180
DStem2: 28 -270 94 -4 0.156596 0.987663<2.03574 811.006 950.295 979.842> 166 642 201 642 0.164399 0.986394<-9.22497 57.5945>
LayerCount: 2
Fore
SplineSet
28 -270 m 1
 155 531 l 1
 179 531 l 1
 94 -4 l 2
 81 -90 67 -182 41 -270 c 1
 28 -270 l 1
166 642 m 2
 173 684 l 2
 174 692 179 696 187 696 c 2
 199 696 l 2
 207 696 209 691 208 684 c 2
 201 642 l 2
 200 634 195 630 188 630 c 2
 177 630 l 2
 170 630 165 635 166 642 c 2
EndSplineSet
Validated: 513
Substitution2: "'smcp' Lowercase to Small Capitals lookup 16-1" j.smcp
EndChar

StartChar: t
Encoding: 116 116 20
Width: 344
VWidth: 0
Flags: W
HStem: -1 13<243.594 285> 508 24<204 375> 508 16<95 169.375>
VStem: 92 287
DStem2: 125 188 149 188 0.156581 0.987665<-89.3559 324.038>
LayerCount: 2
Fore
SplineSet
92 508 m 5xb0
 95 524 l 5xb0
 180 532 l 5
 211 680 l 5
 227 680 l 5
 204 532 l 5
 379 532 l 5
 375 508 l 5xd0
 200 508 l 5
 149 188 l 6
 124 31 186 27 215 23 c 6
 215 23 280 12 287 12 c 5
 285 -1 l 5
 222 -1 l 6
 138 -1 104 56 125 188 c 6
 176 508 l 5
 92 508 l 5xb0
EndSplineSet
Validated: 545
AlternateSubs2: "'salt' Access All Alternates in Latin lookup 4-1" t.salt
Substitution2: "'smcp' Lowercase to Small Capitals lookup 16-1" t.smcp
EndChar

StartChar: s
Encoding: 115 115 21
Width: 504
VWidth: 0
Flags: W
HStem: -5 24<114.089 380.379> 5 14<66 188.745> 252 24<140.74 403.715> 513 23<192.256 451.202> 513 14<362.672 491>
DStem2: 99 369 123 363 0.150442 0.988619<-61.2151 107.056> 431 113 455 107 0.161132 0.986933<-61.4157 94.4025>
LayerCount: 2
Fore
SplineSet
64 5 m 9x60
 66 19 l 17x60
 310 19 l 18
 357 19 416 20 431 113 c 2
 439 162 l 2
 447 211 421 252 350 252 c 10
 219 252 l 2
 125 252 83 266 99 369 c 10
 106 415 l 18
 119 497 161 536 264 536 c 3xb0
 316 536 443 532 494 527 c 9
 491 513 l 17x28
 260 513 l 2
 176 513 141 481 130 409 c 10
 123 363 l 18
 109 277 148 276 223 276 c 2
 351 276 l 2
 427 276 475 231 463 156 c 2
 455 107 l 2
 438 -2 368 -5 304 -5 c 3xb0
 255 -5 101 1 64 5 c 9x60
EndSplineSet
Validated: 545
Substitution2: "'smcp' Lowercase to Small Capitals lookup 16-1" s.smcp
EndChar

StartChar: k
Encoding: 107 107 22
Width: 474
VWidth: 0
Flags: W
HStem: 0 21G<60 87.2 397.281 437> 275 22<131 231.549> 511 20G<452.5 493> 762 20G<180.829 208>
VStem: 468 25<497.629 531>
DStem2: 60 0 84 0 0.156611 0.98766<3.75867 283.183 304.454 791.77> 265 292 242 285 0.507536 -0.861631<0 324.681>
LayerCount: 2
Fore
SplineSet
60 0 m 5
 184 782 l 5
 208 782 l 5
 131 297 l 5
 347 296 437 426 468 531 c 1
 493 531 l 1
 452 382 352 319 265 292 c 5
 437 0 l 5
 409 0 l 5
 242 285 l 5
 191 273 147 273 128 275 c 5
 84 0 l 5
 60 0 l 5
EndSplineSet
Validated: 545
Substitution2: "'smcp' Lowercase to Small Capitals lookup 16-1" k.smcp
EndChar

StartChar: g
Encoding: 103 103 23
Width: 532
VWidth: 0
Flags: W
HStem: -10 24<172.167 339.534> 513 24<257.046 505.719>
DStem2: 265 -249 261 -272 0.997805 -0.066226<-226.497 48.1944> 423 -104 447 -104 0.15572 0.987801<-65.3369 134.648 150.15 619.795>
LayerCount: 2
Fore
SplineSet
37 -248 m 5
 39 -234 l 5
 265 -249 l 6
 319 -253 406 -212 423 -104 c 6
 444 29 l 5
 376 3 276 -10 231 -10 c 7
 78 -10 66 117 91 275 c 4
 118 443 192 537 317 537 c 7
 423 537 500 528 546 524 c 5
 447 -104 l 6
 427 -228 337 -280 261 -272 c 6
 37 -248 l 5
115 271 m 4
 87 95 118 14 234 14 c 7
 308 14 361 28 447 49 c 5
 521 508 l 6
 322 513 l 6
 206 516 139 420 115 271 c 4
EndSplineSet
Validated: 545
AlternateSubs2: "'salt' Access All Alternates in Latin lookup 4-1" g.salt
Substitution2: "'smcp' Lowercase to Small Capitals lookup 16-1" g.smcp
EndChar

StartChar: v
Encoding: 118 118 24
Width: 533
VWidth: 0
Flags: W
HStem: 0 21G<222.953 267.591> 511 20G<94 123.141 523 544>
DStem2: 118 531 94 531 0.244683 -0.969603<0 514.182> 246 33 256 0 0.501424 0.865202<0 566.551>
LayerCount: 2
Fore
SplineSet
94 531 m 29
 118 531 l 21
 246 33 l 5
 488 448 l 6
 500 469 521 504 525 532 c 13
 540 532 l 21
 548 503 517 451 511 440 c 6
 256 0 l 13
 228 0 l 29
 94 531 l 29
EndSplineSet
Validated: 545
Substitution2: "'smcp' Lowercase to Small Capitals lookup 16-1" v.smcp
EndChar

StartChar: w
Encoding: 119 119 25
Width: 806
VWidth: 0
Flags: W
HStem: 0 21G<222.953 265.6 500.8 544.591> 511 20G<94 123.09 521 542 801 822>
DStem2: 118 531 94 531 0.244683 -0.969603<0 514.907> 245 32 254 0 0.501659 0.865065<0 323.641 357.256 565.162> 445 329 428 300 0.251634 -0.967822<23.7891 308.755> 522 30 533 0 0.501424 0.865202<0 570.283>
LayerCount: 2
Fore
SplineSet
94 531 m 1
 118 531 l 1
 245 32 l 1
 484 445 l 2
 496 466 519 502 523 530 c 9
 538 530 l 17
 546 501 514 449 508 438 c 2
 445 329 l 1
 522 30 l 1
 764 446 l 2
 776 467 799 504 803 532 c 9
 818 532 l 17
 826 503 794 451 788 440 c 2
 533 0 l 1
 506 0 l 1
 428 300 l 1
 254 0 l 1
 228 0 l 1
 94 531 l 1
EndSplineSet
Validated: 545
Substitution2: "'smcp' Lowercase to Small Capitals lookup 16-1" w.smcp
EndChar

StartChar: y
Encoding: 121 121 26
Width: 536
VWidth: 0
Flags: W
HStem: -269 14<97 117.998> 0 25<247.269 283> 511 20G<94 121.952>
DStem2: 118 531 94 531 0.193426 -0.981115<0 481.262> 283 0 310 1 0.431245 0.902235<-176.845 0 27.7308 581.004>
LayerCount: 2
Fore
SplineSet
94 531 m 1
 118 531 l 1
 200 116 l 2
 220 13 296 25 295 25 c 1
 500 454 l 2
 510 476 524 510 528 538 c 9
 543 538 l 17
 551 509 532 465 523 446 c 2
 310 1 l 10
 310 1 192 -269 97 -269 c 9
 97 -255 l 17
 168 -256 283 0 283 0 c 17
 262 1 196 12 177 110 c 2
 94 531 l 1
EndSplineSet
Validated: 549
Substitution2: "'smcp' Lowercase to Small Capitals lookup 16-1" y.smcp
EndChar

StartChar: x
Encoding: 120 120 27
Width: 444
VWidth: 0
Flags: W
HStem: 0 21G<24 73.6955 396.724 440> 511 20G<108 151.358 474.387 524>
DStem2: 24 0 56 0 0.661201 0.750209<21.1584 345.617 384.005 707.803> 140 531 108 531 0.491895 -0.870654<0 279.451 315.187 594.145>
LayerCount: 2
Fore
SplineSet
24 0 m 1
 258 266 l 1
 108 531 l 1
 140 531 l 1
 278 288 l 1
 492 531 l 1
 524 531 l 1
 290 266 l 1
 440 0 l 1
 408 0 l 1
 271 243 l 1
 56 0 l 1
 24 0 l 1
EndSplineSet
Validated: 513
AlternateSubs2: "'salt' Access All Alternates in Latin lookup 4-1" x.salt
Substitution2: "'smcp' Lowercase to Small Capitals lookup 16-1" x.smcp
EndChar

StartChar: V
Encoding: 86 86 28
Width: 668
VWidth: 0
Flags: W
HStem: 0 21G<292.011 340.656> 712 20G<150 178.994 682.32 720>
DStem2: 175 732 150 732 0.195601 -0.980684<0 719.942> 316 26 330 0 0.470213 0.882553<0 800.353>
LayerCount: 2
Fore
SplineSet
150 732 m 1
 175 732 l 1
 316 26 l 1
 693 732 l 1
 720 732 l 1
 330 0 l 1
 296 0 l 1
 150 732 l 1
EndSplineSet
Validated: 1
Substitution2: "'c2sc' Capitals to Small Capitals in Latin lookup 17 subtable" v.smcp
EndChar

StartChar: W
Encoding: 87 87 29
Width: 980
VWidth: 0
Flags: W
HStem: 0 21G<292.011 340.202 623.151 672.109> 712 20G<150 178.017 663.873 700 995.859 1032>
DStem2: 174 732 150 732 0.195601 -0.980684<0 721.119> 316 25 330 0 0.451111 0.892468<0 428.546 467.902 792.472> 550 431 532 396 0.231836 -0.972755<29.8734 418.399> 647 24 662 0 0.451111 0.892468<0 793.816>
LayerCount: 2
Fore
SplineSet
150 732 m 1
 174 732 l 1
 316 25 l 1
 674 732 l 1
 700 732 l 1
 550 431 l 1
 647 24 l 1
 1006 732 l 1
 1032 732 l 1
 662 0 l 1
 628 0 l 1
 532 396 l 1
 330 0 l 1
 296 0 l 1
 150 732 l 1
EndSplineSet
Validated: 1
Substitution2: "'c2sc' Capitals to Small Capitals in Latin lookup 17 subtable" w.smcp
EndChar

StartChar: C
Encoding: 67 67 30
Width: 564
VWidth: 0
Flags: W
HStem: -6 24<237.623 451.16> 716 24<329.627 554.046>
LayerCount: 2
Fore
SplineSet
117 376 m 0
 153 606 214 740 417 740 c 0
 469 740 561 729 629 716 c 1
 627 702 l 17
 626 702 507 716 415 716 c 3
 268 716 185 646 141 366 c 0
 105 138 154 18 306 18 c 7
 411 18 520 30 520 30 c 1
 518 16 l 1
 446 3 353 -6 301 -6 c 0
 116 -6 83 161 117 376 c 0
EndSplineSet
Validated: 33
Substitution2: "'c2sc' Capitals to Small Capitals in Latin lookup 17 subtable" c.smcp
EndChar

StartChar: D
Encoding: 68 68 31
Width: 658
VWidth: 0
Flags: W
HStem: 0 24<108 409.861> 708 24<216 514.404>
DStem2: 80 0 108 24 0.156517 0.987675<28.0867 720.56>
LayerCount: 2
Fore
SplineSet
80 0 m 1
 196 732 l 2
 448 732 l 0
 674 732 677 504 649 355 c 0
 613 163 524 0 339 0 c 0
 80 0 l 1
108 24 m 1
 339 24 l 2
 521 24 601 216 626 364 c 0
 666 601 594 708 443 708 c 2
 216 708 l 1
 108 24 l 1
EndSplineSet
Validated: 33
Substitution2: "'c2sc' Capitals to Small Capitals in Latin lookup 17 subtable" d.smcp
EndChar

StartChar: O
Encoding: 79 79 32
Width: 684
VWidth: 0
Flags: W
HStem: -4 24<221.32 441.727> 713 24<323.616 552.668>
LayerCount: 2
Fore
SplineSet
118 368 m 0
 172 711 275 737 447 737 c 3
 620 737 708 697 654 354 c 0
 603 31 506 -4 326 -4 c 3
 146 -4 65 35 118 368 c 0
142 361 m 0
 95 63 153 20 332 20 c 3
 503 20 583 65 630 361 c 0
 681 685 602 713 442 713 c 3
 294 713 195 698 142 361 c 0
EndSplineSet
Validated: 33
Substitution2: "'c2sc' Capitals to Small Capitals in Latin lookup 17 subtable" o.smcp
EndChar

StartChar: S
Encoding: 83 83 33
Width: 565
VWidth: 0
Flags: W
HStem: -8 24<103.41 406.217> 347 24<206.177 474.298> 714 24<274.763 534.667>
DStem2: 138 498 162 494 0.124692 0.992195<-71.919 126.881> 508 156 532 151 0.145494 0.989359<-66.0635 134.006>
LayerCount: 2
Fore
SplineSet
79 7 m 9
 81 22 l 17
 124 18 225 16 318 16 c 1
 408 16 490 39 508 156 c 2
 518 224 l 2
 531 309 500 347 400 347 c 10
 288 347 l 2
 133 347 126 420 138 498 c 10
 149 564 l 18
 172 709 258 738 370 738 c 0
 423 738 541 727 589 719 c 1
 587 706 l 1
 524 710 366 714 366 714 c 2
 261 718 192 681 173 560 c 10
 162 494 l 18
 146 390 198 371 290 371 c 2
 404 371 l 18
 537 371 555 301 542 219 c 2
 532 151 l 2
 510 9 411 -8 312 -8 c 3
 263 -8 124 -1 79 7 c 9
EndSplineSet
Validated: 33
Substitution2: "'c2sc' Capitals to Small Capitals in Latin lookup 17 subtable" s.smcp
EndChar

StartChar: G
Encoding: 71 71 34
Width: 640
VWidth: 0
Flags: W
HStem: 0 19<228.612 369.197> 364 25<374.973 583.312> 364 14<373 410.462> 716 24<324.497 544.654>
VStem: 537 14<0 44.2951>
DStem2: 538 69 551 0 0.156094 0.987742<-4.99725 298.564>
LayerCount: 2
Fore
SplineSet
125 377 m 0xd8
 157 577 203 740 402 740 c 0
 454 740 579 726 647 713 c 1
 644 694 l 1
 638 694 492 716 398 716 c 3
 232 716 183 585 149 368 c 0
 110 120 134 19 293 19 c 0
 371 19 538 69 538 69 c 9
 584 364 l 25
 370 364 l 25
 373 378 l 17xb8
 415 389 463 389 544 389 c 0
 565 389 588 388 612 386 c 9
 551 0 l 17
 537 0 l 0
 537 54 l 1
 504 38 379 -5 289 -5 c 1
 82 -7 92 170 125 377 c 0xd8
EndSplineSet
Validated: 33
Substitution2: "'c2sc' Capitals to Small Capitals in Latin lookup 17 subtable" g.smcp
EndChar

StartChar: Q
Encoding: 81 81 35
Width: 690
VWidth: 0
Flags: W
HStem: -4 24<225.32 445.727> 713 24<327.616 556.668>
VStem: 319 14<-53.6891 -33>
LayerCount: 2
Fore
SplineSet
122 368 m 0
 176 711 279 737 451 737 c 3
 624 737 712 697 658 354 c 0
 607 31 510 -4 330 -4 c 3
 150 -4 69 35 122 368 c 0
146 361 m 0
 99 63 157 20 336 20 c 3
 507 20 587 65 634 361 c 0
 685 685 606 713 446 713 c 3
 298 713 199 698 146 361 c 0
319 -33 m 9
 333 -33 l 17
 350 -115 436 -116 499 -96 c 1
 495 -120 l 1
 419 -147 324 -127 319 -33 c 9
EndSplineSet
Validated: 33
Substitution2: "'c2sc' Capitals to Small Capitals in Latin lookup 17 subtable" q.smcp
EndChar

StartChar: M
Encoding: 77 77 36
Width: 770
VWidth: 0
Flags: W
HStem: 0 21G<71 101.402 384.04 424.244 707 732.874> 712 20G<262.617 305.039 715.796 764>
VStem: 707 25<0 153.344> 739 25<571.875 701>
DStem2: 71 0 96 0 0.259879 0.965641<6.49697 727.44> 302 732 284 696 0.146394 -0.989226<32.9771 698.927> 407 41 415 0 0.419551 0.907732<0 738.394>
LayerCount: 2
Fore
SplineSet
71 0 m 1
 268 732 l 1
 302 732 l 1
 407 41 l 1
 725 732 l 1
 764 732 l 1
 732 0 l 1
 707 0 l 1
 739 701 l 5
 415 0 l 1
 387 0 l 1
 284 696 l 1
 96 0 l 1
 71 0 l 1
EndSplineSet
Validated: 1
AlternateSubs2: "'salt' Access All Alternates in Latin lookup 4-1" M.salt
Substitution2: "'c2sc' Capitals to Small Capitals in Latin lookup 17 subtable" m.smcp
EndChar

StartChar: I
Encoding: 73 73 37
Width: 192
VWidth: 0
Flags: W
HStem: 0 21G<90 117.169> 712 20G<202.831 230>
VStem: 90 140
DStem2: 90 0 114 0 0.156517 0.987675<3.7564 741.134>
LayerCount: 2
Fore
SplineSet
90 0 m 1
 206 732 l 1
 230 732 l 1
 114 0 l 1
 90 0 l 1
EndSplineSet
Validated: 1
Substitution2: "'c2sc' Capitals to Small Capitals in Latin lookup 17 subtable" i.smcp
EndChar

StartChar: J
Encoding: 74 74 38
Width: 319
VWidth: 0
Flags: W
HStem: 21 14<44 47.262> 712 20G<357.825 385>
DStem2: 271 165 295 165 0.156768 0.987636<-79.8996 574.098>
LayerCount: 2
Fore
SplineSet
38 21 m 1
 44 35 l 1
 128 8 243 -4 271 165 c 1
 361 732 l 1
 385 732 l 1
 295 165 l 2
 288 118 270 51 220 18 c 0
 172 -14 85 -13 38 21 c 1
EndSplineSet
Validated: 33
Substitution2: "'c2sc' Capitals to Small Capitals in Latin lookup 17 subtable" j.smcp
EndChar

StartChar: H
Encoding: 72 72 39
Width: 651
VWidth: 0
Flags: W
HStem: 0 21G<85 112.158 549 576.169> 342 24<167 603> 712 20G<197.831 225 661.831 689>
DStem2: 85 0 109 0 0.156517 0.987675<3.7564 349.993 374.324 741.134> 549 0 573 0 0.156517 0.987675<3.7564 346.237 370.567 741.134>
LayerCount: 2
Fore
SplineSet
85 0 m 1
 201 732 l 1
 225 732 l 1
 167 366 l 1
 607 366 l 1
 665 732 l 1
 689 732 l 1
 573 0 l 1
 549 0 l 1
 603 342 l 1
 163 342 l 1
 109 0 l 1
 85 0 l 1
EndSplineSet
Substitution2: "'c2sc' Capitals to Small Capitals in Latin lookup 17 subtable" h.smcp
EndChar

StartChar: E
Encoding: 69 69 40
Width: 561
VWidth: 0
Flags: W
HStem: -3 24<151.494 416.3> 7 14<300.7 503> 351 24<162 518> 708 24<261.001 527.2> 708 14<408.8 614>
DStem2: 98 128 122 123 0.156704 0.987646<-57.3934 229.647 253.978 545.249>
LayerCount: 2
Fore
SplineSet
98 128 m 2xa0
 174 607 l 2
 190 705 256 734 320 732 c 2xb0
 616 722 l 5
 614 708 l 5x28
 317 708 l 2
 255 708 210 677 198 602 c 2
 162 375 l 1
 520 370 l 5
 518 356 l 5
 158 351 l 1
 122 123 l 2
 107 31 163 21 218 21 c 2xb0
 505 21 l 5
 503 7 l 5x60
 214 -3 l 2
 148 -5 80 15 98 128 c 2xa0
EndSplineSet
Validated: 33
Substitution2: "'c2sc' Capitals to Small Capitals in Latin lookup 17 subtable" e.smcp
EndChar

StartChar: L
Encoding: 76 76 41
Width: 547
VWidth: 0
Flags: W
HStem: 0 24<153.437 491> 712 20G<191.832 219>
DStem2: 99 126 123 126 0.156465 0.987684<-52.5496 613.557>
LayerCount: 2
Fore
SplineSet
99 126 m 2
 195 732 l 1
 219 732 l 1
 123 126 l 2
 108 34 165 24 219 24 c 2
 495 24 l 1
 491 0 l 1
 220 0 l 2
 154 0 81 13 99 126 c 2
EndSplineSet
Validated: 33
Substitution2: "'c2sc' Capitals to Small Capitals in Latin lookup 17 subtable" l.smcp
EndChar

StartChar: F
Encoding: 70 70 42
Width: 555
VWidth: 0
Flags: W
HStem: 0 21G<80 107.191> 351 24<163 519> 708 24<258.04 528.2> 708 14<409.8 615>
DStem2: 80 0 104 0 0.155878 0.987776<3.74108 359.18 383.354 677.103>
LayerCount: 2
Fore
SplineSet
80 0 m 25xe0
 174 598 l 2
 192 712 254 734 321 732 c 2xe0
 617 722 l 1
 615 708 l 1xd0
 316 708 l 2
 250 708 211 679 199 602 c 2
 163 375 l 1
 522 370 l 1
 519 356 l 1
 160 351 l 1
 104 0 l 25
 80 0 l 25xe0
EndSplineSet
Validated: 33
Substitution2: "'c2sc' Capitals to Small Capitals in Latin lookup 17 subtable" f.smcp
EndChar

StartChar: K
Encoding: 75 75 43
Width: 528
VWidth: 0
Flags: W
HStem: 0 21G<80 108.155 487.803 526> 355 24<164 317> 712 20G<192.831 220 594.343 641>
DStem2: 80 0 105 0 0.156517 0.987675<3.91292 363.303 387.476 741.134> 317 379 339 368 0.638519 0.769606<5.58176 459.396> 339 368 317 355 0.453018 -0.891501<1.62311 400.102>
LayerCount: 2
Fore
SplineSet
80 0 m 1
 196 732 l 1
 220 732 l 1
 164 379 l 1
 317 379 l 1
 611 732 l 1
 641 732 l 1
 339 368 l 1
 526 0 l 1
 498 0 l 1
 317 355 l 1
 161 355 l 9
 105 0 l 17
 80 0 l 1
EndSplineSet
Validated: 1
Substitution2: "'c2sc' Capitals to Small Capitals in Latin lookup 17 subtable" k.smcp
EndChar

StartChar: T
Encoding: 84 84 44
Width: 631
VWidth: 0
Flags: W
HStem: 0 21G<281 308.164> 708 24<143 393 417 677>
DStem2: 281 0 305 0 0.156249 0.987718<3.74998 716.804>
LayerCount: 2
Fore
SplineSet
139 708 m 1
 143 732 l 1
 681 732 l 1
 677 708 l 1
 417 708 l 1
 305 0 l 1
 281 0 l 1
 393 708 l 1
 139 708 l 1
EndSplineSet
Validated: 1
Substitution2: "'c2sc' Capitals to Small Capitals in Latin lookup 17 subtable" t.smcp
EndChar

StartChar: P
Encoding: 80 80 45
Width: 584
VWidth: 0
Flags: W
HStem: 0 21G<75 102.183> 323 24<213.229 476.819> 333 14<154 285.319> 707 25<211 535.947>
DStem2: 75 0 99 0 0.156517 0.987675<3.7564 341.322 355.088 719.573>
LayerCount: 2
Fore
SplineSet
75 0 m 1xb0
 191 732 l 1
 467 732 l 2
 546 732 639 711 611 532 c 0
 579 328 476 323 402 323 c 0xd0
 362 323 157 330 152 333 c 1
 99 0 l 1
 75 0 l 1xb0
154 347 m 2xb0
 406 347 l 2xd0
 485 347 563 374 586 533 c 1
 610 687 539 707 463 707 c 2
 211 707 l 1
 154 347 l 2xb0
EndSplineSet
Validated: 33
Substitution2: "'c2sc' Capitals to Small Capitals in Latin lookup 17 subtable" p.smcp
EndChar

StartChar: R
Encoding: 82 82 46
Width: 612
VWidth: 0
Flags: W
HStem: 0 21G<75 102.183 496.251 529> 323 24<203.343 394 420 480.838> 333 14<154 285.037> 707 25<211 533.975>
DStem2: 75 0 99 0 0.156517 0.987675<3.7564 341.352 355.088 719.573> 420 323 394 323 0.319746 -0.947503<0 332.582>
LayerCount: 2
Fore
SplineSet
75 0 m 1xb0
 191 732 l 1
 467 732 l 2
 546 732 639 707 611 528 c 0
 581 340 495 325 420 323 c 1
 529 0 l 1
 503 0 l 1
 394 323 l 1xd0
 341 324 156 330 152 333 c 1
 99 0 l 1
 75 0 l 1xb0
154 347 m 1xb0
 406 347 l 2
 485 347 561 370 586 532 c 0
 610 686 539 707 463 707 c 2
 211 707 l 1
 154 347 l 1xb0
EndSplineSet
Validated: 33
Substitution2: "'c2sc' Capitals to Small Capitals in Latin lookup 17 subtable" r.smcp
EndChar

StartChar: U
Encoding: 85 85 47
Width: 681
VWidth: 0
Flags: W
HStem: -5 24<221.746 443.368> 712 20G<192.845 220 675.845 703>
DStem2: 131 320 155 320 0.155839 0.987782<-141.96 417.096> 614 320 638 320 0.155839 0.987782<-136.867 417.096>
LayerCount: 2
Fore
SplineSet
131 320 m 2
 196 732 l 1
 220 732 l 1
 155 320 l 2
 108 21 203 19 339 19 c 3
 464 19 569 35 614 320 c 2
 679 732 l 1
 703 732 l 1
 638 320 l 2
 587 -3 463 -5 341 -5 c 7
 205 -5 79 -9 131 320 c 2
EndSplineSet
Validated: 33
Substitution2: "'c2sc' Capitals to Small Capitals in Latin lookup 17 subtable" u.smcp
EndChar

StartChar: B
Encoding: 66 66 48
Width: 590
VWidth: 0
Flags: W
HStem: 0 25<108 413.095> 371 24<167 451.695> 708 24<216 530.051>
DStem2: 80 0 108 25 0.156517 0.987675<29.0744 379.418 403.749 720.56>
LayerCount: 2
Fore
SplineSet
80 0 m 1
 196 732 l 1
 449 732 l 2
 597 732 628 665 611 558 c 0
 596 462 519 391 455 384 c 1
 497 374 576 311 558 197 c 0
 542 95 487 0 333 0 c 2
 80 0 l 1
108 25 m 1
 337 25 l 2
 416 25 511 54 535 204 c 0
 550 296 484 373 392 371 c 9
 163 371 l 1
 108 25 l 1
167 395 m 1
 396 395 l 2
 489 395 566 457 586 555 c 0
 610 675 555 708 445 708 c 2
 216 708 l 1
 167 395 l 1
EndSplineSet
Validated: 33
Substitution2: "'c2sc' Capitals to Small Capitals in Latin lookup 17 subtable" b.smcp
EndChar

StartChar: N
Encoding: 78 78 49
Width: 642
VWidth: 0
Flags: W
HStem: 0 21G<80 107.188 535.406 572.169> 712 20G<192.831 230.579 657.807 685>
DStem2: 80 0 104 0 0.156517 0.987675<3.7564 702.469> 221 732 214 690 0.432519 -0.901625<34.8406 763.951> 551 43 569 0 0.156517 0.987675<0 697.725>
LayerCount: 2
Fore
SplineSet
80 0 m 1
 196 732 l 1
 221 732 l 1
 551 43 l 1
 661 732 l 1
 685 732 l 1
 569 0 l 0
 545 0 l 1
 214 690 l 1
 104 0 l 1
 80 0 l 1
EndSplineSet
Validated: 1
AlternateSubs2: "'salt' Access All Alternates in Latin lookup 4-1" N.salt
Substitution2: "'c2sc' Capitals to Small Capitals in Latin lookup 17 subtable" n.smcp
EndChar

StartChar: X
Encoding: 88 88 50
Width: 542
VWidth: 0
Flags: W
HStem: 0 21G<38 84.1622 469.032 506> 712 20G<151 187.837 580.593 627>
DStem2: 38 0 69 0 0.60624 0.795282<18.7934 444.198 486.198 920.428> 179 732 151 732 0.407874 -0.913038<0 376.082 418.781 790.298>
LayerCount: 2
Fore
SplineSet
38 0 m 1
 313 365 l 1
 151 732 l 1
 179 732 l 1
 331 388 l 1
 596 732 l 1
 627 732 l 1
 343 363 l 1
 506 0 l 1
 478 0 l 1
 326 339 l 1
 69 0 l 1
 38 0 l 1
EndSplineSet
Validated: 1
AlternateSubs2: "'salt' Access All Alternates in Latin lookup 4-1" X.salt
Substitution2: "'c2sc' Capitals to Small Capitals in Latin lookup 17 subtable" x.smcp
EndChar

StartChar: Z
Encoding: 90 90 51
Width: 507
VWidth: 0
Flags: W
HStem: 0 24<71 498> 708 24<151 578>
DStem2: 39 24 71 24 0.618937 0.785441<19.806 870.848>
LayerCount: 2
Fore
SplineSet
35 0 m 1
 39 24 l 1
 578 708 l 1
 147 708 l 1
 151 732 l 1
 614 732 l 1
 610 708 l 1
 71 24 l 5
 502 24 l 1
 498 0 l 1
 35 0 l 1
EndSplineSet
Validated: 1
Substitution2: "'c2sc' Capitals to Small Capitals in Latin lookup 17 subtable" z.smcp
EndChar

StartChar: Y
Encoding: 89 89 52
Width: 628
VWidth: 0
Flags: W
HStem: 0 21G<277 304.154> 712 20G<150 184.091 636.545 680>
DStem2: 177 732 150 732 0.335325 -0.942103<0 466.836> 277 0 301 0 0.155767 0.987794<3.73842 263.213> 333 292 342 260 0.582215 0.813035<0 542.88>
LayerCount: 2
Fore
SplineSet
150 732 m 1
 177 732 l 1
 333 292 l 1
 651 732 l 1
 680 732 l 1
 342 260 l 1
 301 0 l 1
 277 0 l 1
 318 260 l 1
 150 732 l 1
EndSplineSet
Validated: 1
Substitution2: "'c2sc' Capitals to Small Capitals in Latin lookup 17 subtable" y.smcp
EndChar

StartChar: AE
Encoding: 198 198 59
Width: 896
VWidth: 0
Flags: W
HStem: -3 24<551.944 797> 7 14<697 872> 252 24<279 518> 351 24<561 887> 708 24<639.384 905.5> 708 14<799.5 983>
DStem2: 30 0 60 0 0.622076 0.782957<18.6623 339.76 370.993 854.5> 497 121 521 123 0.156625 0.987658<-52.8901 132.672 157.003 236.715 260.889 542.698>
LayerCount: 2
Fore
SplineSet
30 0 m 1xb0
 499 590 l 2
 578 689 610 737 720 732 c 1xb8
 985 722 l 1
 983 708 l 1x34
 716 708 l 2
 600 708 608 667 596 592 c 2
 561 375 l 1
 890 370 l 1
 887 356 l 1
 558 351 l 1
 521 123 l 2
 506 31 562 21 617 21 c 2xb8
 874 21 l 1
 872 7 l 1x70
 622 -3 l 6
 557 -5 479 8 497 121 c 2
 518 252 l 1
 259 252 l 1
 60 0 l 1
 30 0 l 1xb0
279 276 m 1
 522 276 l 1
 582 657 l 1
 279 276 l 1
EndSplineSet
Validated: 33
EndChar

StartChar: Ccedilla
Encoding: 199 199 60
Width: 564
VWidth: 0
Flags: W
HStem: -172 7<195 228> -6 24<237.623 451.16> 716 24<329.627 554.046>
VStem: 330 17<-75.908 -36>
LayerCount: 2
Fore
SplineSet
117 376 m 0
 153 606 214 740 417 740 c 0
 469 740 561 729 629 716 c 1
 627 702 l 1
 626 702 507 716 415 716 c 0
 268 716 185 646 141 366 c 0
 105 138 154 18 306 18 c 0
 411 18 520 30 520 30 c 1
 518 16 l 1
 446 3 353 -6 301 -6 c 0
 116 -6 83 161 117 376 c 0
194 -172 m 1
 195 -165 l 1
 228 -160 l 2
 283 -152 315 -144 330 -36 c 1
 347 -36 l 1
 331 -136 308 -172 225 -172 c 2
 194 -172 l 1
EndSplineSet
Validated: 33
Substitution2: "'c2sc' Capitals to Small Capitals in Latin lookup 17 subtable" ccedilla.smcp
EndChar

StartChar: Eth
Encoding: 208 208 61
Width: 686
VWidth: 0
Flags: W
HStem: 0 24<107 408.861> 366 14<74 137 163 320> 708 24<215 513.438>
DStem2: 79 0 107 24 0.156517 0.987675<28.0867 370.567 388.464 720.56>
LayerCount: 2
Fore
SplineSet
72 366 m 5
 74 380 l 5
 139 380 l 5
 195 732 l 5
 447 732 l 2
 673 732 677 504 649 355 c 0
 613 163 523 0 338 0 c 2
 79 0 l 5
 137 366 l 5
 72 366 l 5
107 24 m 5
 338 24 l 2
 520 24 600 216 625 364 c 0
 665 601 593 708 442 708 c 2
 215 708 l 5
 163 380 l 5
 322 380 l 5
 320 366 l 5
 161 366 l 5
 107 24 l 5
EndSplineSet
Validated: 33
Substitution2: "'c2sc' Capitals to Small Capitals in Latin lookup 17 subtable" eth.smcp
EndChar

StartChar: Oslash
Encoding: 216 216 76
Width: 684
VWidth: 0
Flags: W
HStem: -4 24<217.094 446.32> 713 24<324.736 557.934>
DStem2: 85 0 103 0 0.625604 0.78014<11.2609 71.7005 103.076 842.886 874.261 938.293>
LayerCount: 2
Fore
SplineSet
85 0 m 5
 132 59 l 5
 99 110 93 203 118 364 c 4
 172 707 270 737 442 737 c 4
 526 737 594 729 632 682 c 5
 672 732 l 5
 690 732 l 5
 640 670 l 5
 673 617 680 517 654 354 c 4
 603 31 506 -4 326 -4 c 4
 240 -4 178 3 141 47 c 5
 103 0 l 5
 85 0 l 5
142 361 m 4
 119 215 121 129 150 80 c 5
 615 662 l 5
 581 708 521 713 442 713 c 4
 294 713 195 698 142 361 c 4
158 68 m 5
 190 28 251 20 335 20 c 4
 506 20 583 65 630 361 c 4
 654 511 650 599 623 649 c 5
 158 68 l 5
EndSplineSet
Validated: 33
Substitution2: "'c2sc' Capitals to Small Capitals in Latin lookup 17 subtable" oslash.smcp
EndChar

StartChar: ae
Encoding: 230 230 88
Width: 963
VWidth: 0
Flags: W
HStem: -7 23<137.986 272.849 513.819 722.783> 517 24<608.083 787.564>
LayerCount: 2
Fore
SplineSet
50 279 m 0
 90 507 190 531 272 541 c 0
 338 549 453 519 510 475 c 1
 546 517 601 541 693 541 c 0
 819 541 896 504 881 388 c 0
 853 169 497 232 460 247 c 1
 440 94 461 19 568 17 c 0
 645 16 726 27 804 38 c 1
 801 22 l 1
 717 -1 651 -7 568 -7 c 0
 499 -7 458 19 440 74 c 1
 389 47 305 -7 206 -7 c 0
 92 -7 9 45 50 279 c 0
69 246 m 0
 46 98 88 16 198 16 c 0
 282 16 368 63 435 92 c 5
 425 138 428 200 441 278 c 0
 454 353 470 413 498 461 c 1
 456 484 366 530 269 517 c 0
 152 501 99 438 69 246 c 0
462 261 m 1
 462 261 831 192 856 388 c 0
 869 486 804 517 700 517 c 0
 507 517 491 412 462 261 c 1
EndSplineSet
Validated: 33
Substitution2: "'smcp' Lowercase to Small Capitals lookup 16-1" ae.smcp
EndChar

StartChar: ccedilla
Encoding: 231 231 89
Width: 494
VWidth: 0
Flags: W
HStem: -171 7<115 149> -5 24<163.554 361.96> 512 24<234.625 429.827>
VStem: 251 17<-74.908 -35>
LayerCount: 2
Fore
SplineSet
92 273 m 4
 129 505 208 536 310 536 c 3
 362 536 444 524 504 510 c 1
 501 496 l 1
 501 496 395 512 306 512 c 3
 215 512 149 478 115 262 c 0
 82 56 142 19 228 19 c 3
 320 19 436 40 436 40 c 1
 434 24 l 17
 349 1 307 -4 224 -5 c 0
 125 -5 55 40 92 273 c 4
114 -171 m 9
 115 -164 l 25
 149 -159 l 18
 204 -151 236 -143 251 -35 c 1
 268 -35 l 17
 252 -135 228 -171 145 -171 c 2
 114 -171 l 9
EndSplineSet
Validated: 33
Substitution2: "'smcp' Lowercase to Small Capitals lookup 16-1" ccedilla.smcp
EndChar

StartChar: eth
Encoding: 240 240 98
Width: 547
VWidth: 0
Flags: W
HStem: 0 26<150.177 356.932> 507 24<231.88 427.995> 762 21<246 320.802>
DStem2: 259 634 261 620 0.937853 0.347034<0 174.039 206.17 345.686>
LayerCount: 2
Fore
SplineSet
80 270 m 0
 107 440 165 531 300 531 c 2
 370 531 l 2
 457 531 494 484 500 465 c 1
 498 523 489 617 433 684 c 1
 261 620 l 1
 259 634 l 1
 422 695 l 1
 382 734 329 761 243 762 c 1
 246 783 l 1
 340 782 403 751 447 704 c 1
 584 755 l 1
 588 741 l 1
 457 693 l 1
 537 590 532 409 508 258 c 0
 476 59 393 0 286 0 c 2
 216 0 l 2
 79 0 52 91 80 270 c 0
104 264 m 0
 72 63 123 26 220 26 c 2
 290 26 l 2
 416 26 463 133 484 264 c 0
 501 374 510 507 367 507 c 2
 297 507 l 2
 208 507 136 466 104 264 c 0
EndSplineSet
Validated: 33
Substitution2: "'smcp' Lowercase to Small Capitals lookup 16-1" eth.smcp
EndChar

StartChar: oslash
Encoding: 248 248 105
Width: 540
VWidth: 0
Flags: W
HStem: -5 24<164.014 358.447> 512 24<246.196 432.269>
DStem2: 51 0 69 0 0.669042 0.743225<12.0428 65.8573 94.9186 631.578 659.228 714.454>
LayerCount: 2
Fore
SplineSet
51 0 m 1
 96 50 l 1
 67 92 66 170 82 269 c 0
 116 486 186 536 345 536 c 0
 416 536 463 521 492 490 c 1
 529 531 l 1
 547 531 l 1
 500 479 l 1
 533 433 536 352 520 250 c 0
 489 56 431 -4 264 -5 c 0
 188 -5 134 9 105 40 c 1
 69 0 l 1
 51 0 l 1
114 71 m 5
 476 471 l 1
 448 505 400 512 341 512 c 0
 221 512 143 489 106 258 c 0
 91 164 94 106 114 71 c 5
122 59 m 1
 149 25 199 19 263 19 c 0
 391 19 463 52 496 258 c 0
 512 360 507 423 484 460 c 1
 122 59 l 1
EndSplineSet
Validated: 33
Substitution2: "'smcp' Lowercase to Small Capitals lookup 16-1" oslash.smcp
EndChar

StartChar: thorn
Encoding: 254 254 106
Width: 531
VWidth: 0
Flags: W
HStem: -10 24<197.221 372.97> 516 24<320.7 443.356> 762 20G<190.825 218>
DStem2: 27 -270 51 -270 0.156782 0.987633<3.76277 306.434 319.335 746.34 753.943 1065.17>
LayerCount: 2
Fore
SplineSet
27 -270 m 1
 194 782 l 1
 218 782 l 1
 168 471 l 17
 197 490 326 540 394 540 c 3
 530 540 548 395 526 259 c 4
 504 121 461 -10 307 -10 c 3
 262 -10 158 3 98 29 c 1
 51 -270 l 1
 27 -270 l 1
101 43 m 1
 179 20 226 14 311 14 c 3
 419 14 474 94 502 269 c 0
 530 443 478 516 390 516 c 3
 319 516 232 481 166 457 c 1
 101 43 l 1
EndSplineSet
Validated: 33
Substitution2: "'smcp' Lowercase to Small Capitals lookup 16-1" thorn.smcp
EndChar

StartChar: Thorn
Encoding: 222 222 113
Width: 553
VWidth: 0
Flags: W
HStem: 0 21G<60 87.1447> 149 24<135.036 396.594> 159 14<111 227.334> 564 24<177 453.01>
DStem2: 60 0 84 0 0.155823 0.987785<3.73976 165.089 178.834 574.719 599.049 738.015>
LayerCount: 2
Fore
SplineSet
60 0 m 1xb0
 98 243 137 486 175 729 c 1
 199 729 l 1
 177 588 l 1
 394 588 l 2
 473 588 565 550 537 371 c 4
 505 167 399 149 325 149 c 0xd0
 285 150 143 154 109 159 c 1
 84 0 l 1
 60 0 l 1xb0
111 173 m 2xb0
 328 173 l 2xd0
 422 173 488 220 513 377 c 1
 539 540 456 563 390 564 c 1
 173 564 l 1
 111 173 l 2xb0
EndSplineSet
Validated: 33
Substitution2: "'c2sc' Capitals to Small Capitals in Latin lookup 17 subtable" thorn.smcp
EndChar

StartChar: uni00B5
Encoding: 181 181 114
Width: 582
VWidth: 0
Flags: W
HStem: -8 24<198.941 338.554> 1 21G<480 497.164> 512 20G<170.811 198 550.835 578>
VStem: 480 14<1 45.25>
DStem2: 47 -270 71 -270 0.156405 0.987693<3.75373 347.028 379.526 811.993> 482 77 494 1 0.156249 0.987718<-7.16798 460.661>
LayerCount: 2
Fore
SplineSet
47 -270 m 1xb0
 115 162 l 1
 174 532 l 1
 198 532 l 1
 139 162 l 2
 126 83 167 16 256 16 c 0xb0
 344 16 402 37 482 77 c 1
 554 532 l 1
 578 532 l 1
 494 1 l 1
 480 1 l 1x70
 480 63 l 1
 415 25 333 -8 252 -8 c 0
 186 -8 144 24 125 69 c 1
 71 -270 l 1
 47 -270 l 1xb0
EndSplineSet
Validated: 33
EndChar

StartChar: germandbls
Encoding: 223 223 115
Width: 548
VWidth: 0
Flags: W
HStem: -8 24<201.158 432.86> 0 21G<60 87.1802> 753 24<310.87 482.633>
DStem2: 60 0 84 0 0.157038 0.987593<3.7689 655.006> 517 132 541 129 0.141421 0.989949<-54.6445 82.8425>
LayerCount: 2
Fore
SplineSet
60 0 m 1x60
 150 566 l 2
 168 682 246 777 388 777 c 3
 683 777 580 547 459 471 c 5
 377 415 324 400 316 348 c 1
 298 234 570 326 548 178 c 1
 541 129 l 2
 527 38 459 -8 364 -8 c 3xa0
 296 -8 224 0 190 7 c 9
 192 21 l 17x60
 229 19 296 16 365 16 c 3xa0
 479 16 510 89 517 132 c 2
 524 178 l 1
 545 303 270 206 293 351 c 0
 302 406 337 420 448 490 c 0
 484 513 529 566 546 610 c 0
 583 704 526 753 387 753 c 3
 272 753 193 686 174 566 c 2
 84 0 l 1
 60 0 l 1x60
EndSplineSet
Validated: 33
Substitution2: "'smcp' Lowercase to Small Capitals lookup 16-1" germandbls.smcp
EndChar

StartChar: asciitilde
Encoding: 126 126 116
Width: 488
VWidth: 0
Flags: W
HStem: 541 16<350.232 405.729> 614 16<218.919 273.791>
LayerCount: 2
Fore
SplineSet
140 572 m 21
 179 602 216 630 255 630 c 7
 294 630 339 557 371 557 c 7
 410 557 452 591 478 610 c 13
 483 603 l 21
 444 570 410 541 368 541 c 7
 326 541 286 614 253 614 c 7
 215 614 184 590 144 564 c 13
 140 572 l 21
EndSplineSet
Validated: 1
EndChar

StartChar: asciicircum
Encoding: 94 94 117
Width: 427
VWidth: 0
Flags: W
HStem: 531 130
VStem: 134 272
DStem2: 134 531 152 531 0.762062 0.647504<13.7171 197.155> 308 661 295 646 0.601964 -0.798523<4.15232 152.567>
LayerCount: 2
Fore
SplineSet
134 531 m 1
 287 661 l 1
 308 661 l 1
 406 531 l 1
 389 531 l 1
 295 646 l 1
 152 531 l 1
 134 531 l 1
EndSplineSet
Validated: 1
EndChar

StartChar: grave
Encoding: 96 96 118
Width: 219
VWidth: 0
Flags: W
HStem: 531 133
VStem: 125 126
DStem2: 151 664 125 664 0.600961 -0.799278<0 157.987>
LayerCount: 2
Fore
SplineSet
125 664 m 25
 151 664 l 25
 251 531 l 25
 237 531 l 25
 125 664 l 25
EndSplineSet
Validated: 1
Substitution2: "'smcp' Lowercase to Small Capitals lookup 16-1" grave.smcp
EndChar

StartChar: dieresis
Encoding: 168 168 119
Width: 443
VWidth: 0
Flags: W
HStem: 564 35<141.099 175.795 396.099 430.795>
VStem: 141 35<564.206 598.68> 396 35<564.206 598.68>
LayerCount: 2
Fore
SplineSet
141 582 m 0
 143 592 152 599 162 599 c 0
 172 599 178 592 176 582 c 0
 174 572 166 564 156 564 c 0
 146 564 139 572 141 582 c 0
396 582 m 0
 398 592 407 599 417 599 c 0
 427 599 433 592 431 582 c 0
 429 572 421 564 411 564 c 0
 401 564 394 572 396 582 c 0
EndSplineSet
Validated: 1
Substitution2: "'smcp' Lowercase to Small Capitals lookup 16-1" dieresis.smcp
EndChar

StartChar: acute
Encoding: 180 180 120
Width: 197
VWidth: 0
Flags: W
HStem: 531 133
VStem: 104 168
DStem2: 104 531 118 531 0.756823 0.65362<10.5955 194.4>
LayerCount: 2
Fore
SplineSet
104 531 m 29
 246 664 l 29
 272 664 l 29
 118 531 l 29
 104 531 l 29
EndSplineSet
Validated: 1
Substitution2: "'smcp' Lowercase to Small Capitals lookup 16-1" acute.smcp
EndChar

StartChar: cedilla
Encoding: 184 184 121
Width: 271
VWidth: 0
Flags: W
HStem: -173 7<23 57>
VStem: 159 17<-76.908 -37>
LayerCount: 2
Fore
SplineSet
22 -173 m 9
 23 -166 l 25
 57 -161 l 18
 112 -153 144 -145 159 -37 c 1
 176 -37 l 17
 160 -137 136 -173 53 -173 c 2
 22 -173 l 9
EndSplineSet
Validated: 1
EndChar

StartChar: exclam
Encoding: 33 33 122
Width: 236
VWidth: 0
Flags: W
HStem: 0 21G<90.5 108.5> 711 20G<201.009 226>
VStem: 124 12<196 237.611>
DStem2: 93.7207 74 128.721 74 0.164754 0.986335<-72.0997 15.0323 127.299 666.191>
LayerCount: 2
Fore
SplineSet
83.9004 12 m 2
 93.7207 74 l 2
 94.9873 82 99.6211 86 107.621 86 c 2
 118.621 86 l 2
 126.621 86 129.829 81 128.721 74 c 2
 118.9 12 l 2
 117.634 4 112 0 105 0 c 2
 94 0 l 2
 87 0 82.792 5 83.9004 12 c 2
124 196 m 1
 204 731 l 1
 226 731 l 1
 136 196 l 1
 124 196 l 1
EndSplineSet
Validated: 1
Substitution2: "'smcp' Lowercase to Small Capitals lookup 16-1" exclam.smcp
EndChar

StartChar: degree
Encoding: 176 176 123
Width: 355
VWidth: 0
Flags: W
HStem: 530 14<204.99 271.444> 721 14<231.924 296.406>
VStem: 149 203
LayerCount: 2
Fore
SplineSet
149 632 m 0
 158 689 209 735 265 735 c 4
 321 735 361 689 352 632 c 0
 343 575 294 530 238 530 c 0
 182 530 140 575 149 632 c 0
163 632 m 0
 155 583 189 544 237 544 c 0
 285 544 330 583 338 632 c 0
 346 681 313 721 265 721 c 0
 217 721 171 681 163 632 c 0
EndSplineSet
Validated: 33
Substitution2: "'smcp' Lowercase to Small Capitals lookup 16-1" degree.smcp
EndChar

StartChar: period
Encoding: 46 46 124
Width: 172
VWidth: 0
Flags: W
HStem: 0 86<79.4117 107.409>
VStem: 70.9004 44.8203
DStem2: 80.7207 74 115.721 74 0.156442 0.987687<-72.1449 14.7916>
LayerCount: 2
Fore
SplineSet
70.9004 12 m 6
 80.7207 74 l 6
 81.9873 82 86.6211 86 94.6211 86 c 6
 105.621 86 l 6
 113.621 86 116.829 81 115.721 74 c 6
 105.9 12 l 6
 104.634 4 99 0 92 0 c 6
 81 0 l 6
 74 0 69.792 5 70.9004 12 c 6
EndSplineSet
Validated: 1
EndChar

StartChar: periodcentered
Encoding: 183 183 125
Width: 281
VWidth: 0
Flags: W
HStem: 364 36<140.123 174.875>
VStem: 141 35<364.105 399.988>
LayerCount: 2
Fore
SplineSet
139 376 m 2
 141 388 l 2
 142 396 147 400 155 400 c 2
 167 400 l 2
 175 400 177 395 176 388 c 2
 174 376 l 2
 173 368 168 364 161 364 c 2
 149 364 l 2
 142 364 138 369 139 376 c 2
EndSplineSet
Validated: 1
Substitution2: "'smcp' Lowercase to Small Capitals lookup 16-1" periodcentered.smcp
EndChar

StartChar: comma
Encoding: 44 44 126
Width: 171
VWidth: 0
Flags: W
HStem: -68 6<61.1797 72.4389>
VStem: 60.2295 54.6495
DStem2: 60.2295 -68 97.1396 -37 0.142919 0.989734<6.16179 21.4527 71.0696 159.867> 87 0 97.1396 -37 0.156437 0.987688<-61.3444 0>
LayerCount: 2
Fore
SplineSet
60.2295 -68 m 1
 61.1797 -62 l 0
 76.1797 -62 78.6055 -53 79.5557 -47 c 2
 87 0 l 1
 81 0 l 2
 74 0 69.792 5 71.0586 13 c 2
 80.8789 75 l 2
 82.3047 84 86.9375 88 94.9375 88 c 2
 104.938 88 l 2
 113.938 88 116.146 83 114.879 75 c 2
 97.1396 -37 l 2
 90.8047 -77 60.2295 -68 60.2295 -68 c 1
EndSplineSet
Validated: 33
EndChar

StartChar: bullet
Encoding: 256 8226 127
Width: 337
VWidth: 0
Flags: W
HStem: 334 97<146.883 228.093>
VStem: 139 92<337.394 425.287>
LayerCount: 2
Fore
SplineSet
139 366 m 2
 143 396 l 2
 146 417 160 431 182 431 c 2
 206 431 l 2
 231 431 238 418 235 396 c 2
 231 366 l 2
 227 342 210 334 190 334 c 2
 166 334 l 2
 146 334 136 346 139 366 c 2
EndSplineSet
Validated: 33
Substitution2: "'smcp' Lowercase to Small Capitals lookup 16-1" bullet.smcp
EndChar

StartChar: quoteleft
Encoding: 257 8216 128
Width: 169
VWidth: 0
Flags: W
HStem: 724 7<204.082 217.471>
VStem: 158.088 60.491
DStem2: 174.561 693 189.601 668 0.156444 0.987687<-22.3393 32.2854> 174.561 693 209.066 652 0.156444 0.987687<-118.201 -22.1183 25.6548 36.6267>
LayerCount: 2
Fore
SplineSet
158.088 589 m 6
 174.561 693 l 2
 182.321 742 218.579 731 218.579 731 c 1
 217.471 724 l 0
 199.629 725 196.569 712 195.461 705 c 2
 189.601 668 l 5
 196.601 668 l 6
 204.601 668 210.65 662 209.066 652 c 6
 199.089 589 l 6
 197.347 578 191.555 573 181.554 573 c 6
 169.554 573 l 6
 158.554 573 156.663 580 158.088 589 c 6
EndSplineSet
Validated: 33
Substitution2: "'smcp' Lowercase to Small Capitals lookup 16-1" quoteleft.smcp
EndChar

StartChar: quoteright
Encoding: 258 8217 129
Width: 169
VWidth: 0
Flags: W
HStem: 574 7<159.222 173.446> 712 20G<191.138 212.638>
VStem: 158.113 61.491
DStem2: 158.113 574 201.973 611 0.165596 0.986194<7.35192 66.3277 66.9107 163.266> 187.091 637 201.973 611 0.165596 0.986194<-56.2614 0>
LayerCount: 2
Fore
SplineSet
158.113 574 m 1
 159.222 581 l 0
 177.063 580 179.964 592 181.072 599 c 2
 187.091 637 l 1
 180.091 637 l 2
 172.091 637 165.883 642 167.467 652 c 2
 178.604 716 l 2
 180.518 726.999 186.138 732 196.138 732 c 2
 207.138 732 l 2
 218.138 732 221.114 724.999 219.604 716 c 2
 201.973 611 l 2
 194.212 562 158.113 574 158.113 574 c 1
EndSplineSet
Validated: 33
Substitution2: "'smcp' Lowercase to Small Capitals lookup 16-1" quoteright.smcp
EndChar

StartChar: quotesinglbase
Encoding: 259 8218 130
Width: 169
VWidth: 0
Flags: W
HStem: -64 7<58.7715 72.1604>
VStem: 57.6631 60.4909
DStem2: 57.6631 -64 101.682 -26 0.156435 0.987688<7.79152 67.1689 67.7529 163.879> 86.7998 0 101.682 -26 0.156435 0.987688<-55.6372 0>
LayerCount: 2
Fore
SplineSet
57.6631 -64 m 1
 58.7715 -57 l 0
 76.6133 -58 79.6729 -45 80.7812 -38 c 2
 86.7998 0 l 1
 79.7998 0 l 2
 71.7998 0 65.5918 5 67.1758 15 c 2
 77.1533 78 l 2
 78.8965 89 84.8467 95 94.8467 95 c 2
 105.847 95 l 2
 116.847 95 119.579 87 118.154 78 c 2
 101.682 -26 l 2
 93.9209 -75 57.6631 -64 57.6631 -64 c 1
EndSplineSet
Validated: 33
Substitution2: "'smcp' Lowercase to Small Capitals lookup 16-1" quotesinglbase.smcp
EndChar

StartChar: quotedblleft
Encoding: 260 8220 131
Width: 255
VWidth: 0
Flags: W
HStem: 724 7<197.262 211.07 294.682 308.07>
VStem: 152.688 156.491
DStem2: 169.161 693 184.201 668 0.156444 0.987687<-22.3393 33.2144> 169.161 693 203.667 652 0.156444 0.987687<-118.201 -22.232 26.4524 36.5739> 265.16 693 280.201 668 0.156435 0.987688<-22.3393 32.2854> 265.16 693 299.667 652 0.156435 0.987688<-118.248 -22.1185 25.6549 36.6267>
LayerCount: 2
Fore
SplineSet
152.688 589 m 2
 169.161 693 l 2
 176.922 742 212.18 731 212.18 731 c 1
 211.07 724 l 0
 193.229 725 191.17 712 190.062 705 c 2
 184.201 668 l 1
 190.201 668 l 2
 198.201 668 205.251 662 203.667 652 c 2
 193.688 589 l 2
 191.946 578 185.154 573 175.154 573 c 2
 164.154 573 l 2
 153.154 573 151.264 580 152.688 589 c 2
248.688 589 m 2
 265.16 693 l 2
 272.921 742 309.179 731 309.179 731 c 1
 308.07 724 l 0
 290.229 725 287.17 712 286.061 705 c 2
 280.201 668 l 1
 287.201 668 l 2
 295.201 668 301.25 662 299.667 652 c 2
 289.688 589 l 2
 287.946 578 282.154 573 272.154 573 c 2
 261.154 573 l 2
 250.154 573 247.263 580 248.688 589 c 2
EndSplineSet
Validated: 33
Substitution2: "'smcp' Lowercase to Small Capitals lookup 16-1" quotedblleft.smcp
EndChar

StartChar: quotedblright
Encoding: 261 8221 132
Width: 254
VWidth: 0
Flags: W
HStem: 574 7<154.422 168.568 250.421 264.645> 712 20G<185.338 206.838 281.338 303.838>
VStem: 153.313 156.491
DStem2: 153.313 574 197.173 611 0.15644 0.987687<7.12193 66 66.5865 162.814> 181.291 637 197.173 611 0.15644 0.987687<-56.1936 0> 249.312 574 293.173 611 0.15644 0.987687<7.12203 62.5497 66.7843 162.931> 278.291 637 293.173 611 0.15644 0.987687<-55.4024 0>
LayerCount: 2
Fore
SplineSet
153.313 574 m 1
 154.422 581 l 0
 172.264 580 174.164 592 175.272 599 c 2
 181.291 637 l 1
 175.291 637 l 2
 167.291 637 161.083 642 162.667 652 c 2
 172.804 716 l 2
 174.546 727 180.338 732 190.338 732 c 2
 201.338 732 l 2
 212.338 732 215.229 725 213.804 716 c 2
 197.173 611 l 2
 189.412 562 153.313 574 153.313 574 c 1
249.312 574 m 1
 250.421 581 l 0
 268.263 580 271.164 592 272.272 599 c 2
 278.291 637 l 1
 271.291 637 l 2
 263.291 637 257.083 642 258.667 652 c 2
 268.804 716 l 2
 270.546 727 276.338 732 286.338 732 c 2
 298.338 732 l 2
 309.338 732 311.229 725 309.804 716 c 2
 293.173 611 l 2
 285.412 562 249.312 574 249.312 574 c 1
EndSplineSet
Validated: 33
Substitution2: "'smcp' Lowercase to Small Capitals lookup 16-1" quotedblright.smcp
EndChar

StartChar: quotedblbase
Encoding: 262 8222 133
Width: 254
VWidth: 0
Flags: W
HStem: -62 7<53.6895 67.0773 149.688 163.077>
VStem: 52.5801 156.49
DStem2: 52.5801 -62 96.5986 -24 0.156429 0.987689<7.79136 67.0124 67.5988 163.879> 80.7168 2 96.5986 -24 0.156429 0.987689<-56.4492 0> 148.58 -62 192.599 -24 0.156425 0.98769<7.7913 40.7181 67.7966 163.85> 177.717 2 192.599 -24 0.156425 0.98769<-55.6373 0>
LayerCount: 2
Fore
SplineSet
52.5801 -62 m 1
 53.6895 -55 l 0
 71.5312 -56 73.5898 -43 74.6982 -36 c 2
 80.7168 2 l 1
 74.7168 2 l 2
 66.7168 2 60.5088 7 62.0928 17 c 2
 72.0713 80 l 2
 73.8135 91 79.7637 97 89.7637 97 c 2
 100.764 97 l 2
 111.764 97 114.496 89 113.07 80 c 2
 96.5986 -24 l 2
 88.8379 -73 52.5801 -62 52.5801 -62 c 1
148.58 -62 m 1
 149.688 -55 l 0
 167.53 -56 170.59 -43 171.698 -36 c 2
 177.717 2 l 1
 170.717 2 l 2
 162.717 2 156.509 7 158.093 17 c 2
 168.07 80 l 2
 169.812 91 175.764 97 185.764 97 c 2
 197.764 97 l 2
 208.764 97 210.496 89 209.07 80 c 2
 192.599 -24 l 2
 184.838 -73 148.58 -62 148.58 -62 c 1
EndSplineSet
Validated: 33
Substitution2: "'smcp' Lowercase to Small Capitals lookup 16-1" quotedblbase.smcp
EndChar

StartChar: colon
Encoding: 58 58 134
Width: 177
VWidth: 0
Flags: W
HStem: 0 21G<82.5 100.5> 510 20G<160.943 179.943>
VStem: 75.9004 110.143
DStem2: 85.7207 74 120.721 74 0.146893 0.989152<-72.1905 14.6263 376.719 463.525>
LayerCount: 2
Fore
SplineSet
75.9004 12 m 2
 85.7207 74 l 6
 86.9873 82 91.6211 86 99.6211 86 c 6
 110.621 86 l 6
 118.621 86 121.829 81 120.721 74 c 6
 110.9 12 l 2
 109.634 4 104 0 97 0 c 2
 86 0 l 2
 79 0 74.792 5 75.9004 12 c 2
141.064 455 m 2
 151.043 518 l 2
 152.311 526 156.943 530 164.943 530 c 2
 175.943 530 l 2
 183.943 530 187.151 525 186.043 518 c 2
 176.064 455 l 2
 174.798 447 169.322 444 162.322 444 c 2
 151.322 444 l 2
 144.322 444 139.956 448 141.064 455 c 2
EndSplineSet
Validated: 1
EndChar

StartChar: semicolon
Encoding: 59 59 135
Width: 172
VWidth: 0
Flags: W
HStem: -68 6<61.1797 72.4389> 510 20G<160.943 179.943>
VStem: 60.2295 125.813
DStem2: 60.2295 -68 97.1396 -37 0.153144 0.988204<7.00837 22.538 71.3551 160.291 520.616 607.554> 87 0 97.1396 -37 0.15817 0.987412<-61.3294 0>
LayerCount: 2
Fore
SplineSet
60.2295 -68 m 5
 61.1797 -62 l 4
 76.1797 -62 78.6055 -53 79.5557 -47 c 6
 87 0 l 1
 81 0 l 2
 74 0 69.792 5 71.0586 13 c 2
 80.8789 75 l 2
 82.3047 84 86.9375 88 94.9375 88 c 2
 104.938 88 l 2
 113.938 88 116.146 83 114.879 75 c 2
 97.1396 -37 l 6
 90.8047 -77 60.2295 -68 60.2295 -68 c 5
141.064 455 m 2
 151.043 518 l 2
 152.311 526 156.943 530 164.943 530 c 2
 175.943 530 l 2
 183.943 530 187.151 525 186.043 518 c 2
 176.064 455 l 2
 174.798 447 169.322 444 162.322 444 c 2
 151.322 444 l 2
 144.322 444 139.956 448 141.064 455 c 2
EndSplineSet
Validated: 33
EndChar

StartChar: quotedbl
Encoding: 34 34 136
Width: 287
VWidth: 0
Flags: W
HStem: 531 201
VStem: 108 150
LayerCount: 2
Fore
SplineSet
108 531 m 5
 122 665 l 5
 133 732 l 5
 158 732 l 5
 147 665 l 5
 120 531 l 5
 108 531 l 5
208 531 m 5
 222 665 l 5
 233 732 l 5
 258 732 l 5
 247 665 l 5
 220 531 l 5
 208 531 l 5
EndSplineSet
Validated: 1
Substitution2: "'smcp' Lowercase to Small Capitals lookup 16-1" quotedbl.smcp
EndChar

StartChar: exclamdown
Encoding: 161 161 137
Width: 239
VWidth: 0
Flags: W
VStem: 45 142
DStem2: 152 450 187 450 0.172001 0.985097<-74.1229 13.0639>
LayerCount: 2
Fore
SplineSet
45 -270 m 1
 135 266 l 1
 147 266 l 1
 67 -270 l 1
 45 -270 l 1
141 387 m 6
 152 450 l 6
 153.387 457.943 158 460 165 460 c 6
 177 460 l 6
 184 460 188.216 456.966 187 450 c 6
 176 387 l 6
 175 379 170 374 162 374 c 6
 151 374 l 6
 143 374 140 380 141 387 c 6
EndSplineSet
Validated: 1
Substitution2: "'case' Case-Sensitive Forms lookup 1-1" exclamdown.alt
Substitution2: "'smcp' Lowercase to Small Capitals lookup 16-1" exclamdown.smcp
EndChar

StartChar: zero
Encoding: 48 48 138
Width: 649
VWidth: 0
Flags: W
HStem: 0 24<205.089 476.415> 708 24<310.501 580.755>
DStem2: 121 162 145 162 0.15733 0.987546<-54.7638 478.678> 570 162 594 162 0.15733 0.987546<-70.394 476.429>
LayerCount: 2
Fore
SplineSet
121 162 m 14
 186 570 l 6
 203 678 288 732 383 732 c 6
 517 732 l 6
 639 732 673 661 659 570 c 30
 594 162 l 22
 575 43 500 0 401 0 c 6
 267 0 l 6
 176 0 102 42 121 162 c 14
145 162 m 6
 131 70 181 24 271 24 c 14
 405 24 l 22
 509 24 557 77 570 162 c 6
 635 570 l 6
 649 660 609 708 513 708 c 6
 379 708 l 6
 290 708 224 658 210 570 c 6
 145 162 l 6
EndSplineSet
Substitution2: "'dnom' Denominators lookup 0 subtable" zero.denominator
Substitution2: "'sups' Superscript lookup 2 subtable" zerosuperior
Substitution2: "'onum' Oldstyle Figures in Latin lookup 5-1" zero.oldstyle
Substitution2: "'tnum' Tabular Numbers in Latin lookup 7-1" zero.tnum
Substitution2: "'numr' Numerators lookup 9 subtable" zero.numerator
Substitution2: "'zero' Slashed Zero lookup 20-1" uni0338
Substitution2: "'sinf' Scientific Inferiors lookup 3-1" zeroinferior
Substitution2: "'frac' Diagonal Fractions lookup 13-1" zero.numerator
Substitution2: "'smcp' Lowercase to Small Capitals lookup 16-1" zero.smcp
EndChar

StartChar: one
Encoding: 49 49 139
Width: 406
VWidth: 0
Flags: W
HStem: 0 21G<251 278.115> 625 15<138 191.33> 712 20G<317.217 389>
VStem: 134 255
DStem2: 251 0 275 0 0.153883 0.988089<3.69319 710.873>
LayerCount: 2
Fore
SplineSet
134 625 m 4
 138 640 l 7
 238 640 367 732 367 732 c 5
 389 732 l 5
 275 0 l 5
 251 0 l 5
 363 702 l 5
 329 679 230 625 134 625 c 4
EndSplineSet
Validated: 1
Substitution2: "'dnom' Denominators lookup 0 subtable" one.denominator
Substitution2: "'sups' Superscript lookup 2 subtable" onesuperior
Substitution2: "'onum' Oldstyle Figures in Latin lookup 5-1" one.oldstyle
Substitution2: "'tnum' Tabular Numbers in Latin lookup 7-1" one.tnum
Substitution2: "'numr' Numerators lookup 9 subtable" one.numerator
Substitution2: "'sinf' Scientific Inferiors lookup 3-1" oneinferior
Substitution2: "'frac' Diagonal Fractions lookup 13-1" one.numerator
Substitution2: "'smcp' Lowercase to Small Capitals lookup 16-1" one.smcp
EndChar

StartChar: two
Encoding: 50 50 140
Width: 574
VWidth: 0
Flags: W
HStem: 0 24<92 517> 717 25<241.273 504.354> 717 15<156 241.273>
LayerCount: 2
Fore
SplineSet
47 0 m 25xc0
 51 23 l 17
 161 102 547 366 575 532 c 0
 599 674 535 717 422 717 c 2xc0
 154 717 l 2
 156 732 l 1xa0
 261 745 381 742 432 742 c 3
 580 742 622 655 601 530 c 0
 570 344 149 63 92 24 c 9
 521 24 l 25
 517 0 l 25
 47 0 l 25xc0
EndSplineSet
Validated: 33
Substitution2: "'dnom' Denominators lookup 0 subtable" two.denominator
Substitution2: "'sups' Superscript lookup 2 subtable" twosuperior
Substitution2: "'onum' Oldstyle Figures in Latin lookup 5-1" two.oldstyle
Substitution2: "'tnum' Tabular Numbers in Latin lookup 7-1" two.tnum
Substitution2: "'numr' Numerators lookup 9 subtable" two.numerator
Substitution2: "'sinf' Scientific Inferiors lookup 3-1" twoinferior
Substitution2: "'frac' Diagonal Fractions lookup 13-1" two.numerator
Substitution2: "'smcp' Lowercase to Small Capitals lookup 16-1" two.smcp
EndChar

StartChar: three
Encoding: 51 51 141
Width: 579
VWidth: 0
Flags: W
HStem: -7 25<125.037 389.504> 4 14<42 112.336> 352 27<159 431.266> 359 14<159 369> 710 24<249.17 497.579> 710 14<147 206.321>
DStem2: 491 166 517 161 0.154968 0.98792<-75.3909 113.197 281.449 480.521>
LayerCount: 2
Fore
SplineSet
39 4 m 1x40
 42 18 l 1x40
 315 18 l 2
 394 18 472 49 491 166 c 2
 500 225 l 2
 516 325 426 350 369 352 c 2xa0
 157 359 l 2
 159 373 l 1x10
 373 379 l 1
 451 380 534 419 547 504 c 2
 557 573 l 2
 573 672 513 710 431 710 c 2x28
 145 710 l 1
 147 724 l 1x04
 209 735 322 736 439 734 c 0
 558 732 596 661 581 569 c 2
 571 500 l 2
 554 395 459 367 429 365 c 1
 460 360 542 324 526 220 c 1
 517 161 l 2
 500 52 435 -7 313 -7 c 0x88
 199 -7 77 -4 39 4 c 1x40
EndSplineSet
Validated: 33
Substitution2: "'dnom' Denominators lookup 0 subtable" three.denominator
Substitution2: "'sups' Superscript lookup 2 subtable" threesuperior
Substitution2: "'onum' Oldstyle Figures in Latin lookup 5-1" three.oldstyle
Substitution2: "'tnum' Tabular Numbers in Latin lookup 7-1" three.tnum
Substitution2: "'numr' Numerators lookup 9 subtable" three.numerator
Substitution2: "'sinf' Scientific Inferiors lookup 3-1" threeinferior
Substitution2: "'frac' Diagonal Fractions lookup 13-1" three.numerator
Substitution2: "'smcp' Lowercase to Small Capitals lookup 16-1" three.smcp
EndChar

StartChar: four
Encoding: 52 52 142
Width: 572
VWidth: 0
Flags: W
HStem: 2 21G<425 452.143> 212 24<84 458 486 546.4> 222 14<509.6 574> 712 20G<424.444 467>
DStem2: 55 237 84 236 0.613941 0.789352<17.0149 627.096> 425 2 449 2 0.155869 0.987778<3.74087 212.577 240.648 553.302>
LayerCount: 2
Fore
SplineSet
55 237 m 5xd0
 440 732 l 5
 467 732 l 5
 84 236 l 5xd0
 462 236 l 5xb0
 499 472 l 5
 521 547 l 5
 535 547 l 5
 486 236 l 5xd0
 576 236 l 5
 574 222 l 5xb0
 482 212 l 5
 449 2 l 5
 425 2 l 5
 458 212 l 5
 63 212 l 5
 55 237 l 5xd0
EndSplineSet
Validated: 1
Substitution2: "'dnom' Denominators lookup 0 subtable" four.denominator
Substitution2: "'sups' Superscript lookup 2 subtable" foursuperior
Substitution2: "'onum' Oldstyle Figures in Latin lookup 5-1" four.oldstyle
Substitution2: "'tnum' Tabular Numbers in Latin lookup 7-1" four.tnum
Substitution2: "'numr' Numerators lookup 9 subtable" four.numerator
Substitution2: "'sinf' Scientific Inferiors lookup 3-1" fourinferior
Substitution2: "'frac' Diagonal Fractions lookup 13-1" four.numerator
Substitution2: "'smcp' Lowercase to Small Capitals lookup 16-1" four.smcp
EndChar

StartChar: five
Encoding: 53 53 143
Width: 627
VWidth: 0
Flags: W
HStem: -4 24<190.853 437.321> 6 14<81 159.403> 407 24<244.203 512.532> 708 24<236 636>
DStem2: 124 282 165 365 0.20239 0.979305<89.5803 439.852> 548 168 571 166 0.159546 0.98719<-62.1916 164.555>
LayerCount: 2
Fore
SplineSet
79 6 m 1x70
 81 20 l 1x70
 378 20 l 2
 448 20 532 68 548 168 c 2
 563 263 l 2
 571 313 577 407 451 407 c 2
 298 407 l 2
 230 407 158 348 148 282 c 1
 124 282 l 1
 217 732 l 17
 640 732 l 1
 636 708 l 1
 236 708 l 25
 165 365 l 1
 176 380 221 431 298 431 c 0
 371 431 419 431 450 431 c 0
 568 431 602 362 587 265 c 2
 571 166 l 2
 549 29 443 -4 381 -4 c 3xb0
 257 -4 149 -4 79 6 c 1x70
EndSplineSet
Validated: 33
Substitution2: "'dnom' Denominators lookup 0 subtable" five.denominator
Substitution2: "'sups' Superscript lookup 2 subtable" fivesuperior
Substitution2: "'onum' Oldstyle Figures in Latin lookup 5-1" five.oldstyle
Substitution2: "'tnum' Tabular Numbers in Latin lookup 7-1" five.tnum
Substitution2: "'numr' Numerators lookup 9 subtable" five.numerator
Substitution2: "'sinf' Scientific Inferiors lookup 3-1" fiveinferior
Substitution2: "'frac' Diagonal Fractions lookup 13-1" five.numerator
Substitution2: "'smcp' Lowercase to Small Capitals lookup 16-1" five.smcp
EndChar

StartChar: six
Encoding: 54 54 144
Width: 635
VWidth: 0
Flags: W
HStem: -1 24<207.262 447.688> 380 25<236.66 504.858> 714 24<304.586 540.973> 714 15<488.922 620>
DStem2: 529 146 554 148 0.116246 0.99322<-58.4896 189.755>
LayerCount: 2
Fore
SplineSet
124 384 m 4xe0
 165 642 260 738 352 738 c 4xe0
 453 738 562 736 622 729 c 5
 620 714 l 5xd0
 354 714 l 6
 227 714 167 506 149 394 c 5
 236 404 351 405 425 405 c 4
 559 405 585 341 572 259 c 6
 554 148 l 6
 536 36 478 -1 384 -1 c 6
 260 -1 l 6
 151 -1 76 81 124 384 c 4xe0
147 380 m 5
 122 224 115 23 259 23 c 6
 378 23 l 6
 440 23 512 42 529 146 c 6
 546 252 l 6
 563 357 513 380 429 380 c 6
 147 380 l 5
EndSplineSet
Validated: 33
Substitution2: "'dnom' Denominators lookup 0 subtable" six.denominator
Substitution2: "'sups' Superscript lookup 2 subtable" sixsuperior
Substitution2: "'onum' Oldstyle Figures in Latin lookup 5-1" six.oldstyle
Substitution2: "'tnum' Tabular Numbers in Latin lookup 7-1" six.tnum
Substitution2: "'numr' Numerators lookup 9 subtable" six.numerator
Substitution2: "'sinf' Scientific Inferiors lookup 3-1" sixinferior
Substitution2: "'frac' Diagonal Fractions lookup 13-1" six.numerator
Substitution2: "'smcp' Lowercase to Small Capitals lookup 16-1" six.smcp
EndChar

StartChar: seven
Encoding: 55 55 145
Width: 540
VWidth: 0
Flags: W
HStem: 0 21G<210 247.873> 708 24<138 560>
DStem2: 210 0 238 0 0.442655 0.896692<12.3943 789.787>
LayerCount: 2
Fore
SplineSet
134 708 m 5
 138 732 l 5
 576 732 l 5
 588 709 l 5
 238 0 l 5
 210 0 l 5
 560 708 l 5
 134 708 l 5
EndSplineSet
Validated: 1
Substitution2: "'dnom' Denominators lookup 0 subtable" seven.denominator
Substitution2: "'sups' Superscript lookup 2 subtable" sevensuperior
Substitution2: "'onum' Oldstyle Figures in Latin lookup 5-1" seven.oldstyle
Substitution2: "'tnum' Tabular Numbers in Latin lookup 7-1" seven.tnum
Substitution2: "'numr' Numerators lookup 9 subtable" seven.numerator
Substitution2: "'sinf' Scientific Inferiors lookup 3-1" seveninferior
Substitution2: "'frac' Diagonal Fractions lookup 13-1" seven.numerator
Substitution2: "'smcp' Lowercase to Small Capitals lookup 16-1" seven.smcp
EndChar

StartChar: percent
Encoding: 37 37 146
Width: 985
VWidth: 0
Flags: W
HStem: 3 15<597.118 814.295> 349 15<167.906 385.083> 371 15<652.036 867.199> 717 15<223.433 438.954>
DStem2: 115 474 130 474 0.155963 0.987763<-52.1515 193.457> 225 0 246 0 0.60348 0.797378<12.6731 918.009> 457 474 472 474 0.155963 0.987763<-56.4893 189.182> 545 128 560 128 0.155963 0.987763<-52.1732 194.626> 887 128 902 128 0.155963 0.987763<-56.5137 189.139>
LayerCount: 2
Fore
SplineSet
115 474 m 6
 136 607 l 6
 149 692 183 732 284 732 c 6
 385 732 l 6
 483 732 506 692 493 607 c 6
 472 474 l 22
 459 389 427 349 326 349 c 6
 225 349 l 6
 127 349 102 389 115 474 c 6
130 474 m 6
 116 388 147 364 225 364 c 6
 326 364 l 6
 403 364 443 385 457 474 c 14
 478 607 l 6
 490 685 470 717 384 717 c 6
 283 717 l 6
 204 717 165 696 151 607 c 6
 130 474 l 6
225 0 m 5
 779 732 l 5
 800 732 l 5
 246 0 l 5
 225 0 l 5
545 128 m 6
 566 261 l 6
 579 346 611 386 712 386 c 6
 813 386 l 6
 911 386 936 346 923 261 c 6
 902 128 l 22
 889 43 856 3 755 3 c 6
 654 3 l 6
 556 3 532 43 545 128 c 6
560 128 m 6
 546 42 576 18 654 18 c 6
 755 18 l 6
 832 18 873 39 887 128 c 14
 908 261 l 6
 920 339 899 371 813 371 c 6
 712 371 l 6
 633 371 595 350 581 261 c 6
 560 128 l 6
EndSplineSet
Validated: 33
Substitution2: "'smcp' Lowercase to Small Capitals lookup 16-1" percent.smcp
EndChar

StartChar: nine
Encoding: 57 57 147
Width: 636
VWidth: 0
Flags: W
HStem: -6 24<181.322 418.414> 3 15<102 233.649> 327 25<218.205 478.987> 709 24<275.297 519.581>
DStem2: 150 478 174 473 0.148768 0.988872<-63.6482 173.125>
LayerCount: 2
Fore
SplineSet
100 3 m 1x70
 102 18 l 1x70
 368 18 l 2
 498 18 555 226 573 338 c 1
 486 328 364 327 290 327 c 0
 156 327 137 396 150 478 c 2
 168 589 l 2
 186 701 258 733 352 733 c 2
 468 733 l 2
 577 733 647 642 599 339 c 0
 558 81 463 -6 371 -6 c 0xb0
 270 -6 160 -4 100 3 c 1x70
174 473 m 2
 157 368 222 352 298 352 c 2
 575 352 l 1
 600 508 611 709 468 709 c 2
 348 709 l 2
 286 709 207 690 191 586 c 2
 174 473 l 2
EndSplineSet
Substitution2: "'dnom' Denominators lookup 0 subtable" nine.denominator
Substitution2: "'sups' Superscript lookup 2 subtable" ninesuperior
Substitution2: "'onum' Oldstyle Figures in Latin lookup 5-1" nine.oldstyle
Substitution2: "'tnum' Tabular Numbers in Latin lookup 7-1" nine.tnum
Substitution2: "'numr' Numerators lookup 9 subtable" nine.numerator
Substitution2: "'sinf' Scientific Inferiors lookup 3-1" nineinferior
Substitution2: "'frac' Diagonal Fractions lookup 13-1" nine.numerator
Substitution2: "'smcp' Lowercase to Small Capitals lookup 16-1" nine.smcp
EndChar

StartChar: eight
Encoding: 56 56 148
Width: 644
VWidth: 0
Flags: W
HStem: 0 24<210.864 453.213> 362 23<241.556 530.101> 713 24<302.702 562.281>
DStem2: 121 154 145 151 0.151701 0.988426<-54.32 152.006 291.971 498.242> 548 151 575 154 0.160893 0.986972<-59.7492 163.693 299.407 489.153>
LayerCount: 2
Fore
SplineSet
121 154 m 6
 136 253 l 6
 148 329 215 366 254 366 c 5
 170 381 167 453 175 506 c 6
 185 571 l 6
 206 705 279 737 382 737 c 6
 498 737 l 6
 610 737 658 680 639 557 c 6
 629 492 l 6
 620 438 575 384 518 380 c 5
 585 360 600 315 590 252 c 6
 575 154 l 6
 554 24 458 0 394 0 c 6
 279 0 l 6
 107 0 115 113 121 154 c 6
145 151 m 6
 130 58 198 24 283 24 c 6
 391 24 l 6
 452 24 533 55 548 151 c 6
 565 256 l 6
 582 362 504 362 454 362 c 6
 321 362 l 6
 275 362 175 338 162 256 c 6
 145 151 l 6
198 494 m 6
 182 393 256 385 322 385 c 6
 451 385 l 6
 548 385 597 448 604 494 c 6
 615 562 l 6
 632 672 587 713 494 713 c 6
 380 713 l 6
 271 713 223 666 208 562 c 6
 198 494 l 6
EndSplineSet
Substitution2: "'dnom' Denominators lookup 0 subtable" eight.denominator
Substitution2: "'sups' Superscript lookup 2 subtable" eightsuperior
Substitution2: "'onum' Oldstyle Figures in Latin lookup 5-1" eight.oldstyle
Substitution2: "'tnum' Tabular Numbers in Latin lookup 7-1" eight.tnum
Substitution2: "'numr' Numerators lookup 9 subtable" eight.numerator
Substitution2: "'sinf' Scientific Inferiors lookup 3-1" eightinferior
Substitution2: "'frac' Diagonal Fractions lookup 13-1" eight.numerator
Substitution2: "'smcp' Lowercase to Small Capitals lookup 16-1" eight.smcp
EndChar

StartChar: quotesingle
Encoding: 39 39 149
Width: 132
VWidth: 0
Flags: W
HStem: 531 201
VStem: 90 50
LayerCount: 2
Fore
SplineSet
90 531 m 5
 104 665 l 5
 115 732 l 5
 140 732 l 5
 129 665 l 5
 102 531 l 5
 90 531 l 5
EndSplineSet
Validated: 1
Substitution2: "'smcp' Lowercase to Small Capitals lookup 16-1" quotesingle.smcp
EndChar

StartChar: onesuperior
Encoding: 185 185 150
Width: 276
VWidth: 100
Flags: W
HStem: 756 11<116 156.348>
VStem: 115 177
DStem2: 198 356 216 356 0.157023 0.987595<2.82642 456.554>
LayerCount: 2
Fore
SplineSet
115 756 m 4
 116 767 l 4
 196 767 274 834 274 834 c 5
 292 834 l 5
 216 356 l 5
 198 356 l 5
 269 807 l 5
 252 794 192 756 115 756 c 4
EndSplineSet
Validated: 1
EndChar

StartChar: twosuperior
Encoding: 178 178 151
Width: 397
VWidth: 100
Flags: W
HStem: 356 18<115 384> 820 18<150.125 376.582> 820 11<145 269.915>
LayerCount: 2
Fore
SplineSet
75 356 m 25xc0
 77 370 l 17
 153 424 403 593 420 699 c 0
 431 768 418 820 322 820 c 2xc0
 145 820 l 2
 143 820 146 832 147 831 c 1xa0
 214 839 259 838 331 838 c 3
 429 838 453 773 440 695 c 0
 421 582 157 405 115 374 c 13
 387 374 l 25
 384 356 l 25
 75 356 l 25xc0
EndSplineSet
Validated: 33
EndChar

StartChar: threesuperior
Encoding: 179 179 152
Width: 426
VWidth: 100
Flags: W
HStem: 352 18<88.2506 319.577> 363 7<77 94.894> 592 10<154 304.746> 815 18<156.481 389.609> 815 10<145 182.035>
DStem2: 388 475 405 469 0.156163 0.987731<-55.4545 56.3553 181.219 294.97>
LayerCount: 2
Fore
SplineSet
76 363 m 5x60
 77 370 l 5x60
 252 370 l 6
 334 370 375 393 388 475 c 6
 391 498 l 6
 400 558 347 587 295 588 c 6
 152 592 l 6
 154 602 l 5
 291 606 l 6
 353 608 417 639 423 689 c 6
 427 725 l 6
 439 800 387 815 337 815 c 6xb0
 144 815 l 5
 145 825 l 5x28
 192 834 265 833 341 833 c 4
 428 833 454 782 445 722 c 6
 439 684 l 6
 431 627 366 599 342 597 c 5
 363 593 419 562 410 499 c 6
 405 469 l 6
 394 398 359 352 260 352 c 4xb0
 186 352 117 354 76 363 c 5x60
EndSplineSet
Validated: 33
EndChar

StartChar: ordmasculine
Encoding: 186 186 153
Width: 367
VWidth: 0
Flags: W
HStem: 291 13<85 362> 373 16<171.368 309.387> 721 16<217.655 357.027>
LayerCount: 2
Fore
SplineSet
83 291 m 1
 85 304 l 1
 364 304 l 1
 362 291 l 1
 83 291 l 1
112 555 m 4
 135 697 166 737 293 737 c 3
 420 737 435 687 412 545 c 0
 392 417 362 373 235 373 c 3
 108 373 92 427 112 555 c 4
128 550 m 0
 108 423 129 389 238 389 c 3
 340 389 375 414 396 550 c 0
 418 686 402 721 290 721 c 3
 185 721 151 697 128 550 c 0
EndSplineSet
Validated: 33
Ligature2: "'ordn' Ordinals lookup 21-1" o
Substitution2: "'smcp' Lowercase to Small Capitals lookup 16-1" ordmasculine.smcp
EndChar

StartChar: ordfeminine
Encoding: 170 170 154
Width: 337
VWidth: 0
Flags: W
HStem: 291 13<74 351> 377 16<183.836 269.519>
VStem: 351 10<381 425.979>
DStem2: 356 451 361 381 0.143895 0.989593<-21.2875 236.926>
LayerCount: 2
Fore
SplineSet
72 291 m 1
 74 304 l 1
 353 304 l 1
 351 291 l 1
 72 291 l 1
108 565 m 0
 130 709 213 728 261 732 c 0
 324 737 376 718 408 683 c 9
 361 381 l 17
 351 381 l 1
 353 437 l 17
 323 401 270 377 220 377 c 3
 162 377 86 417 108 565 c 0
124 560 m 0
 108 460 147 393 223 393 c 3
 269 393 313 417 356 451 c 1
 391 679 l 1
 379 696 328 718 269 716 c 0
 182 714 139 656 124 560 c 0
EndSplineSet
Validated: 33
Ligature2: "'ordn' Ordinals lookup 21-1" a
Substitution2: "'smcp' Lowercase to Small Capitals lookup 16-1" ordfeminine.smcp
EndChar

StartChar: slash
Encoding: 47 47 155
Width: 291
VWidth: 0
Flags: W
DStem2: 8 -72 30 -72 0.441235 0.897391<9.70718 938.275>
LayerCount: 2
Fore
SplineSet
8 -72 m 1
 422 770 l 1
 444 770 l 5
 30 -72 l 5
 8 -72 l 1
EndSplineSet
Validated: 1
Substitution2: "'numr' Numerators lookup 9 subtable" fraction
Substitution2: "'frac' Diagonal Fractions lookup 12-1" fraction
EndChar

StartChar: backslash
Encoding: 92 92 156
Width: 432
VWidth: 0
Flags: W
VStem: 141 167
DStem2: 160 770 141 770 0.173118 -0.984901<0 851.619>
LayerCount: 2
Fore
SplineSet
141 770 m 5
 160 770 l 5
 308 -72 l 5
 289 -72 l 5
 141 770 l 5
EndSplineSet
Validated: 1
EndChar

StartChar: bar
Encoding: 124 124 157
Width: 215
VWidth: 0
Flags: W
VStem: 74 157
DStem2: 74 -72 98 -72 0.156023 0.987753<3.74455 852.439>
LayerCount: 2
Fore
SplineSet
74 -72 m 1
 207 770 l 1
 231 770 l 5
 98 -72 l 5
 74 -72 l 1
EndSplineSet
Validated: 1
EndChar

StartChar: underscore
Encoding: 95 95 158
Width: 648
VWidth: 0
Flags: W
HStem: -1 24<23 623>
LayerCount: 2
Fore
SplineSet
19 -1 m 1
 23 23 l 1
 627 23 l 5
 623 -1 l 5
 19 -1 l 1
EndSplineSet
Validated: 1
EndChar

StartChar: hyphen
Encoding: 45 45 159
Width: 331
VWidth: 0
Flags: W
HStem: 278 24<64 344>
VStem: 60 288
LayerCount: 2
Fore
SplineSet
60 278 m 5
 64 302 l 5
 348 302 l 5
 344 278 l 5
 60 278 l 5
EndSplineSet
Validated: 1
Substitution2: "'case' Case-Sensitive Forms lookup 1-1" hyphen.alt
Substitution2: "'c2sc' Capitals to Small Capitals in Latin lookup 17 subtable" hyphen.smcp
Substitution2: "'smcp' Lowercase to Small Capitals lookup 16-1" hyphen.smcp
EndChar

StartChar: numbersign
Encoding: 35 35 160
Width: 631
VWidth: 0
Flags: W
HStem: 0 21G<155 173.32 353 371.345> 250 12<60 234 251 432 448 621> 467 12<129 303 319 500 517 690> 712 20G<381.597 400 578.676 597>
DStem2: 155 0 167 0 0.303311 0.952892<3.63973 262.184 278.775 489.89 506.178 768.188> 353 0 365 0 0.302128 0.953267<3.62554 261.232 277.505 489.589 506.164 767.885>
LayerCount: 2
Fore
SplineSet
56 250 m 5
 60 262 l 5
 239 262 l 5
 303 467 l 5
 124 467 l 5
 129 479 l 5
 307 479 l 5
 388 732 l 5
 400 732 l 5
 319 479 l 5
 505 479 l 5
 585 732 l 5
 597 732 l 5
 517 479 l 5
 694 479 l 5
 690 467 l 5
 512 467 l 5
 448 261 l 5
 625 261 l 5
 621 249 l 5
 444 249 l 5
 365 0 l 5
 353 0 l 5
 432 249 l 5
 246 250 l 5
 167 0 l 5
 155 0 l 5
 234 250 l 5
 56 250 l 5
251 262 m 5
 436 261 l 5
 500 467 l 5
 315 467 l 5
 251 262 l 5
EndSplineSet
Validated: 1
Substitution2: "'smcp' Lowercase to Small Capitals lookup 16-1" numbersign.smcp
EndChar

StartChar: dollar
Encoding: 36 36 161
Width: 574
VWidth: 0
Flags: W
HStem: -7 23<119.135 269 287 397.631> 347 24<211.982 468.468> 715 23<281.572 387 405 521.422>
DStem2: 139 494 163 494 0.12558 0.992083<-63.4186 131.283> 256 -88 274 -88 0.155963 0.987763<2.80733 82.0363 838.143 923.298> 499 156 523 156 0.145494 0.989359<-66.2584 138.96>
LayerCount: 2
Fore
SplineSet
80 7 m 1
 82 22 l 1
 125 18 213 16 306 16 c 0
 403 16 481 39 499 156 c 2
 509 224 l 2
 524 316 491 347 391 347 c 2
 289 347 l 2
 134 347 129 432 139 494 c 2
 150 560 l 2
 173 706 252 738 387 738 c 1
 400 824 l 1
 418 824 l 1
 405 737 l 1
 462 734 541 725 580 719 c 1
 578 706 l 1
 515 710 386 715 386 715 c 2
 272 720 195 694 174 560 c 2
 163 494 l 2
 147 394 203 371 291 371 c 2
 395 371 l 2
 528 371 546 306 533 224 c 2
 523 156 l 2
 500 8 395 -10 287 -8 c 1
 274 -88 l 1
 256 -88 l 1
 269 -7 l 1
 210 -5 116 0 80 7 c 1
EndSplineSet
Validated: 33
Substitution2: "'smcp' Lowercase to Small Capitals lookup 16-1" dollar.smcp
EndChar

StartChar: zerosuperior
Encoding: 263 8304 162
Width: 483
VWidth: 100
Flags: W
HStem: 355 18<136.672 366.447> 812 18<207.525 425.369>
DStem2: 90 468 108 469 0.154968 0.98792<-50.3948 306.457> 419 469 437 459 0.154968 0.98792<-59.9838 302.074>
LayerCount: 2
Fore
SplineSet
90 468 m 2
 130 723 l 2
 143 807 194 830 265 830 c 2
 382 830 l 2
 465 830 488 781 477 714 c 14
 437 459 l 6
 422 363 370 355 306 355 c 2
 189 355 l 2
 130 355 74 368 90 468 c 2
108 469 m 2
 95 389 127 373 196 373 c 10
 305 373 l 18
 389 373 408 402 419 469 c 2
 458 716 l 2
 468 779 449 812 375 812 c 2
 266 812 l 2
 193 812 158 788 147 716 c 2
 108 469 l 2
EndSplineSet
Validated: 33
EndChar

StartChar: foursuperior
Encoding: 264 8308 163
Width: 486
VWidth: 100
Flags: W
HStem: 522 19<145 404 425 460.818> 533 8<444.182 483>
DStem2: 115 532 145 541 0.62245 0.782659<25.7174 380.753> 378 356 396 356 0.156249 0.987718<2.81248 168.024 190.071 309.898>
LayerCount: 2
Fore
SplineSet
115 532 m 1x80
 352 830 l 1
 375 830 l 5
 145 541 l 1x80
 407 541 l 1x40
 427 662 l 1
 443 710 l 1
 452 710 l 1
 425 541 l 1x80
 484 541 l 1
 483 533 l 1x40
 422 522 l 1
 396 356 l 1
 378 356 l 1
 404 522 l 1
 117 522 l 1
 115 532 l 1x80
EndSplineSet
Validated: 1
EndChar

StartChar: fivesuperior
Encoding: 265 8309 164
Width: 422
VWidth: 100
Flags: W
HStem: 351 19<107.456 342.559> 358 12<81 289.191> 611 18<186.248 388.756> 812 18<182 461>
DStem2: 108 538 126 538 0.187303 0.982302<3.37146 283.011> 403 469 420 465 0.154377 0.988012<-49.7067 108.516>
LayerCount: 2
Fore
SplineSet
79 358 m 1x70
 81 370 l 1x70
 292 370 l 2
 353 370 392 401 403 469 c 2
 411 525 l 2
 419 575 418 611 334 611 c 0
 224 611 l 2
 178 611 133 575 126 538 c 1
 108 538 l 1
 169 830 l 25
 464 830 l 1
 461 812 l 1
 182 812 l 25
 133 580 l 1
 171 641 253 629 335 629 c 4
 412 629 441 600 430 529 c 2
 420 465 l 2
 407 383 356 351 293 351 c 0xb0
 212 351 114 352 79 358 c 1x70
EndSplineSet
Validated: 33
EndChar

StartChar: sixsuperior
Encoding: 266 8310 165
Width: 426
VWidth: 100
Flags: W
HStem: 355 18<158.219 355.016> 594 18<165.907 403.913> 817 18<224.857 469>
DStem2: 410 460 428 457 0.177683 0.984088<-47.1506 107.601>
LayerCount: 2
Fore
SplineSet
107 605 m 0
 140 802 200 833 265 835 c 0
 332 837 430 835 471 829 c 1
 469 817 l 1
 264 817 l 2
 180 817 145 728 125 605 c 1
 181 611 301 612 349 612 c 4
 437 612 448 579 440 528 c 2
 428 457 l 2
 416 385 374 355 313 355 c 2
 199 355 l 2
 127 355 71 392 107 605 c 0
123 594 m 1
 95 418 131 373 202 373 c 2
 309 373 l 2
 367 373 400 404 410 460 c 2
 423 532 l 2
 432 589 397 594 343 594 c 2
 123 594 l 1
EndSplineSet
Validated: 33
EndChar

StartChar: sevensuperior
Encoding: 267 8311 166
Width: 440
VWidth: 100
Flags: W
HStem: 814 18<127 439>
DStem2: 184 356 205 356 0.485482 0.874247<10.1951 524.203>
LayerCount: 2
Fore
SplineSet
124 814 m 1
 127 832 l 1
 454 832 l 1
 461 817 l 1
 205 356 l 1
 184 356 l 5
 439 814 l 1
 124 814 l 1
EndSplineSet
Validated: 1
EndChar

StartChar: eightsuperior
Encoding: 268 8312 167
Width: 419
VWidth: 100
Flags: W
HStem: 354 18<168.285 385.737> 587 18<207.129 412.581> 817 18<241.828 449.41>
DStem2: 122 458 141 462 0.157698 0.987487<-43.2491 93.0703 192.638 321.311> 439 462 456 458 0.160676 0.987007<-51.9537 82.8459 185.781 308.931>
LayerCount: 2
Fore
SplineSet
122 458 m 2
 133 521 l 2
 141 569 190 591 217 592 c 1
 163 602 152 647 157 681 c 2
 164 721 l 2
 179 813 229 835 296 835 c 2
 406 835 l 2
 476 835 512 802 498 716 c 2
 491 676 l 2
 486 642 457 602 408 598 c 1
 440 592 473 561 466 516 c 2
 456 458 l 2
 443 374 397 354 342 354 c 2
 217 354 l 2
 125 354 113 404 122 458 c 2
141 462 m 2
 131 397 152 372 222 372 c 2
 334 372 l 2
 393 372 428 394 439 462 c 2
 447 512 l 2
 455 565 408 587 379 587 c 2
 254 587 l 2
 200 587 156 556 149 514 c 2
 141 462 l 2
176 682 m 2
 168 629 202 605 247 605 c 2
 378 605 l 2
 418 605 466 631 474 682 c 2
 479 714 l 2
 492 798 462 817 396 817 c 2
 299 817 l 2
 231 817 194 794 181 714 c 2
 176 682 l 2
EndSplineSet
Validated: 33
EndChar

StartChar: ninesuperior
Encoding: 269 8313 168
Width: 507
VWidth: 100
Flags: W
HStem: 356 18<140.38 366.064> 362 12<122 321.838> 579 18<185.699 424.307> 818 18<235.765 430.472>
DStem2: 151 661 169 659 0.143244 0.989687<-37.7567 116.153>
LayerCount: 2
Fore
SplineSet
120 362 m 1x70
 122 374 l 1x70
 327 374 l 2
 411 374 445 463 465 586 c 1
 409 580 291 579 243 579 c 0
 155 579 143 610 151 661 c 2
 162 737 l 2
 173 809 223 836 284 836 c 2
 389 836 l 2
 461 836 519 799 483 586 c 0
 450 389 390 358 325 356 c 0xb0
 258 354 161 356 120 362 c 1x70
169 659 m 2
 160 602 193 597 247 597 c 2
 467 597 l 1
 495 773 459 818 388 818 c 2
 282 818 l 2
 224 818 189 787 180 731 c 2
 169 659 l 2
EndSplineSet
Validated: 33
EndChar

StartChar: zeroinferior
Encoding: 270 8320 169
Width: 494
VWidth: -455
Flags: W
HStem: -200 18<152.672 382.447> 257 18<223.525 441.369>
DStem2: 106 -87 124 -86 0.154968 0.98792<-50.3948 306.457> 435 -86 453 -96 0.154968 0.98792<-59.9838 302.074>
LayerCount: 2
Fore
SplineSet
106 -87 m 2
 146 168 l 2
 159 252 210 275 281 275 c 2
 398 275 l 2
 481 275 504 226 493 159 c 14
 453 -96 l 6
 438 -192 386 -200 322 -200 c 2
 205 -200 l 2
 146 -200 90 -187 106 -87 c 2
124 -86 m 2
 111 -166 143 -182 212 -182 c 10
 321 -182 l 18
 405 -182 424 -153 435 -86 c 2
 474 161 l 2
 484 224 465 257 391 257 c 2
 282 257 l 2
 209 257 174 233 163 161 c 2
 124 -86 l 2
EndSplineSet
Validated: 33
EndChar

StartChar: oneinferior
Encoding: 271 8321 170
Width: 291
VWidth: -455
Flags: W
HStem: 201 11<44 84.3481>
VStem: 43 177
DStem2: 126 -199 144 -199 0.157023 0.987595<2.82642 456.554>
LayerCount: 2
Fore
SplineSet
43 201 m 4
 44 212 l 4
 124 212 202 279 202 279 c 5
 220 279 l 5
 144 -199 l 5
 126 -199 l 5
 197 252 l 5
 180 239 120 201 43 201 c 4
EndSplineSet
Validated: 1
EndChar

StartChar: twoinferior
Encoding: 272 8322 171
Width: 465
VWidth: -455
Flags: W
HStem: -199 18<83 352> 265 18<118.125 344.582> 265 11<113 237.915>
LayerCount: 2
Fore
SplineSet
43 -199 m 25xc0
 45 -185 l 17
 121 -131 371 38 388 144 c 0
 399 213 386 265 290 265 c 2xc0
 113 265 l 2
 111 265 114 277 115 276 c 1xa0
 182 284 227 283 299 283 c 3
 397 283 421 218 408 140 c 0
 389 27 125 -150 83 -181 c 13
 355 -181 l 25
 352 -199 l 25
 43 -199 l 25xc0
EndSplineSet
Validated: 33
EndChar

StartChar: threeinferior
Encoding: 273 8323 172
Width: 395
VWidth: -455
Flags: W
HStem: -203 18<15.2506 246.577> -192 7<4 21.894> 37 10<81 231.746> 260 18<83.4807 316.609> 260 10<72 109.035>
DStem2: 315 -80 332 -86 0.156163 0.987731<-55.4545 56.3553 181.219 294.97>
LayerCount: 2
Fore
SplineSet
3 -192 m 5x60
 4 -185 l 5x60
 179 -185 l 6
 261 -185 302 -162 315 -80 c 6
 318 -57 l 6
 327 3 274 32 222 33 c 6
 79 37 l 6
 81 47 l 5
 218 51 l 6
 280 53 344 84 350 134 c 6
 354 170 l 6
 366 245 314 260 264 260 c 6xb0
 71 260 l 5
 72 270 l 5x28
 119 279 192 278 268 278 c 4
 355 278 381 227 372 167 c 6
 366 129 l 6
 358 72 293 44 269 42 c 5
 290 38 346 7 337 -56 c 6
 332 -86 l 6
 321 -157 286 -203 187 -203 c 4xb0
 113 -203 44 -201 3 -192 c 5x60
EndSplineSet
Validated: 33
EndChar

StartChar: fourinferior
Encoding: 274 8324 173
Width: 424
VWidth: -455
Flags: W
HStem: -33 19<34 293 314 349.818> -22 8<333.182 372>
DStem2: 4 -23 34 -14 0.62245 0.782659<25.7174 380.753> 267 -199 285 -199 0.156249 0.987718<2.81248 168.024 190.071 309.898>
LayerCount: 2
Fore
SplineSet
4 -23 m 1x80
 241 275 l 1
 264 275 l 5
 34 -14 l 1x80
 296 -14 l 1x40
 316 107 l 1
 332 155 l 1
 341 155 l 1
 314 -14 l 1x80
 373 -14 l 1
 372 -22 l 1x40
 311 -33 l 1
 285 -199 l 1
 267 -199 l 1
 293 -33 l 1
 6 -33 l 1
 4 -23 l 1x80
EndSplineSet
Validated: 1
EndChar

StartChar: fiveinferior
Encoding: 275 8325 174
Width: 420
VWidth: -455
Flags: W
HStem: -204 19<35.4557 270.559> -197 12<9 217.191> 56 18<114.248 316.756> 257 18<110 389>
DStem2: 36 -17 54 -17 0.187303 0.982302<3.37146 283.011> 331 -86 348 -90 0.154377 0.988012<-49.7067 108.516>
LayerCount: 2
Fore
SplineSet
7 -197 m 1x70
 9 -185 l 1x70
 220 -185 l 2
 281 -185 320 -154 331 -86 c 2
 339 -30 l 2
 347 20 346 56 262 56 c 0
 152 56 l 2
 106 56 61 20 54 -17 c 1
 36 -17 l 1
 97 275 l 25
 392 275 l 1
 389 257 l 1
 110 257 l 25
 61 25 l 1
 99 86 181 74 263 74 c 4
 340 74 369 45 358 -26 c 2
 348 -90 l 2
 335 -172 284 -204 221 -204 c 0xb0
 140 -204 42 -203 7 -197 c 1x70
EndSplineSet
Validated: 33
EndChar

StartChar: sixinferior
Encoding: 276 8326 175
Width: 424
VWidth: -455
Flags: W
HStem: -200 18<86.2193 283.016> 39 18<93.9071 331.913> 262 18<152.857 397>
DStem2: 338 -95 356 -98 0.177683 0.984088<-47.1506 107.601>
LayerCount: 2
Fore
SplineSet
35 50 m 0
 68 247 128 278 193 280 c 0
 260 282 358 280 399 274 c 1
 397 262 l 1
 192 262 l 2
 108 262 73 173 53 50 c 1
 109 56 229 57 277 57 c 4
 365 57 376 24 368 -27 c 2
 356 -98 l 2
 344 -170 302 -200 241 -200 c 2
 127 -200 l 2
 55 -200 -1 -163 35 50 c 0
51 39 m 1
 23 -137 59 -182 130 -182 c 2
 237 -182 l 2
 295 -182 328 -151 338 -95 c 2
 351 -23 l 2
 360 34 325 39 271 39 c 2
 51 39 l 1
EndSplineSet
Validated: 33
EndChar

StartChar: seveninferior
Encoding: 277 8327 176
Width: 439
VWidth: -455
Flags: W
HStem: 259 18<55 367>
DStem2: 112 -199 133 -199 0.485482 0.874247<10.1951 524.203>
LayerCount: 2
Fore
SplineSet
52 259 m 1
 55 277 l 1
 382 277 l 1
 389 262 l 1
 133 -199 l 1
 112 -199 l 5
 367 259 l 1
 52 259 l 1
EndSplineSet
Validated: 1
EndChar

StartChar: eightinferior
Encoding: 278 8328 177
Width: 421
VWidth: -455
Flags: W
HStem: -201 18<96.2848 313.737> 32 18<135.129 340.581> 262 18<169.828 377.41>
DStem2: 50 -97 69 -93 0.157698 0.987487<-43.2491 93.0703 192.638 321.311> 367 -93 384 -97 0.160676 0.987007<-51.9538 82.8459 185.781 308.931>
LayerCount: 2
Fore
SplineSet
50 -97 m 2
 61 -34 l 2
 69 14 118 36 145 37 c 1
 91 47 80 92 85 126 c 2
 92 166 l 2
 107 258 157 280 224 280 c 2
 334 280 l 2
 404 280 440 247 426 161 c 2
 419 121 l 2
 414 87 385 47 336 43 c 1
 368 37 401 6 394 -39 c 2
 384 -97 l 2
 371 -181 325 -201 270 -201 c 2
 145 -201 l 2
 53 -201 41 -151 50 -97 c 2
69 -93 m 2
 59 -158 80 -183 150 -183 c 2
 262 -183 l 2
 321 -183 356 -161 367 -93 c 2
 375 -43 l 2
 383 10 336 32 307 32 c 2
 182 32 l 2
 128 32 84 1 77 -41 c 2
 69 -93 l 2
104 127 m 2
 96 74 130 50 175 50 c 2
 306 50 l 2
 346 50 394 76 402 127 c 2
 407 159 l 2
 420 243 390 262 324 262 c 2
 227 262 l 2
 159 262 122 239 109 159 c 2
 104 127 l 2
EndSplineSet
Validated: 33
EndChar

StartChar: nineinferior
Encoding: 279 8329 178
Width: 504
VWidth: -455
Flags: W
HStem: -199 18<68.38 294.064> -193 12<50 249.838> 24 18<113.699 352.307> 263 18<163.765 358.472>
DStem2: 79 106 97 104 0.143244 0.989687<-37.7567 116.153>
LayerCount: 2
Fore
SplineSet
48 -193 m 1x70
 50 -181 l 1x70
 255 -181 l 2
 339 -181 373 -92 393 31 c 1
 337 25 219 24 171 24 c 0
 83 24 71 55 79 106 c 2
 90 182 l 2
 101 254 151 281 212 281 c 2
 317 281 l 2
 389 281 447 244 411 31 c 0
 378 -166 318 -197 253 -199 c 0xb0
 186 -201 89 -199 48 -193 c 1x70
97 104 m 2
 88 47 121 42 175 42 c 2
 395 42 l 1
 423 218 387 263 316 263 c 2
 210 263 l 2
 152 263 117 232 108 176 c 2
 97 104 l 2
EndSplineSet
Validated: 33
EndChar

StartChar: zero.oldstyle
Encoding: 280 -1 179
Width: 627
VWidth: 0
Flags: W
HStem: 0 24<183.288 454.415> 607 24<272.156 540.149>
DStem2: 99 162 123 162 0.154475 0.987997<-58.8054 375.503> 548 162 572 162 0.154475 0.987997<-69.1951 375.645>
LayerCount: 2
Fore
SplineSet
99 162 m 14
 147 469 l 6
 164 577 245 631 340 631 c 6
 474 631 l 6
 601 631 634 556 620 469 c 6
 572 162 l 22
 553 43 483 0 384 0 c 6
 252 0 l 6
 161 0 80 42 99 162 c 14
123 162 m 6
 109 70 159 24 249 24 c 14
 383 24 l 22
 487 24 535 77 548 162 c 6
 596 469 l 6
 610 559 571 607 475 607 c 6
 341 607 l 6
 252 607 185 557 171 469 c 6
 123 162 l 6
EndSplineSet
Substitution2: "'tnum' Tabular Numbers in Latin lookup 7-1" zero.tosf
Substitution2: "'lnum' Lining Figures lookup 19-1" zero
EndChar

StartChar: one.oldstyle
Encoding: 281 -1 180
Width: 385
VWidth: 0
Flags: W
HStem: 0 21G<226 253.07> 525 15<96 149.33>
VStem: 92 255
DStem2: 226 0 250 0 0.151705 0.988426<3.64091 609.444>
LayerCount: 2
Fore
SplineSet
92 525 m 0
 96 540 l 3
 196 540 325 632 325 632 c 1
 347 632 l 1
 250 0 l 1
 226 0 l 1
 321 602 l 1
 287 579 188 525 92 525 c 0
EndSplineSet
Validated: 1
Substitution2: "'tnum' Tabular Numbers in Latin lookup 7-1" one.tosf
Substitution2: "'lnum' Lining Figures lookup 19-1" one
EndChar

StartChar: two.oldstyle
Encoding: 282 -1 181
Width: 612
VWidth: 0
Flags: W
HStem: 0 24<123 533> 615 23<249.749 503.13> 615 13<162 218.052>
LayerCount: 2
Fore
SplineSet
68 0 m 29xc0
 72 23 l 21
 172 71 561 298 586 453 c 4
 605 575 529 615 421 615 c 6xc0
 160 615 l 6
 162 628 l 5xa0
 214 636 322 643 436 638 c 5
 576 638 628 559 610 446 c 4
 584 281 188 54 123 24 c 13
 537 24 l 29
 533 0 l 29
 68 0 l 29xc0
EndSplineSet
Substitution2: "'tnum' Tabular Numbers in Latin lookup 7-1" two.tosf
Substitution2: "'lnum' Lining Figures lookup 19-1" two
EndChar

StartChar: three.oldstyle
Encoding: 283 -1 182
Width: 581
VWidth: 0
Flags: W
HStem: -108 25<128.373 401.109> -97 14<50 120.02> 251 27<167 439.266> 258 14<167 377> 609 24<256.403 503.856> 609 14<155 213.972>
DStem2: 499 60 525 57 0.159689 0.987167<-73.1749 111.998 286.203 477.516>
LayerCount: 2
Fore
SplineSet
47 -97 m 1x40
 50 -83 l 1x40
 323 -83 l 2
 402 -83 480 -57 499 60 c 2
 508 119 l 2
 524 219 434 249 377 251 c 2xa0
 165 258 l 2
 167 272 l 1x10
 381 278 l 1
 459 279 542 314 555 399 c 2
 565 468 l 2
 581 567 521 609 439 609 c 2x28
 153 609 l 1
 155 623 l 1x04
 217 634 328 635 445 633 c 0
 564 631 605 556 590 464 c 6
 579 393 l 2
 561 288 467 266 437 264 c 1
 468 259 550 220 534 116 c 1
 525 57 l 2
 508 -52 442 -108 320 -108 c 0x88
 206 -108 85 -105 47 -97 c 1x40
EndSplineSet
Validated: 33
Substitution2: "'tnum' Tabular Numbers in Latin lookup 7-1" three.tosf
Substitution2: "'lnum' Lining Figures lookup 19-1" three
EndChar

StartChar: four.oldstyle
Encoding: 284 -1 183
Width: 584
VWidth: 0
Flags: W
HStem: 112 24<73 447 475 535.4> 122 14<498.6 563>
DStem2: 44 137 73 136 0.613941 0.789352<17.0149 627.096> 414 -98 438 -98 0.155869 0.987778<3.74087 212.577 240.648 553.302>
LayerCount: 2
Fore
SplineSet
44 137 m 1x80
 429 632 l 1
 456 632 l 1
 73 136 l 1x80
 451 136 l 1x40
 488 372 l 1
 510 447 l 1
 524 447 l 1
 475 136 l 1x80
 565 136 l 1
 563 122 l 1x40
 471 112 l 1
 438 -98 l 1
 414 -98 l 1
 447 112 l 1
 52 112 l 1
 44 137 l 1x80
EndSplineSet
Validated: 1
Substitution2: "'tnum' Tabular Numbers in Latin lookup 7-1" four.tosf
Substitution2: "'lnum' Lining Figures lookup 19-1" four
EndChar

StartChar: five.oldstyle
Encoding: 285 -1 184
Width: 610
VWidth: 0
Flags: W
HStem: -104 24<180.853 427.321> -94 14<71 149.403> 307 24<234.203 502.532> 608 24<226 626>
DStem2: 114 182 155 265 0.20239 0.979305<89.5803 439.852> 538 68 561 66 0.159546 0.98719<-62.1916 164.555>
LayerCount: 2
Fore
SplineSet
69 -94 m 1x70
 71 -80 l 1x70
 368 -80 l 2
 438 -80 522 -32 538 68 c 2
 553 163 l 2
 561 213 567 307 441 307 c 2
 288 307 l 2
 220 307 148 248 138 182 c 1
 114 182 l 1
 207 632 l 17
 630 632 l 1
 626 608 l 1
 226 608 l 25
 155 265 l 1
 166 280 211 331 288 331 c 0
 361 331 409 331 440 331 c 0
 558 331 592 262 577 165 c 2
 561 66 l 2
 539 -71 433 -104 371 -104 c 3xb0
 247 -104 139 -104 69 -94 c 1x70
EndSplineSet
Substitution2: "'tnum' Tabular Numbers in Latin lookup 7-1" five.tosf
Substitution2: "'lnum' Lining Figures lookup 19-1" five
EndChar

StartChar: six.oldstyle
Encoding: 286 -1 185
Width: 606
VWidth: 0
Flags: W
HStem: -1 24<221.262 461.688> 380 25<250.66 518.858> 714 24<318.586 554.973> 714 15<502.922 634>
DStem2: 543 146 568 148 0.116246 0.99322<-58.4896 189.755>
LayerCount: 2
Fore
SplineSet
138 384 m 0xe0
 179 642 274 738 366 738 c 0xe0
 467 738 576 736 636 729 c 1
 634 714 l 1xd0
 368 714 l 2
 241 714 181 506 163 394 c 1
 250 404 365 405 439 405 c 0
 573 405 599 341 586 259 c 2
 568 148 l 2
 550 36 492 -1 398 -1 c 2
 274 -1 l 2
 165 -1 90 81 138 384 c 0xe0
161 380 m 1
 136 224 129 23 273 23 c 2
 392 23 l 2
 454 23 526 42 543 146 c 2
 560 252 l 2
 577 357 527 380 443 380 c 2
 161 380 l 1
EndSplineSet
Substitution2: "'tnum' Tabular Numbers in Latin lookup 7-1" six.tosf
Substitution2: "'lnum' Lining Figures lookup 19-1" six
EndChar

StartChar: seven.oldstyle
Encoding: 287 -1 186
Width: 578
VWidth: 0
Flags: W
HStem: 608 24<133 555>
DStem2: 205 -100 233 -100 0.442655 0.896692<12.3943 789.787>
LayerCount: 2
Fore
SplineSet
129 608 m 1
 133 632 l 1
 571 632 l 1
 583 609 l 1
 233 -100 l 1
 205 -100 l 1
 555 608 l 1
 129 608 l 1
EndSplineSet
Substitution2: "'tnum' Tabular Numbers in Latin lookup 7-1" seven.tosf
Substitution2: "'lnum' Lining Figures lookup 19-1" seven
EndChar

StartChar: eight.oldstyle
Encoding: 288 -1 187
Width: 610
VWidth: 0
Flags: W
HStem: 0 24<210.864 453.213> 362 23<241.556 530.101> 713 24<302.702 562.281>
DStem2: 121 154 145 151 0.151701 0.988426<-54.32 152.006 291.971 498.242> 548 151 575 154 0.160893 0.986972<-59.7492 163.693 299.407 489.153>
LayerCount: 2
Fore
SplineSet
121 154 m 2
 136 253 l 2
 148 329 215 366 254 366 c 1
 170 381 167 453 175 506 c 2
 185 571 l 2
 206 705 279 737 382 737 c 2
 498 737 l 2
 610 737 658 680 639 557 c 2
 629 492 l 2
 620 438 575 384 518 380 c 1
 585 360 600 315 590 252 c 2
 575 154 l 2
 554 24 458 0 394 0 c 2
 279 0 l 2
 107 0 115 113 121 154 c 2
145 151 m 2
 130 58 198 24 283 24 c 2
 391 24 l 2
 452 24 533 55 548 151 c 2
 565 256 l 2
 582 362 504 362 454 362 c 2
 321 362 l 2
 275 362 175 338 162 256 c 2
 145 151 l 2
198 494 m 2
 182 393 256 385 322 385 c 2
 451 385 l 2
 548 385 597 448 604 494 c 2
 615 562 l 2
 632 672 587 713 494 713 c 2
 380 713 l 2
 271 713 223 666 208 562 c 2
 198 494 l 2
EndSplineSet
Validated: 33
Substitution2: "'tnum' Tabular Numbers in Latin lookup 7-1" eight.tosf
Substitution2: "'lnum' Lining Figures lookup 19-1" eight
EndChar

StartChar: nine.oldstyle
Encoding: 289 -1 188
Width: 634
VWidth: 0
Flags: W
HStem: -106 24<177.322 414.414> -97 15<98 229.649> 227 25<214.205 474.987> 609 24<271.297 515.581>
DStem2: 146 378 170 373 0.148768 0.988872<-63.6482 173.125>
LayerCount: 2
Fore
SplineSet
96 -97 m 5x70
 98 -82 l 5x70
 364 -82 l 6
 494 -82 551 126 569 238 c 5
 482 228 360 227 286 227 c 4
 152 227 133 296 146 378 c 6
 164 489 l 6
 182 601 254 633 348 633 c 6
 464 633 l 6
 573 633 643 542 595 239 c 4
 554 -19 459 -106 367 -106 c 4xb0
 266 -106 156 -104 96 -97 c 5x70
170 373 m 6
 153 268 218 252 294 252 c 6
 571 252 l 5
 596 408 607 609 464 609 c 6
 344 609 l 6
 282 609 203 590 187 486 c 6
 170 373 l 6
EndSplineSet
Validated: 33
Substitution2: "'tnum' Tabular Numbers in Latin lookup 7-1" nine.tosf
Substitution2: "'lnum' Lining Figures lookup 19-1" nine
EndChar

StartChar: ampersand
Encoding: 38 38 189
Width: 688
VWidth: 0
Flags: W
HStem: 0 21G<515.748 552> 710 14<475.337 585>
DStem2: 172 366 192 353 0.79901 0.601317<-82.3505 118.962> 238 538 220 524 0.504071 -0.863662<-62.6538 101.129 124.451 454.707 480.688 610.831> 361 60 378 44 0.772632 0.634855<-62.7017 108.868 133.681 253.809>
LayerCount: 2
Fore
SplineSet
91 82 m 0
 29 182 73 292 172 366 c 2
 269 439 l 1
 220 524 l 2
 151 643 218 708 299 726 c 0
 359 739 516 730 587 724 c 1
 585 710 l 1
 372 710 l 2
 242 710 174 650 238 538 c 2
 465 144 l 1
 647 295 l 1
 654 287 l 1
 572 203 l 5
 478 125 l 1
 552 0 l 1
 528 0 l 1
 460 111 l 1
 378 44 l 2
 292 -26 156 -23 91 82 c 0
109 97 m 0
 158 14 274 -11 361 60 c 2
 447 130 l 1
 281 419 l 1
 192 353 l 18
 90 277 57 185 109 97 c 0
EndSplineSet
Validated: 33
AlternateSubs2: "'salt' Access All Alternates in Latin lookup 4-1" ampersand.salt
Substitution2: "'smcp' Lowercase to Small Capitals lookup 16-1" ampersand.smcp
EndChar

StartChar: asterisk
Encoding: 42 42 190
Width: 483
VWidth: 0
Flags: W
HStem: 592 14<141 281>
LayerCount: 2
Fore
SplineSet
139 592 m 5
 141 606 l 5
 284 610 l 5
 281 586 l 5
 139 592 l 5
191 409 m 5
 245 543 l 5
 270 539 l 5
 203 405 l 5
 191 409 l 5
295 495 m 5
 311 518 l 5
 416 435 l 5
 406 424 l 5
 295 495 l 5
298 723 m 5
 312 727 l 5
 359 604 l 5
 334 593 l 5
 298 723 l 5
348 552 m 5
 473 635 l 5
 480 623 l 5
 363 533 l 5
 348 552 l 5
EndSplineSet
Validated: 1
Substitution2: "'smcp' Lowercase to Small Capitals lookup 16-1" asterisk.smcp
EndChar

StartChar: Euro
Encoding: 290 8364 191
Width: 728
VWidth: 0
Flags: W
HStem: -6 24<285.391 522.764> 268 21<72 157 185 466> 430 20<98 183 210 492> 716 24<384.365 627.056>
DStem2: 157 268 181 268 0.157356 0.987542<-89.0671 0 25.1443 164.073 188.072 310.735>
LayerCount: 2
Fore
SplineSet
70 272 m 1
 72 286 l 1
 161 289 l 1
 183 430 l 1
 96 433 l 1
 98 446 l 1
 186 450 l 1
 197 522 222 740 466 740 c 3
 518 740 610 733 678 720 c 1
 676 706 l 2
 676 706 548 717 465 716 c 0
 278 715 232 586 210 450 c 5
 494 447 l 1
 492 433 l 1
 207 430 l 1
 185 289 l 1
 468 285 l 1
 466 271 l 1
 466 271 178 270 181 268 c 1
 155 119 217 21 352 18 c 0
 461 15 573 30 573 30 c 1
 570 15 l 1
 486 -4 439 -6 354 -6 c 3
 276 -6 122 28 157 268 c 1
 70 272 l 1
EndSplineSet
Validated: 33
Substitution2: "'smcp' Lowercase to Small Capitals lookup 16-1" Euro.smcp
EndChar

StartChar: parenleft
Encoding: 40 40 192
Width: 275
VWidth: 120
Flags: W
LayerCount: 2
Fore
SplineSet
126 396 m 0
 169 670 369 920 369 920 c 1
 394 920 l 1
 394 920 191 658 148 386 c 0
 100 86 226 -150 226 -150 c 1
 200 -150 l 5
 200 -150 76 80 126 396 c 0
EndSplineSet
Validated: 33
Substitution2: "'case' Case-Sensitive Forms lookup 1-1" parenleft.alt
Substitution2: "'c2sc' Capitals to Small Capitals in Latin lookup 17 subtable" parenleft.smcp
Substitution2: "'smcp' Lowercase to Small Capitals lookup 16-1" parenleft.smcp
EndChar

StartChar: parenright
Encoding: 41 41 193
Width: 276
VWidth: 120
Flags: W
LayerCount: 2
Fore
SplineSet
-13 -150 m 1
 -13 -150 186 86 234 386 c 0
 277 658 156 920 156 920 c 1
 181 920 l 1
 181 920 299 656 256 382 c 4
 206 66 15 -150 15 -150 c 1
 -13 -150 l 1
EndSplineSet
Validated: 33
Substitution2: "'case' Case-Sensitive Forms lookup 1-1" parenright.alt
Substitution2: "'c2sc' Capitals to Small Capitals in Latin lookup 17 subtable" parenright.smcp
Substitution2: "'smcp' Lowercase to Small Capitals lookup 16-1" parenright.smcp
EndChar

StartChar: plus
Encoding: 43 43 194
Width: 524
VWidth: 0
Flags: W
HStem: 344 24<104 281 309 486>
DStem2: 252 163 276 163 0.156094 0.987742<3.74626 183.308 211.385 390.79>
LayerCount: 2
Fore
SplineSet
100 344 m 5
 104 368 l 5
 285 368 l 5
 313 549 l 1
 337 549 l 1
 309 368 l 5
 490 368 l 5
 486 344 l 5
 305 344 l 5
 276 163 l 1
 252 163 l 1
 281 344 l 5
 100 344 l 5
EndSplineSet
Validated: 1
EndChar

StartChar: endash
Encoding: 291 8211 195
Width: 432
VWidth: 0
Flags: W
HStem: 275 25<64 533>
LayerCount: 2
Fore
SplineSet
60 275 m 1
 64 300 l 5
 537 300 l 5
 533 275 l 1
 60 275 l 1
EndSplineSet
Validated: 1
Substitution2: "'case' Case-Sensitive Forms lookup 1-1" endash.alt
Substitution2: "'c2sc' Capitals to Small Capitals in Latin lookup 17 subtable" endash.smcp
Substitution2: "'smcp' Lowercase to Small Capitals lookup 16-1" endash.smcp
EndChar

StartChar: emdash
Encoding: 292 8212 196
Width: 741
VWidth: 0
Flags: W
HStem: 277 25<63 755>
LayerCount: 2
Fore
SplineSet
59 277 m 1
 63 302 l 5
 759 302 l 5
 755 277 l 1
 59 277 l 1
EndSplineSet
Validated: 1
Substitution2: "'case' Case-Sensitive Forms lookup 1-1" emdash.alt
Substitution2: "'c2sc' Capitals to Small Capitals in Latin lookup 17 subtable" emdash.smcp
Substitution2: "'smcp' Lowercase to Small Capitals lookup 16-1" emdash.smcp
EndChar

StartChar: less
Encoding: 60 60 197
Width: 472
VWidth: 0
Flags: W
DStem2: 129 354 99 345 0.83777 -0.546023<0 342.801> 102 365 129 354 0.890605 0.454777<19.0438 405.908>
LayerCount: 2
Fore
SplineSet
99 345 m 1
 102 365 l 1
 478 557 l 1
 473 531 l 1
 129 354 l 5
 415 165 l 1
 412 141 l 1
 99 345 l 1
EndSplineSet
Validated: 1
EndChar

StartChar: equal
Encoding: 61 61 198
Width: 462
VWidth: 0
Flags: W
HStem: 212 24<57 480> 471 24<98 521>
LayerCount: 2
Fore
SplineSet
53 212 m 5
 57 236 l 5
 484 236 l 5
 480 212 l 5
 53 212 l 5
94 471 m 5
 98 495 l 5
 525 495 l 5
 521 471 l 5
 94 471 l 5
EndSplineSet
Validated: 1
EndChar

StartChar: greater
Encoding: 62 62 199
Width: 473
VWidth: 0
Flags: W
DStem2: 76 168 72 141 0.879495 0.475907<0 396.011> 138 557 134 534 0.853148 -0.52167<8.58582 348.334>
LayerCount: 2
Fore
SplineSet
72 141 m 1
 76 168 l 1
 424 357 l 1
 134 534 l 1
 138 557 l 1
 452 365 l 1
 449 345 l 1
 72 141 l 1
EndSplineSet
Validated: 1
EndChar

StartChar: multiply
Encoding: 215 215 200
Width: 443
VWidth: 0
Flags: W
HStem: 211 288
VStem: 93 330
DStem2: 93 228 107 211 0.756715 0.653745<0 195.673 219.1 417.075> 151 499 134 484 0.644308 -0.764766<0.518249 167.349 190.015 356.846>
LayerCount: 2
Fore
SplineSet
93 228 m 1
 241 356 l 1
 134 484 l 1
 151 499 l 1
 259 371 l 5
 409 501 l 1
 423 484 l 1
 273 354 l 5
 381 226 l 1
 363 211 l 1
 256 339 l 1
 107 211 l 1
 93 228 l 1
EndSplineSet
Validated: 1
EndChar

StartChar: divide
Encoding: 247 247 201
Width: 556
VWidth: 0
Flags: W
HStem: 147 66<270.611 302.406> 341 24<104 516> 483 66<323.688 355.42>
DStem2: 272 201 307 201 0.154217 0.988037<-51.9309 14.8251 288.132 354.849>
LayerCount: 2
Fore
SplineSet
100 341 m 1
 104 365 l 1
 520 365 l 1
 516 341 l 1
 100 341 l 1
266 159 m 2
 272 201 l 2
 273 209 278 213 286 213 c 2
 298 213 l 2
 306 213 308 208 307 201 c 2
 301 159 l 2
 300 151 294 147 287 147 c 2
 276 147 l 2
 269 147 265 152 266 159 c 2
319 494 m 2
 325 537 l 2
 326 545 331 549 339 549 c 2
 351 549 l 2
 359 549 361 544 360 537 c 2
 354 494 l 2
 353 486 347 483 340 483 c 2
 329 483 l 2
 322 483 318 487 319 494 c 2
EndSplineSet
Validated: 1
EndChar

StartChar: question
Encoding: 63 63 202
Width: 543
VWidth: 0
Flags: W
HStem: 0 21G<177.5 195.5> 297 20<243 400.851> 715 24<187.406 460.674> 715 14<127 214.42>
DStem2: 180.721 74 215.721 74 0.158937 0.987289<-71.4516 14.1498 126.817 231.216> 510 453 535 453 0.156465 0.987684<-64.358 179.304>
LayerCount: 2
Fore
SplineSet
125 715 m 2xd0
 127 729 l 1xd0
 206 738 292 739 375 739 c 1
 530 740 569 672 550 554 c 2
 535 453 l 2
 514 318 430 278 243 297 c 1
 227 195 l 1
 201 195 l 1
 220 317 l 1
 322 317 l 0
 426 317 494 352 510 453 c 2
 526 554 l 2
 544 670 499 715 374 715 c 2xe0
 125 715 l 2xd0
170.9 12 m 2
 180.721 74 l 2
 181.987 82 186.621 86 194.621 86 c 2
 205.621 86 l 2
 213.621 86 216.829 81 215.721 74 c 2
 205.9 12 l 2
 204.634 4 199 0 192 0 c 2
 181 0 l 2
 174 0 169.792 5 170.9 12 c 2
EndSplineSet
Validated: 33
Substitution2: "'smcp' Lowercase to Small Capitals lookup 16-1" question.smcp
EndChar

StartChar: bracketleft
Encoding: 91 91 203
Width: 265
VWidth: 120
Flags: W
HStem: -150 24<138.854 235> 878 24<297.078 398>
DStem2: 76 22 100 22 0.156249 0.987718<-71.4075 798.812>
LayerCount: 2
Fore
SplineSet
76 22 m 2
 188 730 l 2
 198 795 231 902 352 902 c 2
 401 902 l 1
 398 878 l 1
 348 878 l 2
 282 878 229 835 212 730 c 2
 100 22 l 2
 87 -58 106 -126 189 -126 c 2
 239 -126 l 1
 235 -150 l 1
 185 -150 l 6
 70 -150 66 -38 76 22 c 2
EndSplineSet
Validated: 33
EndChar

StartChar: bracketright
Encoding: 93 93 204
Width: 270
VWidth: 120
Flags: W
HStem: -150 24<-9 91.77> 878 24<154 247.393>
DStem2: 176 22 200 22 0.156249 0.987718<-77.1424 793.641>
LayerCount: 2
Fore
SplineSet
-13 -150 m 1
 -9 -126 l 1
 41 -126 l 2
 124 -126 163 -58 176 22 c 2
 288 730 l 2
 305 835 266 878 200 878 c 6
 150 878 l 1
 154 902 l 1
 204 902 l 6
 323 902 322 790 312 730 c 2
 200 22 l 2
 189 -49 158 -150 37 -150 c 2
 -13 -150 l 1
EndSplineSet
Validated: 33
EndChar

StartChar: braceleft
Encoding: 123 123 205
Width: 260
VWidth: 120
Flags: W
HStem: -150 23<169.409 233> 879 23<329.788 396>
DStem2: 100 29 123 22 0.157935 0.98745<-80.9338 316.943 415.675 786.956>
LayerCount: 2
Fore
SplineSet
67 380 m 1
 71 407 l 1
 104 410 164 422 173 480 c 2
 211 723 l 2
 226 819 267 902 400 902 c 1
 396 879 l 1
 308 879 253 838 234 716 c 2
 197 480 l 2
 189 432 147 400 103 394 c 1
 145 388 176 353 169 311 c 2
 123 22 l 2
 105 -92 146 -127 237 -127 c 5
 233 -150 l 1
 84 -150 88 -49 100 29 c 2
 144 307 l 2
 152 355 107 383 67 380 c 1
EndSplineSet
Validated: 33
EndChar

StartChar: braceright
Encoding: 125 125 206
Width: 258
VWidth: 120
Flags: W
HStem: -150 23<-9 61.6539> 380 27<287.46 321> 881 21<154 207.774>
DStem2: 151 22 174 17 0.155158 0.98789<-81.0653 329.838 431.339 785.951>
LayerCount: 2
Fore
SplineSet
-13 -150 m 1
 -9 -127 l 5
 82 -127 133 -92 151 22 c 2
 197 311 l 2
 204 353 245 388 289 394 c 1
 247 400 215 432 223 480 c 2
 260 716 l 2
 279 838 238 881 150 881 c 1
 154 902 l 1
 287 902 298 805 283 709 c 2
 247 480 l 2
 238 423 292 410 325 407 c 1
 321 380 l 1
 281 383 228 355 220 307 c 2
 174 17 l 2
 162 -61 136 -150 -13 -150 c 1
EndSplineSet
Validated: 33
EndChar

StartChar: at
Encoding: 64 64 207
Width: 901
VWidth: 0
Flags: W
HStem: -179 24<158.172 496.447> -169 14<530.946 599> -4 24<343.088 494.892> 3 23<633 700.785> 675 24<277.014 791.097>
DStem2: 64 9 88 9 0.15626 0.987716<-61.9129 593.88> 617 80 633 26 0.153312 0.988178<-10.576 405.677> 788 167 812 167 0.148067 0.988977<-72.9578 435.918>
LayerCount: 2
Fore
SplineSet
64 9 m 6x88
 145 521 l 6
 160 613 212 699 350 699 c 6
 725 699 l 6
 836 699 882 634 865 521 c 6
 812 167 l 6
 807 132 787 3 643 3 c 6
 614 3 l 5x98
 616 63 l 5
 585 29 483 -3 410 -4 c 4x28
 299 -6 224 48 258 275 c 4
 292 496 399 537 473 544 c 4
 552 551 649 531 700 482 c 5
 633 26 l 5
 681 26 768 34 788 167 c 6
 841 521 l 6
 859 642 806 675 724 675 c 6
 350 675 l 6
 230 675 182 604 169 521 c 6
 88 9 l 6
 71 -97 131 -155 217 -155 c 6x98
 601 -155 l 5
 599 -169 l 5x48
 549 -179 435 -179 309 -179 c 6
 211 -179 l 6
 107 -179 47 -98 64 9 c 6x88
280 254 m 4
 255 55 324 21 402 20 c 4x28
 457 19 552 31 617 80 c 5
 676 479 l 5
 607 516 548 521 483 519 c 4
 426 517 310 495 280 254 c 4
EndSplineSet
Validated: 33
Substitution2: "'case' Case-Sensitive Forms lookup 1-1" at.alt
Substitution2: "'smcp' Lowercase to Small Capitals lookup 16-1" at.smcp
EndChar

StartChar: breve
Encoding: 293 728 208
Width: 272
VWidth: 0
Flags: W
HStem: 530 14<122.928 196.648>
VStem: 60 14<591.127 644> 276 14<620.604 644>
LayerCount: 2
Fore
SplineSet
60 644 m 1
 74 644 l 1
 65 587 104 543 158 544 c 0
 217 545 267 586 276 644 c 1
 290 644 l 1
 278 568 212 530 157 530 c 4
 102 530 49 572 60 644 c 1
EndSplineSet
Validated: 33
EndChar

StartChar: ogonek
Encoding: 294 731 209
Width: 263
VWidth: 0
Flags: W
HStem: -181 14<216.589 262> -20 20G<167.5 259>
LayerCount: 2
Fore
SplineSet
247 0 m 5
 259 0 l 5
 141 -45 132 -170 264 -167 c 9
 262 -181 l 16
 144 -197 88 -66 247 0 c 5
EndSplineSet
Validated: 33
EndChar

StartChar: caron
Encoding: 295 711 210
Width: 403
VWidth: 0
Flags: W
HStem: 531 130
VStem: 32 272
DStem2: 49 661 32 661 0.601964 -0.798523<0 148.415> 143 546 151 531 0.762062 0.647504<0 183.438>
LayerCount: 2
Fore
SplineSet
32 661 m 5
 49 661 l 5
 143 546 l 5
 286 661 l 5
 304 661 l 5
 151 531 l 5
 130 531 l 5
 32 661 l 5
130 531 m 5
151 531 m 5
EndSplineSet
Validated: 1
Substitution2: "'smcp' Lowercase to Small Capitals lookup 16-1" caron.smcp
EndChar

StartChar: hungarumlaut
Encoding: 296 733 211
Width: 462
VWidth: 0
Flags: W
HStem: 531 133
VStem: 154 307
DStem2: 154 531 168 531 0.756823 0.65362<10.5955 194.4> 293 531 307 531 0.756823 0.65362<10.5955 194.4>
LayerCount: 2
Fore
SplineSet
154 531 m 25
 296 664 l 25
 322 664 l 25
 168 531 l 25
 154 531 l 25
293 531 m 25
 435 664 l 25
 461 664 l 25
 307 531 l 25
 293 531 l 25
EndSplineSet
Validated: 1
EndChar

StartChar: dotaccent
Encoding: 297 729 212
Width: 172
VWidth: 0
Flags: W
HStem: 547 86<79.4117 107.408>
VStem: 70.9004 44.8206
DStem2: 80.7207 621 115.721 621 0.156453 0.987686<-72.1448 14.7919>
LayerCount: 2
Fore
SplineSet
70.9004 559 m 2
 80.7207 621 l 2
 81.9873 629 86.6211 633 94.6211 633 c 2
 105.621 633 l 2
 113.621 633 116.829 628 115.721 621 c 2
 105.9 559 l 2
 104.634 551 99 547 92 547 c 2
 81 547 l 2
 74 547 69.792 552 70.9004 559 c 2
EndSplineSet
Validated: 1
EndChar

StartChar: Lcaron
Encoding: 299 317 214
Width: 547
VWidth: 0
Flags: W
HStem: 0 24<152.683 491> 712 20G<191.832 219>
VStem: 285 12<571 604.5>
DStem2: 99 126 123 126 0.156465 0.987684<-52.5496 613.557> 300 705 325 705 0.123427 0.992354<-133.346 67.722>
LayerCount: 2
Fore
SplineSet
99 126 m 2
 195 732 l 1
 219 732 l 1
 123 126 l 2
 108 34 165 24 219 24 c 2
 495 24 l 5
 491 0 l 5
 215 0 l 2
 149 0 81 13 99 126 c 2
285 571 m 1
 300 705 l 1
 310 772 l 1
 335 772 l 1
 325 705 l 1
 297 571 l 1
 285 571 l 1
EndSplineSet
Validated: 33
Substitution2: "'c2sc' Capitals to Small Capitals in Latin lookup 17 subtable" lcaron.smcp
EndChar

StartChar: lcaron
Encoding: 308 318 223
Width: 313
VWidth: 0
Flags: W
HStem: 0 13<207.594 249> 763 19G<179.835 207 304.015 332>
VStem: 282 12<581 614.5>
DStem2: 89 189 113 189 0.156304 0.987709<-89.4128 601.392> 297 715 322 715 0.123427 0.992354<-133.346 67.722>
LayerCount: 2
Fore
SplineSet
89 189 m 2
 183 783 l 1
 207 783 l 1
 113 189 l 2
 88 32 150 28 179 24 c 2
 179 24 244 13 251 13 c 1
 249 0 l 1
 184 0 l 2
 100 0 68 57 89 189 c 2
282 581 m 1
 297 715 l 1
 307 782 l 1
 332 782 l 1
 322 715 l 1
 294 581 l 1
 282 581 l 1
EndSplineSet
Validated: 33
Substitution2: "'smcp' Lowercase to Small Capitals lookup 16-1" lcaron.smcp
EndChar

StartChar: tcaron
Encoding: 312 357 227
Width: 344
VWidth: 0
Flags: W
HStem: -1 13<243.594 285> 508 24<204 375> 508 16<95 169.375>
VStem: 92 287
DStem2: 125 188 149 188 0.156581 0.987665<-89.3559 324.038>
LayerCount: 2
Fore
SplineSet
92 508 m 1xb0
 95 524 l 1xb0
 180 532 l 1
 211 680 l 1
 227 680 l 1
 204 532 l 1
 379 532 l 1
 375 508 l 1xd0
 200 508 l 1
 149 188 l 2
 124 31 186 27 215 23 c 2
 215 23 280 12 287 12 c 1
 285 -1 l 1
 222 -1 l 2
 138 -1 104 56 125 188 c 2
 176 508 l 1
 92 508 l 1xb0
303 597 m 1
 317 731 l 1
 328 798 l 1
 353 798 l 1
 342 731 l 1
 315 597 l 1
 303 597 l 1
EndSplineSet
Validated: 33
AlternateSubs2: "'salt' Access All Alternates in Latin lookup 4-1" tcaron.salt
Substitution2: "'smcp' Lowercase to Small Capitals lookup 16-1" tcaron.smcp
EndChar

StartChar: dcaron
Encoding: 338 271 253
Width: 541
VWidth: 0
Flags: W
HStem: 0 18<188.4 314.542> 515 24<251.34 414.006> 765 20G<549.853 575 634.716 663>
VStem: 438 13<0 44.3145>
DStem2: 439 73 451 0 0.156027 0.987753<-6.68748 418.284 431.549 721.067>
LayerCount: 2
Fore
SplineSet
89 271 m 0
 111 407 166 539 317 539 c 3
 362 539 448 525 508 499 c 1
 553 785 l 1
 575 785 l 1
 451 0 l 1
 438 0 l 1
 437 59 l 17
 407 35 299 -6 231 -6 c 3
 86 -6 70 149 89 271 c 0
113 263 m 0
 84 82 153 18 238 18 c 3
 317 18 382 46 439 73 c 1
 505 485 l 1
 439 503 393 515 316 515 c 3
 232 515 146 472 113 263 c 0
613 581 m 1
 627 715 l 1
 638 782 l 1
 663 782 l 1
 652 715 l 1
 625 581 l 1
 613 581 l 1
EndSplineSet
Validated: 33
AlternateSubs2: "'salt' Access All Alternates in Latin lookup 4-1" dcaron.salt
Substitution2: "'smcp' Lowercase to Small Capitals lookup 16-1" dcaron.smcp
EndChar

StartChar: Lslash
Encoding: 346 321 261
Width: 547
VWidth: 0
Flags: W
HStem: 0 24<155.737 492> 712 20G<192.825 220>
DStem2: 57 381 54 360 0.92742 0.374021<0 85.3685 123.858 250.827> 100 126 124 126 0.156465 0.987684<-52.5496 273.403 308.558 613.557>
LayerCount: 2
Fore
SplineSet
54 360 m 5
 57 381 l 5
 146 417 l 5
 196 732 l 5
 220 732 l 5
 172 427 l 5
 300 479 l 5
 296 459 l 5
 168 407 l 5
 124 126 l 6
 109 34 166 24 220 24 c 6
 496 24 l 5
 492 0 l 5
 219 0 l 6
 153 0 82 13 100 126 c 6
 143 396 l 5
 54 360 l 5
EndSplineSet
Validated: 33
Substitution2: "'c2sc' Capitals to Small Capitals in Latin lookup 17 subtable" lslash.smcp
EndChar

StartChar: uni00AD
Encoding: 173 173 262
Width: 361
VWidth: 0
Flags: W
HStem: 278 24<64 374>
VStem: 60 318
LayerCount: 2
Fore
SplineSet
60 278 m 1
 64 302 l 5
 378 302 l 5
 374 278 l 1
 60 278 l 1
EndSplineSet
Validated: 1
Substitution2: "'case' Case-Sensitive Forms lookup 1-1" uni00AD.alt
Substitution2: "'c2sc' Capitals to Small Capitals in Latin lookup 17 subtable" uni00AD.smcp
Substitution2: "'smcp' Lowercase to Small Capitals lookup 16-1" uni00AD.smcp
EndChar

StartChar: lslash
Encoding: 347 322 263
Width: 313
VWidth: 0
Flags: W
HStem: 0 13<207.594 249> 763 20G<179.82 207>
VStem: 52 249
DStem2: 55 420 52 399 0.901637 0.432493<0 72.7394 113.159 260.581> 89 189 113 189 0.156304 0.987709<-93.2663 250.06 287.187 601.392>
LayerCount: 2
Fore
SplineSet
52 399 m 5
 55 420 l 5
 131 456 l 5
 183 783 l 5
 207 783 l 5
 157 469 l 5
 301 538 l 5
 297 518 l 5
 154 448 l 5
 113 189 l 6
 92 54 126 32 179 24 c 6
 179 24 244 13 251 13 c 5
 249 0 l 5
 179 0 l 6
 102 0 67 48 89 189 c 6
 128 436 l 5
 52 399 l 5
EndSplineSet
Validated: 33
Substitution2: "'smcp' Lowercase to Small Capitals lookup 16-1" lslash.smcp
EndChar

StartChar: dcroat
Encoding: 349 273 265
Width: 521
VWidth: 0
Flags: W
HStem: 0 18<189.853 312.814> 515 24<250.953 414.733> 641 14<402 532 556 637> 765 20G<551.769 577>
VStem: 439 13<0 43.9902>
DStem2: 441 73 452 0 0.157254 0.987558<-6.70679 418.114 431.393 575.243 592.843 721.068>
LayerCount: 2
Fore
SplineSet
90 272 m 0
 112 408 168 539 319 539 c 4
 364 539 449 525 509 499 c 5
 532 641 l 5
 400 641 l 5
 402 655 l 5
 534 655 l 5
 555 785 l 5
 577 785 l 5
 556 655 l 5
 639 655 l 5
 637 641 l 5
 554 641 l 5
 452 0 l 5
 439 0 l 5
 439 59 l 5
 409 35 300 -6 232 -6 c 4
 87 -6 71 150 90 272 c 0
114 263 m 0
 86 89 151 18 236 18 c 4
 315 18 384 46 441 73 c 5
 506 485 l 5
 440 503 392 515 315 515 c 4
 231 515 146 468 114 263 c 0
EndSplineSet
Validated: 33
AlternateSubs2: "'salt' Access All Alternates in Latin lookup 4-1" dcroat.salt
Substitution2: "'smcp' Lowercase to Small Capitals lookup 16-1" dcroat.smcp
EndChar

StartChar: questiondown
Encoding: 191 191 266
Width: 541
VWidth: 0
Flags: W
HStem: -268 24<111.618 385.707> -258 14<361.812 451> 154 20<173.92 335>
DStem2: 28 -80 52 -84 0.154968 0.98792<-78.9413 171.917> 335 174 358 154 0.171751 0.98514<-0.645131 103.232 215.558 302.719>
LayerCount: 2
Fore
SplineSet
28 -80 m 2xa0
 44 20 l 2
 64 149 150 193 335 174 c 1
 351 276 l 1
 377 276 l 1
 358 154 l 1
 252 154 l 0
 148 154 84 119 68 18 c 2
 52 -84 l 2
 33 -204 77 -244 202 -244 c 2xa0
 453 -244 l 2
 451 -258 l 1x60
 372 -267 280 -268 197 -268 c 1
 40 -271 10 -193 28 -80 c 2xa0
367 396 m 2
 376 458 l 2
 377.158 465.978 383 470 390 470 c 2
 401 470 l 2
 408 470 412.016 464.998 411 458 c 2
 402 396 l 2
 401 388 396 384 388 384 c 2
 376 384 l 2
 368 384 366 389 367 396 c 2
EndSplineSet
Validated: 33
Substitution2: "'case' Case-Sensitive Forms lookup 1-1" questiondown.alt
Substitution2: "'smcp' Lowercase to Small Capitals lookup 16-1" questiondown.smcp
EndChar

StartChar: at.alt
Encoding: 350 -1 267
Width: 737
VWidth: 0
Flags: W
HStem: -89 24<170.172 508.447> -79 14<542.946 611> 86 24<355.088 506.892> 93 23<645 712.785> 765 24<289.014 803.097>
DStem2: 76 99 100 99 0.15626 0.987716<-61.9129 593.88> 629 170 645 116 0.153312 0.988178<-10.576 405.677> 800 257 824 257 0.148067 0.988977<-72.9578 435.918>
LayerCount: 2
Fore
SplineSet
76 99 m 6x88
 157 611 l 6
 172 703 224 789 362 789 c 6
 737 789 l 6
 848 789 894 724 877 611 c 6
 824 257 l 6
 819 222 799 93 655 93 c 6
 626 93 l 5x98
 628 153 l 5
 597 119 495 87 422 86 c 4x28
 311 84 236 138 270 365 c 4
 304 586 411 627 485 634 c 4
 564 641 661 621 712 572 c 5
 645 116 l 5
 693 116 780 124 800 257 c 6
 853 611 l 6
 871 732 818 765 736 765 c 6
 362 765 l 6
 242 765 194 694 181 611 c 6
 100 99 l 6
 83 -7 143 -65 229 -65 c 6x98
 613 -65 l 5
 611 -79 l 5x48
 561 -89 447 -89 321 -89 c 6
 223 -89 l 6
 119 -89 59 -8 76 99 c 6x88
292 344 m 4
 267 145 336 111 414 110 c 4x28
 469 109 564 121 629 170 c 5
 688 569 l 5
 619 606 560 611 495 609 c 4
 438 607 322 585 292 344 c 4
EndSplineSet
Validated: 33
EndChar

StartChar: questiondown.alt
Encoding: 351 -1 268
Width: 541
VWidth: 0
Flags: W
HStem: -6 24<152.618 426.707> 4 14<402.812 492> 416 20<214.92 376> 666 66<415.594 447.389>
DStem2: 69 182 93 178 0.154968 0.98792<-78.9413 172.368> 376 436 399 416 0.171751 0.98514<-0.642275 103.232 235.776 302.719>
LayerCount: 2
Fore
SplineSet
69 182 m 2xb0
 84 280 l 2
 105 415 191 455 376 436 c 1
 392 538 l 1
 418 538 l 1
 399 416 l 1
 293 416 l 0
 189 416 125 381 109 280 c 2
 93 178 l 2
 74 58 118 18 243 18 c 2xb0
 494 18 l 2
 492 4 l 1x70
 413 -5 321 -6 238 -6 c 1
 81 -9 51 64 69 182 c 2xb0
411 678 m 2
 417 720 l 2
 418 728 424 732 431 732 c 2
 442 732 l 2
 449 732 453 727 452 720 c 2
 446 678 l 2
 445 670 440 666 432 666 c 2
 420 666 l 2
 412 666 410 671 411 678 c 2
EndSplineSet
Validated: 33
EndChar

StartChar: oe
Encoding: 352 339 269
Width: 966
VWidth: 0
Flags: W
HStem: -5 24<177.716 368.574 575.231 801.497> 512 24<252.013 436.678 663.647 870.359>
LayerCount: 2
Fore
SplineSet
91 265 m 4
 125 482 195 536 354 536 c 4
 474 536 526 489 537 398 c 5
 567 485 625 539 761 541 c 4
 887 543 964 504 949 388 c 4
 921 169 565 232 528 247 c 5
 503 95 531 19 634 17 c 4
 711 16 794 27 872 38 c 5
 869 22 l 5
 785 -1 719 -7 636 -7 c 4
 548 -7 505 36 498 127 c 5
 460 30 393 -5 268 -5 c 4
 92 -5 61 75 91 265 c 4
115 258 m 4
 82 47 146 19 273 19 c 4
 401 19 473 56 505 258 c 4
 539 475 470 512 349 512 c 4
 229 512 152 490 115 258 c 4
531 261 m 5
 541 259 899 195 924 388 c 4
 937 486 873 517 769 517 c 4
 596 517 553 431 531 261 c 5
EndSplineSet
Validated: 33
Substitution2: "'smcp' Lowercase to Small Capitals lookup 16-1" oe.smcp
EndChar

StartChar: OE
Encoding: 353 338 270
Width: 1025
VWidth: 0
Flags: W
HStem: -4 24<220.32 442.013 648.7 872.818> 7 14<785.7 967> 351 24<656 982> 708 14<894.5 1078> 713 24<322.616 550.781 766.086 938.667>
DStem2: 593 133 616 123 0.156704 0.987646<-64.5341 0 66.761 224.552 248.883 404.027>
LayerCount: 2
Fore
SplineSet
117 368 m 0xa0
 171 711 274 737 446 737 c 0xa8
 567 737 647 718 665 588 c 1
 675 693 736 735 815 732 c 2
 1080 722 l 1
 1078 708 l 1
 811 708 l 2
 749 708 704 677 692 602 c 2
 656 375 l 1
 984 370 l 1
 982 356 l 1
 652 351 l 1
 616 123 l 2
 601 31 657 21 712 21 c 2
 969 21 l 1
 967 7 l 1x70
 708 -3 l 2
 638 -6 571 22 593 133 c 1
 536 13 451 -4 325 -4 c 0
 145 -4 64 35 117 368 c 0xa0
141 361 m 0
 94 63 152 20 331 20 c 0
 502 20 582 65 629 361 c 0
 680 685 601 713 441 713 c 0
 293 713 194 698 141 361 c 0
EndSplineSet
Validated: 33
EndChar

StartChar: guillemotright
Encoding: 187 187 272
Width: 559
VWidth: 0
Flags: W
DStem2: 81 163 96 145 0.758154 0.652075<0 297.087> 167 558 149 542 0.644597 -0.764522<0.629607 243.268> 266 163 281 145 0.758154 0.652075<0 297.193> 352 558 334 543 0.644597 -0.764522<0 244.677>
LayerCount: 2
Fore
SplineSet
81 163 m 1
 306 357 l 1
 149 542 l 1
 167 558 l 1
 339 354 l 1
 96 145 l 1
 81 163 l 1
266 163 m 1
 492 356 l 5
 334 543 l 1
 352 558 l 1
 524 354 l 1
 281 145 l 1
 266 163 l 1
EndSplineSet
Validated: 1
EndChar

StartChar: cent
Encoding: 162 162 273
Width: 478
VWidth: 0
Flags: W
HStem: -5 24<152.562 230 249 352.147> 512 24<226.852 316 334 422.792>
DStem2: 218 -82 236 -82 0.156615 0.98766<2.81906 77.9292 627.553 708.746>
LayerCount: 2
Fore
SplineSet
80 273 m 4
 118 513 201 536 316 536 c 1
 329 618 l 1
 347 618 l 1
 334 535 l 1
 384 532 445 522 493 510 c 1
 491 496 l 1
 491 496 384 512 295 512 c 0
 204 512 139 478 105 262 c 0
 72 56 131 19 217 19 c 0
 309 19 426 40 426 40 c 1
 423 24 l 1
 351 4 311 -2 249 -4 c 1
 236 -82 l 1
 218 -82 l 1
 230 -5 l 1
 115 -7 41 32 80 273 c 4
EndSplineSet
Validated: 33
EndChar

StartChar: sterling
Encoding: 163 163 274
Width: 559
VWidth: 0
Flags: W
HStem: 0 24<150 515> 0 14<52 103.8> 350 22<205 458.75> 350 14<108 171.875 241.25 492> 709 23<355.263 628> 709 14<529.527 628>
DStem2: 126 24 150 24 0.156068 0.987746<3.74563 329.965 356.065 597.203>
LayerCount: 2
Fore
SplineSet
50 0 m 1x40
 52 14 l 1x40
 126 24 l 1
 177 350 l 1
 105 350 l 1
 108 364 l 1x90
 181 372 l 1
 202 505 l 2
 236 719 335 732 466 732 c 3x28
 523 732 631 723 631 723 c 1x04
 628 709 l 1
 464 709 l 2
 330 709 255 689 226 505 c 2
 205 372 l 1x28
 495 364 l 1
 492 350 l 1
 201 350 l 1
 150 24 l 1
 519 24 l 1
 515 0 l 1x90
 50 0 l 1x40
EndSplineSet
Validated: 1
Substitution2: "'smcp' Lowercase to Small Capitals lookup 16-1" sterling.smcp
EndChar

StartChar: yen
Encoding: 165 165 275
Width: 583
VWidth: 0
Flags: W
HStem: 0 21G<271 298.131> 198 14<108 302 328 533> 307 14<125 319 346 550> 712 20G<144 179.549 627.093 674>
DStem2: 171 732 144 732 0.393649 -0.919261<0 419.787> 271 0 295 0 0.154475 0.987997<3.7074 200.412 218.26 310.73> 336 346 346 321 0.623767 0.78161<0 493.198>
LayerCount: 2
Fore
SplineSet
106 198 m 1
 108 212 l 1
 304 212 l 1
 319 307 l 1
 123 307 l 1
 125 321 l 1
 320 321 l 1
 144 732 l 1
 171 732 l 1
 336 346 l 5
 643 732 l 1
 674 732 l 1
 346 321 l 1
 552 321 l 1
 550 307 l 1
 343 307 l 1
 328 212 l 1
 535 212 l 1
 533 198 l 1
 326 198 l 1
 295 0 l 1
 271 0 l 1
 302 198 l 1
 106 198 l 1
EndSplineSet
Validated: 1
Substitution2: "'smcp' Lowercase to Small Capitals lookup 16-1" yen.smcp
EndChar

StartChar: section
Encoding: 167 167 276
Width: 559
VWidth: 0
Flags: W
HStem: -8 24<138.281 402.658> 2 14<95 214.464> 255 24<145.767 469.657> 495 23<185.254 490.838> 760 24<244.31 497.57> 760 14<426.161 550>
DStem2: 112 358 136 353 0.154475 0.987997<-55.5677 121.091 193.699 367.426> 460 110 484 110 0.158116 0.98742<-54.2285 124.988 186.205 362.117>
LayerCount: 2
Fore
SplineSet
93 2 m 1x70
 95 16 l 1x70
 331 16 l 2
 403 16 448 36 460 110 c 2
 472 183 l 2
 481 241 473 255 375 255 c 2
 226 255 l 2
 146 255 96 256 112 358 c 2
 121 423 l 2
 128 470 146 500 191 508 c 1
 150 516 144 555 149 590 c 2
 160 662 l 2
 176 760 246 784 310 784 c 3xb8
 359 784 515 778 552 774 c 1
 550 760 l 1x34
 306 760 l 2
 224 760 193 717 184 660 c 2
 173 590 l 2
 163 527 198 518 268 518 c 2
 417 518 l 2
 530 518 546 483 533 409 c 2
 523 347 l 2
 517 307 507 269 458 265 c 1
 505 255 501 216 496 183 c 2
 484 110 l 6
 466 -2 391 -8 327 -8 c 3xb8
 278 -8 130 -2 93 2 c 1x70
136 353 m 2
 124 277 151 279 230 279 c 2
 379 279 l 2
 477 279 488 284 499 354 c 2
 500 355 509 416 509 416 c 2
 519 481 503 495 413 495 c 2
 264 495 l 2
 190 495 158 495 145 414 c 2
 136 353 l 2
EndSplineSet
Validated: 33
EndChar

StartChar: g.salt
Encoding: 355 -1 277
Width: 514
VWidth: 0
Flags: W
HStem: -270 24<119.289 389.732> 174 24<183.388 423.574> 509 24<233.578 457.969>
DStem2: 32 -114 56 -116 0.163008 0.986625<-53.2921 168.138 204.624 262.774 409.313 549.578> 130 66 89 47 0.992511 -0.122155<-30.6183 307.535> 467 -116 491 -116 0.112328 0.993671<-66.9657 77.9891 401.472 539.624>
LayerCount: 2
Fore
SplineSet
32 -114 m 0
 77 114 l 0
 86 175 123 189 162 194 c 1
 120 218 100 291 108 344 c 0
 128 474 200 534 307 533 c 2
 405 532 l 2
 474 531 561 485 543 344 c 0
 533 267 488 174 351 174 c 2
 204 174 l 2
 131 174 109 153 104 121 c 0
 100 95 88 71 130 66 c 2
 369 36 l 2
 437 27 509 -4 496 -83 c 2
 491 -116 l 2
 481 -182 462 -270 315 -270 c 2
 185 -270 l 2
 83 -270 13 -210 32 -114 c 0
56 -116 m 2
 38 -204 111 -246 176 -246 c 2
 320 -246 l 2
 430 -246 456 -185 467 -116 c 2
 471 -88 l 2
 481 -27 445 3 349 15 c 2
 89 47 l 1
 56 -116 l 2
132 344 m 0
 122 285 150 198 227 198 c 2
 365 198 l 2
 486 198 513 306 519 344 c 0
 535 446 481 509 407 509 c 2
 301 509 l 2
 219 509 154 469 132 344 c 0
EndSplineSet
Validated: 33
EndChar

StartChar: guillemotleft
Encoding: 171 171 278
Width: 562
VWidth: 0
Flags: W
DStem2: 140 352 106 354 0.64627 -0.763109<0 249.157> 106 354 140 352 0.757901 0.65237<24.4639 312.706> 323 353 291 354 0.64627 -0.763109<0 252.436> 291 354 323 353 0.757901 0.65237<23.6004 312.706>
LayerCount: 2
Fore
SplineSet
106 354 m 1
 343 558 l 1
 358 541 l 1
 140 352 l 1
 300 161 l 1
 283 145 l 1
 106 354 l 1
291 354 m 1
 528 558 l 1
 543 541 l 1
 323 353 l 5
 487 160 l 1
 468 145 l 1
 291 354 l 1
EndSplineSet
Validated: 1
EndChar

StartChar: paragraph
Encoding: 182 182 279
Width: 559
VWidth: 0
Flags: W
HStem: 0 21G<437 464.173> 357 22<203.261 306.617> 708 24<242.541 361 385 549 573 642>
DStem2: 118 506 142 501 0.159232 0.987241<-55.2062 147.214> 206 -270 230 -270 0.156533 0.987673<3.75679 642.982 657.123 990.207> 437 0 461 0 0.156249 0.987718<3.74998 716.804>
LayerCount: 2
Fore
SplineSet
118 506 m 2
 133 599 l 2
 148 694 234 732 311 732 c 1
 646 732 l 1
 642 706 l 1
 573 706 l 1
 461 0 l 1
 437 0 l 1
 549 708 l 1
 385 708 l 1
 230 -270 l 1
 206 -270 l 1
 307 365 l 1
 299 360 280 356 251 357 c 0
 148 357 106 428 118 506 c 2
142 501 m 2
 125 392 227 379 255 379 c 10
 309 379 l 25
 361 708 l 25
 307 708 l 2
 222 708 166 658 156 592 c 14
 142 501 l 2
EndSplineSet
Validated: 33
EndChar

StartChar: macron
Encoding: 175 175 280
Width: 393
VWidth: 0
Flags: W
HStem: 531 15<136 386>
VStem: 134 254
LayerCount: 2
Fore
SplineSet
134 531 m 1
 136 546 l 1
 388 546 l 5
 386 531 l 5
 134 531 l 1
EndSplineSet
Validated: 1
Substitution2: "'smcp' Lowercase to Small Capitals lookup 16-1" macron.smcp
EndChar

StartChar: copyright
Encoding: 169 169 281
Width: 867
VWidth: 0
Flags: W
HStem: 0 14<253.819 594.141> 147 14<354.681 514.812> 569 14<420.84 568.298> 718 14<357.905 710.184>
LayerCount: 2
Fore
SplineSet
111 371 m 0
 137 534 217 732 409 732 c 2
 665 732 l 2
 861 732 847 488 827 364 c 0
 796 171 701 0 550 0 c 2
 294 0 l 2
 110 0 90 237 111 371 c 0
125 368 m 0
 98 211 139 14 295 14 c 6
 552 14 l 2
 665 14 776 137 813 368 c 0
 843 559 816 718 665 718 c 2
 407 718 l 2
 296 718 171 639 125 368 c 0
286 368 m 0
 312 529 384 583 465 583 c 3
 506 583 586 576 640 566 c 1
 639 557 l 1
 577 566 496 569 463 569 c 3
 385 569 324 511 300 362 c 0
 280 235 303 161 398 161 c 3
 470 161 536 166 585 177 c 1
 583 168 l 17
 516 150 463 147 396 147 c 3
 317 147 258 191 286 368 c 0
EndSplineSet
Validated: 33
EndChar

StartChar: registered
Encoding: 174 174 282
Width: 867
VWidth: 0
Flags: W
HStem: 0 14<246.473 594.141> 350 9<334 493> 566 14<367 580.661> 718 14<357.905 711.151>
DStem2: 288 153 302 153 0.155012 0.987913<2.17017 201.594 210.641 420.254> 508 346 493 345 0.386989 -0.922084<0 203.504>
LayerCount: 2
Fore
SplineSet
111 370 m 0
 137 533 217 732 409 732 c 2
 665 732 l 2
 861 732 847 488 827 364 c 0
 796 171 701 0 550 0 c 2
 294 0 l 2
 110 0 90 236 111 370 c 0
125 368 m 0
 98 211 137 14 293 14 c 6
 552 14 l 2
 665 14 776 137 813 368 c 0
 843 559 817 718 666 718 c 2
 407 718 l 2
 296 718 171 639 125 368 c 0
288 153 m 1
 355 580 l 1
 532 580 l 2
 598 580 653 556 636 450 c 0
 618 335 542 349 508 346 c 1
 589 153 l 1
 574 153 l 1
 493 345 l 1
 333 350 l 1
 302 153 l 1
 288 153 l 1
334 359 m 1
 503 359 l 2
 571 359 609 373 622 453 c 0
 636 539 600 566 536 566 c 2
 367 566 l 1
 334 359 l 1
EndSplineSet
Validated: 33
EndChar

StartChar: plusminus
Encoding: 177 177 283
Width: 512
VWidth: 0
Flags: W
HStem: 137 24<73 455> 411 24<116 293 321 498>
DStem2: 265 230 289 230 0.156094 0.987742<3.74626 183.152 211.228 390.79>
LayerCount: 2
Fore
SplineSet
69 137 m 1
 73 161 l 1
 459 161 l 1
 455 137 l 1
 69 137 l 1
112 411 m 1
 116 435 l 1
 297 435 l 1
 326 616 l 1
 350 616 l 1
 321 435 l 1
 502 435 l 1
 498 411 l 1
 317 411 l 1
 289 230 l 1
 265 230 l 1
 293 411 l 1
 112 411 l 1
EndSplineSet
Validated: 1
EndChar

StartChar: logicalnot
Encoding: 172 172 284
Width: 535
VWidth: 0
Flags: W
HStem: 281 24<94 463>
DStem2: 444 159 468 159 0.153883 0.988089<3.69319 123.471>
LayerCount: 2
Fore
SplineSet
90 281 m 1
 94 305 l 1
 491 305 l 5
 482 248 477 216 468 159 c 5
 444 159 l 5
 463 281 l 5
 90 281 l 1
EndSplineSet
Validated: 1
EndChar

StartChar: guilsinglleft
Encoding: 356 8249 285
Width: 277
VWidth: 0
Flags: W
VStem: 38 253
DStem2: 69 352 38 354 0.65019 -0.759772<0 250.988> 38 354 69 352 0.760834 0.648947<22.288 312.815>
LayerCount: 2
Fore
SplineSet
38 354 m 1
 276 557 l 1
 291 541 l 1
 69 352 l 1
 233 162 l 5
 216 146 l 1
 38 354 l 1
EndSplineSet
Validated: 1
EndChar

StartChar: guilsinglright
Encoding: 357 8250 286
Width: 375
VWidth: 0
Flags: W
VStem: 106 258
DStem2: 106 163 120 146 0.761015 0.648734<0 297.956> 190 557 174 543 0.650791 -0.759257<0.216931 245.674>
LayerCount: 2
Fore
SplineSet
106 163 m 1
 333 356 l 1
 174 543 l 5
 190 557 l 1
 364 354 l 1
 120 146 l 1
 106 163 l 1
EndSplineSet
Validated: 1
EndChar

StartChar: perthousand
Encoding: 358 8240 287
Width: 1345
VWidth: 0
Flags: W
HStem: 3 15<565.118 782.295 983.876 1214.99> 349 15<135.906 353.083> 371 15<620.036 835.199 1056.04 1250.63> 717 15<191.433 406.954>
DStem2: 83 474 98 474 0.155963 0.987763<-52.1515 193.457> 193 0 214 0 0.60348 0.797378<12.6731 918.009> 425 474 440 474 0.155963 0.987763<-56.4893 189.182> 513 128 528 128 0.155963 0.987763<-52.1732 194.626> 855 128 870 128 0.155963 0.987763<-56.5137 189.139> 938 125 953 125 0.155963 0.987763<-52.1732 194.653> 1280 125 1295 125 0.155963 0.987763<-56.5137 189.16>
LayerCount: 2
Fore
SplineSet
83 474 m 2
 104 607 l 2
 117 692 151 732 252 732 c 2
 353 732 l 2
 451 732 474 692 461 607 c 2
 440 474 l 18
 427 389 395 349 294 349 c 2
 193 349 l 2
 95 349 70 389 83 474 c 2
98 474 m 2
 84 388 115 364 193 364 c 2
 294 364 l 2
 371 364 411 385 425 474 c 10
 446 607 l 2
 458 685 438 717 352 717 c 2
 251 717 l 2
 172 717 133 696 119 607 c 2
 98 474 l 2
193 0 m 1
 747 732 l 1
 768 732 l 1
 214 0 l 1
 193 0 l 1
513 128 m 2
 534 261 l 2
 547 346 579 386 680 386 c 2
 781 386 l 2
 879 386 904 346 891 261 c 2
 870 128 l 18
 857 43 824 3 723 3 c 2
 622 3 l 2
 524 3 500 43 513 128 c 2
528 128 m 2
 514 42 544 18 622 18 c 2
 723 18 l 2
 800 18 841 39 855 128 c 10
 876 261 l 2
 888 339 867 371 781 371 c 2
 680 371 l 2
 601 371 563 350 549 261 c 2
 528 128 l 2
938 125 m 2
 959 258 l 2
 972 343 1005 383 1106 383 c 2
 1207 383 l 2
 1305 383 1329 343 1316 258 c 2
 1295 125 l 18
 1282 40 1249 0 1148 0 c 2
 1047 0 l 2
 949 0 925 40 938 125 c 2
953 125 m 2
 939 39 969 15 1047 15 c 2
 1148 15 l 2
 1225 15 1266 36 1280 125 c 10
 1301 258 l 2
 1313 336 1292 368 1206 368 c 2
 1105 368 l 2
 1026 368 988 347 974 258 c 2
 953 125 l 2
EndSplineSet
Validated: 33
Substitution2: "'smcp' Lowercase to Small Capitals lookup 16-1" perthousand.smcp
EndChar

StartChar: dagger
Encoding: 359 8224 288
Width: 518
VWidth: 0
Flags: W
HStem: 512 14<115 272 300 457>
VStem: 185 14<-72 -30.2165>
DStem2: 272 507 296 507 0.17592 0.984404<-296.595 0 27.5671 27.5671>
LayerCount: 2
Fore
SplineSet
113 512 m 5
 115 526 l 5
 276 530 l 5
 319 770 l 5
 333 770 l 5
 300 530 l 5
 459 526 l 5
 457 512 l 5
 296 507 l 5
 199 -72 l 5
 185 -72 l 5
 272 507 l 5
 113 512 l 5
EndSplineSet
Validated: 1
EndChar

StartChar: daggerdbl
Encoding: 360 8225 289
Width: 443
VWidth: 0
Flags: W
HStem: 194 14<99 258 281 441> 512 14<150 307 334 491>
DStem2: 219 -72 233 -72 0.157167 0.987572<2.20034 263.886 290.215 585.635 612.593 852.596>
LayerCount: 2
Fore
SplineSet
97 194 m 1
 99 208 l 1
 262 212 l 1
 307 507 l 1
 147 512 l 1
 150 526 l 1
 310 530 l 1
 353 770 l 1
 367 770 l 1
 334 530 l 1
 494 526 l 1
 491 512 l 1
 331 507 l 1
 281 212 l 1
 443 208 l 1
 441 194 l 1
 277 189 l 1
 233 -72 l 1
 219 -72 l 1
 258 189 l 1
 97 194 l 1
EndSplineSet
Validated: 1
EndChar

StartChar: trademark
Encoding: 361 8482 290
Width: 629
VWidth: 0
Flags: W
HStem: 718 14<49 170 184 306>
DStem2: 117 383 131 383 0.156265 0.987715<2.18772 339.167> 292 383 305 383 0.228728 0.97349<2.97347 329.469> 384 732 379 701 0.276273 -0.961079<28.4121 340.243> 478 405 481 383 0.492408 0.870364<0 346.376> 639 383 651 383 0.0686059 0.997644<0.823271 317.694>
LayerCount: 2
Fore
SplineSet
47 718 m 1
 49 732 l 1
 308 732 l 1
 306 718 l 1
 184 718 l 1
 131 383 l 1
 117 383 l 1
 170 718 l 1
 47 718 l 1
292 383 m 1
 374 732 l 1
 384 732 l 1
 478 405 l 1
 663 732 l 1
 675 732 l 1
 651 383 l 1
 639 383 l 1
 660 700 l 1
 481 383 l 5
 471 383 l 1
 379 701 l 1
 305 383 l 1
 292 383 l 1
EndSplineSet
Validated: 1
EndChar

StartChar: notequal
Encoding: 362 8800 291
Width: 557
VWidth: 0
Flags: W
HStem: 212 24<129 244 262 263 281 552> 471 24<170 443 461 461 479 593>
DStem2: 178 126 196 126 0.609106 0.793089<10.9639 108.407 149.978 435.029 475.991 559.837>
LayerCount: 2
Fore
SplineSet
125 212 m 1
 129 236 l 1
 263 236 l 1
 443 471 l 1
 166 471 l 1
 170 495 l 1
 461 495 l 1
 519 570 l 1
 537 570 l 1
 479 495 l 1
 597 495 l 1
 593 471 l 1
 461 471 l 1
 281 236 l 1
 556 236 l 1
 552 212 l 1
 262 212 l 1
 196 126 l 1
 178 126 l 1
 244 212 l 1
 125 212 l 1
EndSplineSet
Validated: 1
EndChar

StartChar: infinity
Encoding: 363 8734 292
Width: 691
VWidth: 0
Flags: W
HStem: 169 24<120.861 234.394 527.754 641.28> 490 24<157.77 273.18 578.627 685.297>
LayerCount: 2
Fore
SplineSet
58 345 m 0
 72 432 89 514 228 514 c 3
 310 514 378 423 406 364 c 1
 449 419 550 514 627 514 c 7
 765 514 758 412 746 335 c 0
 731 243 703 168 576 168 c 3
 486 168 422 261 398 322 c 1
 351 251 271 169 181 169 c 3
 54 169 43 253 58 345 c 0
83 343 m 0
 67 241 91 193 182 193 c 3
 269 193 354 295 390 343 c 1
 353 414 296 490 228 490 c 3
 132 490 100 452 83 343 c 0
414 343 m 1
 445 267 503 193 576 193 c 3
 680 193 708 256 721 341 c 0
 735 430 728 490 623 490 c 3
 564 490 465 407 414 343 c 1
EndSplineSet
Validated: 33
EndChar

StartChar: lessequal
Encoding: 364 8804 293
Width: 567
VWidth: 0
Flags: W
HStem: 128 24<104 478>
DStem2: 178 434 147 425 0.83777 -0.546023<0 342.255> 150 445 178 434 0.890605 0.454777<19.9344 404.998>
LayerCount: 2
Fore
SplineSet
100 128 m 1
 104 152 l 1
 482 152 l 1
 478 128 l 1
 100 128 l 1
147 425 m 1
 150 445 l 1
 526 637 l 1
 521 609 l 1
 178 434 l 1
 464 246 l 1
 460 221 l 1
 147 425 l 1
EndSplineSet
Validated: 1
EndChar

StartChar: greaterequal
Encoding: 365 8805 294
Width: 452
VWidth: 0
Flags: W
HStem: 128 24<70 444>
DStem2: 118 249 114 221 0.879495 0.475907<0 392.897> 180 637 175 611 0.853148 -0.52167<9.29768 345.775>
LayerCount: 2
Fore
SplineSet
66 128 m 1
 70 152 l 1
 448 152 l 1
 444 128 l 1
 66 128 l 1
114 221 m 1
 118 249 l 1
 463 437 l 1
 175 611 l 5
 180 637 l 1
 494 445 l 1
 491 425 l 1
 114 221 l 1
EndSplineSet
Validated: 1
EndChar

StartChar: circumflex
Encoding: 366 710 295
Width: 334
VWidth: 0
Flags: W
HStem: 531 130
VStem: 66 272
DStem2: 66 531 84 531 0.762062 0.647504<13.7171 197.155> 240 661 227 646 0.601964 -0.798523<4.15232 152.567>
LayerCount: 2
Fore
SplineSet
66 531 m 1
 219 661 l 1
 240 661 l 1
 338 531 l 1
 321 531 l 1
 227 646 l 1
 84 531 l 1
 66 531 l 1
EndSplineSet
Validated: 1
Substitution2: "'smcp' Lowercase to Small Capitals lookup 16-1" circumflex.smcp
EndChar

StartChar: tilde
Encoding: 367 732 296
Width: 496
VWidth: 0
Flags: W
HStem: 541 16<344.232 399.729> 614 16<212.919 267.791>
LayerCount: 2
Fore
SplineSet
134 572 m 17
 173 602 210 630 249 630 c 3
 288 630 333 557 365 557 c 3
 404 557 446 591 472 610 c 9
 477 603 l 17
 438 570 404 541 362 541 c 3
 320 541 280 614 247 614 c 3
 209 614 178 590 138 564 c 9
 134 572 l 17
EndSplineSet
Validated: 1
Substitution2: "'smcp' Lowercase to Small Capitals lookup 16-1" tilde.smcp
EndChar

StartChar: ring
Encoding: 368 730 297
Width: 351
VWidth: 0
Flags: W
HStem: 530 15<196.28 263.982> 720 15<220.801 288.55>
VStem: 140 203
LayerCount: 2
Fore
SplineSet
140 632 m 4
 149 689 203 735 259 735 c 4
 315 735 352 689 343 632 c 4
 334 575 282 530 226 530 c 4
 170 530 131 575 140 632 c 4
155 632 m 28
 147 584 181 545 229 545 c 31
 277 545 321 584 329 632 c 28
 337 680 304 720 256 720 c 31
 208 720 163 680 155 632 c 28
EndSplineSet
Validated: 33
Substitution2: "'smcp' Lowercase to Small Capitals lookup 16-1" ring.smcp
EndChar

StartChar: ellipsis
Encoding: 369 8230 298
Width: 734
VWidth: 0
Flags: W
HStem: 0 86<156.352 183.719 428.394 455.719 698.394 725.719>
DStem2: 158 74 193 74 0.174691 0.984623<-72.0058 15.222> 430 74 465 74 0.174691 0.984623<-72.017 15.1991> 700 74 735 74 0.174691 0.984623<-72.017 15.1991>
LayerCount: 2
Fore
SplineSet
147 12 m 2
 158 74 l 2
 159 82 164 86 172 86 c 2
 183 86 l 2
 191 86 194 81 193 74 c 2
 182 12 l 2
 180.592 4.0625 176 0 169 0 c 2
 157 0 l 2
 150 0 145.765 5.03809 147 12 c 2
419 12 m 2
 430 74 l 2
 431 82 436 86 444 86 c 2
 456 86 l 2
 464 86 466 81 465 74 c 2
 454 12 l 2
 452.592 4.0625 448 0 441 0 c 2
 430 0 l 2
 423 0 417.765 5.03809 419 12 c 2
689 12 m 2
 700 74 l 2
 701 82 706 86 714 86 c 2
 726 86 l 2
 734 86 736 81 735 74 c 2
 724 12 l 2
 722.592 4.0625 718 0 711 0 c 2
 700 0 l 2
 693 0 687.765 5.03809 689 12 c 2
EndSplineSet
Validated: 1
EndChar

StartChar: fraction
Encoding: 370 8260 299
Width: 754
VWidth: 0
Flags: W
HStem: 0 21G<90 123.195>
DStem2: 90 0 110 0 0.550691 0.834709<11.0138 922.477>
LayerCount: 2
Fore
SplineSet
90 0 m 1
 598 770 l 1
 618 770 l 1
 110 0 l 1
 90 0 l 1
EndSplineSet
Validated: 1
EndChar

StartChar: dotlessi
Encoding: 371 305 300
Width: 165
VWidth: 0
Flags: W
HStem: 0 21G<60 87.1638> 511 20G<140.836 168>
VStem: 60 108
DStem2: 60 0 84 0 0.156249 0.987718<3.74998 537.603>
LayerCount: 2
Fore
SplineSet
60 0 m 1
 144 531 l 1
 168 531 l 5
 84 0 l 5
 60 0 l 1
EndSplineSet
Validated: 1
EndChar

StartChar: fi
Encoding: 372 64257 301
Width: 550
VWidth: 0
Flags: W
HStem: 0 21G<78 105.187 449 476.198> 502 24<186 529> 502 14<62 132 297 529> 762 24<311.676 517.719>
DStem2: 78 0 102 0 0.157265 0.987556<3.77436 508.335 536.439 675.383> 449 0 473 0 0.157916 0.987453<3.78999 508.334>
LayerCount: 2
Fore
SplineSet
60 502 m 1xb0
 62 516 l 1xb0
 162 526 l 1
 171 584 l 2
 190 702 258 786 378 786 c 0
 414 786 492 782 556 767 c 1
 554 754 l 1
 553 754 385 762 385 762 c 6
 293 766 215 711 195 584 c 2
 186 526 l 1
 556 519 l 1
 473 0 l 1
 449 0 l 1
 529 502 l 1xd0
 182 502 l 1
 102 0 l 1
 78 0 l 1
 158 502 l 1
 60 502 l 1xb0
EndSplineSet
Validated: 33
Ligature2: "'liga' Standard Ligatures lookup 15-1" f i
LCarets2: 1 0 
EndChar

StartChar: fl
Encoding: 373 64258 302
Width: 697
VWidth: 0
Flags: W
HStem: 3 13<637.594 679> 507 24<218 361> 507 14<94 164> 762 24<341.435 610>
DStem2: 110 0 134 0 0.155615 0.987818<3.73476 513.273 541.338 675.355> 519 192 543 192 0.156304 0.987709<-89.3856 577.218>
LayerCount: 2
Fore
SplineSet
92 507 m 1xb0
 94 521 l 1xb0
 194 531 l 1
 202 584 l 2
 219 692 278 786 398 786 c 1
 637 786 l 1
 543 192 l 2
 518 35 580 31 609 27 c 2
 609 27 674 16 681 16 c 1
 679 3 l 1
 615 3 l 6
 531 3 498 60 519 192 c 2
 610 762 l 1
 400 762 l 2
 320 762 246 710 226 584 c 2
 218 531 l 1
 365 531 l 1
 361 507 l 1xd0
 214 507 l 1
 134 0 l 1
 110 0 l 1
 190 507 l 1
 92 507 l 1xb0
EndSplineSet
Validated: 33
Ligature2: "'liga' Standard Ligatures lookup 15-1" f l
LCarets2: 1 0 
EndChar

StartChar: exclamdown.alt
Encoding: 374 -1 303
Width: 300
VWidth: 0
Flags: W
HStem: 0 21G<92 116.985>
VStem: 92 142
DStem2: 199 720 234 720 0.172001 0.985097<-74.1229 13.0639>
LayerCount: 2
Fore
SplineSet
92 0 m 5
 182 536 l 5
 194 536 l 5
 114 0 l 5
 92 0 l 5
188 657 m 6
 199 720 l 6
 200.387 727.943 205 730 212 730 c 6
 224 730 l 6
 231 730 235.216 726.966 234 720 c 6
 223 657 l 6
 222 649 217 644 209 644 c 6
 198 644 l 6
 190 644 187 650 188 657 c 6
EndSplineSet
Validated: 1
EndChar

StartChar: ampersand.salt
Encoding: 375 -1 304
Width: 927
VWidth: 0
Flags: W
HStem: 0 24<286.753 610.273> 178 24<145.753 213 241 570.616> 368 24<331.17 592.528> 508 24<222.065 796 824 929.9> 518 14<867.1 977>
VStem: 213 24<66.2605 178 202 237.056> 833 14<648.606 680>
DStem2: 89 288 113 286 0.150442 0.988619<-44.0365 162.237> 745 187 769 187 0.156271 0.987714<-67.471 325.026 353.107 353.107>
LayerCount: 2
Fore
SplineSet
89 288 m 2xf6
 103 380 l 2
 124 517 208 532 342 532 c 1xf6
 800 532 l 1xee
 833 680 l 1
 847 680 l 1
 824 532 l 1xf6
 979 532 l 1
 977 518 l 1xee
 820 508 l 1
 769 187 l 2
 742 17 613 0 510 0 c 2
 377 0 l 4
 266 0 192 19 213 178 c 1
 152 178 74 193 89 288 c 2xf6
113 286 m 1
 101 211 162 202 216 202 c 1
 239 329 284 392 395 392 c 2
 524 392 l 2
 585 392 651 391 634 283 c 0
 618 185 574 178 489 178 c 2
 237 178 l 1
 219 44 270 24 376 24 c 1
 502 24 l 2
 609 24 723 46 745 187 c 2
 796 508 l 1
 336 508 l 0
 206 506 143 491 126 372 c 1
 113 286 l 1
241 202 m 1
 493 202 l 2
 572 202 599 214 610 286 c 0
 621 358 595 368 520 368 c 2
 391 368 l 2
 319 368 262 336 241 202 c 1
EndSplineSet
Validated: 33
EndChar

StartChar: a.superior
Encoding: 376 -1 305
Width: 414
VWidth: 0
Flags: W
HStem: 364 20<168.178 277.562>
VStem: 374 13<369 412.346>
DStem2: 420 688 439 691 0.159425 0.98721<-261.184 2.30395>
LayerCount: 2
Fore
SplineSet
116 553 m 0
 139 703 213 732 266 735 c 0
 316 738 405 724 439 691 c 1
 387 369 l 1
 374 369 l 1
 377 423 l 17
 357 404 280 364 218 364 c 3
 143 364 93 400 116 553 c 0
134 549 m 0
 113 409 158 384 216 384 c 3
 264 384 334 407 379 437 c 1
 420 688 l 1
 386 704 334 716 276 716 c 0
 202 716 152 666 134 549 c 0
EndSplineSet
Validated: 33
EndChar

StartChar: b.superior
Encoding: 377 -1 306
Width: 428
VWidth: 0
Flags: W
HStem: 374 18<227.674 322.214> 721 18<263.107 380.226>
DStem2: 119 378 148 447 0.156447 0.987686<1.87736 58.5468 68.2315 329.237 337.875 530.533>
LayerCount: 2
Fore
SplineSet
119 378 m 1
 202 902 l 1
 220 902 l 1
 189 709 l 1
 240 729 304 739 338 739 c 3
 452 739 445 639 431 548 c 4
 418 466 385 374 276 374 c 3
 206 374 162 417 146 433 c 9
 131 378 l 1
 119 378 l 1
148 447 m 1
 174 428 219 392 278 392 c 3
 353 392 396 448 413 554 c 0
 433 679 412 721 332 721 c 3
 274 721 233 708 188 697 c 1
 148 447 l 1
EndSplineSet
Validated: 33
Ligature2: "'ordn' Ordinals lookup 21-1" b
EndChar

StartChar: c.superior
Encoding: 378 -1 307
Width: 366
VWidth: 0
Flags: W
HStem: 373 18<186.564 329.026> 719 18<234.217 374.542>
LayerCount: 2
Fore
SplineSet
132 558 m 0
 157 713 215 737 292 737 c 3
 331 737 375 729 421 718 c 1
 419 706 l 1
 419 706 331 719 288 719 c 3
 221 719 173 697 150 553 c 0
 131 436 155 391 237 391 c 3
 315 391 377 407 377 407 c 1
 375 395 l 17
 335 381 296 373 234 373 c 4
 162 373 107 402 132 558 c 0
EndSplineSet
Validated: 33
Ligature2: "'ordn' Ordinals lookup 21-1" c
EndChar

StartChar: d.superior
Encoding: 379 -1 308
Width: 411
VWidth: 0
Flags: W
HStem: 374 18<192.074 286.452> 721 18<233.504 356.576>
VStem: 378 12<378 422.193>
DStem2: 383 447 390 378 0.156447 0.987686<-7.18572 253.882 265.188 460.661>
LayerCount: 2
Fore
SplineSet
134 562 m 0
 148 653 171 739 285 739 c 3
 319 739 379 729 424 709 c 1
 455 902 l 1
 473 902 l 1
 390 378 l 1
 378 378 l 1
 380 433 l 17
 358 417 301 374 231 374 c 3
 122 374 121 480 134 562 c 0
152 554 m 4
 136 448 160 392 235 392 c 3
 294 392 351 428 383 447 c 1
 422 697 l 1
 381 708 343 721 285 721 c 3
 205 721 171 679 152 554 c 4
EndSplineSet
Validated: 33
Ligature2: "'ordn' Ordinals lookup 21-1" d
EndChar

StartChar: e.superior
Encoding: 380 -1 309
Width: 440
VWidth: 0
Flags: W
HStem: 366 18<180.588 347.962> 720 18<256.716 392.658>
LayerCount: 2
Fore
SplineSet
133 560 m 0
 152 678 193 738 325 738 c 3
 416 738 469 715 455 628 c 4
 431 481 173 529 148 539 c 1
 130 400 175 384 222 384 c 1
 274 380 347 386 400 394 c 1
 400 386 l 17
 343 370 280 366 223 366 c 0
 136 366 112 427 133 560 c 0
150 548 m 0
 150 548 410 498 436 628 c 0
 446 680 431 720 322 720 c 3
 177 720 163 627 150 548 c 0
EndSplineSet
Validated: 33
Ligature2: "'ordn' Ordinals lookup 21-1" e
EndChar

StartChar: f.superior
Encoding: 381 -1 310
Width: 292
VWidth: 0
Flags: W
HStem: 694 17<216 345> 694 8<122 181.111> 885 18<279.758 407>
VStem: 121 288
DStem2: 145 378 163 378 0.155238 0.987877<2.79428 319.931 339.985 475.829>
LayerCount: 2
Fore
SplineSet
121 694 m 1x70
 122 702 l 1x70
 198 711 l 1
 211 798 l 2
 217 834 233 903 323 903 c 0
 360 903 379 901 409 897 c 1
 407 885 l 1
 325 885 l 6
 268 885 239 856 229 796 c 2
 216 711 l 1
 348 711 l 1
 345 694 l 1xb0
 213 694 l 9
 163 378 l 17
 145 378 l 1
 195 694 l 1
 121 694 l 1x70
EndSplineSet
Validated: 1
Ligature2: "'ordn' Ordinals lookup 21-1" f
EndChar

StartChar: g.superior
Encoding: 382 -1 311
Width: 369
VWidth: 0
Flags: W
HStem: 364 18<186.549 298.635> 716 18<239.498 418.453>
DStem2: 100 223 98 210 0.998053 -0.0623783<0 196.896> 362 310 381 309 0.157804 0.98747<-59.015 84.1693 93.6062 406.233>
LayerCount: 2
Fore
SplineSet
98 210 m 5
 100 223 l 5
 260 213 l 6
 313 210 352 238 362 310 c 6
 376 393 l 1
 331 376 257 364 227 364 c 3
 125 364 116 456 134 559 c 0
 154 670 202 734 285 734 c 3
 355 734 416 725 447 722 c 1
 381 309 l 6
 368 227 325 188 254 195 c 6
 98 210 l 5
152 555 m 0
 132 438 153 382 230 382 c 3
 279 382 321 390 378 407 c 1
 427 711 l 2
 288 716 l 2
 211 719 169 656 152 555 c 0
EndSplineSet
Validated: 33
Ligature2: "'ordn' Ordinals lookup 21-1" g
EndChar

StartChar: h.superior
Encoding: 383 -1 312
Width: 451
VWidth: 0
Flags: W
HStem: 721 18<296.536 397.768>
VStem: 127 325
DStem2: 127 378 145 378 0.156738 0.98764<2.82129 307.943 313.707 529.545> 395 378 413 378 0.155963 0.987763<2.80733 295.123>
LayerCount: 2
Fore
SplineSet
127 378 m 1
 210 901 l 1
 228 901 l 1
 194 685 l 1
 231 709 296 739 357 739 c 3
 439 739 461 684 452 625 c 2
 413 378 l 9
 395 378 l 17
 434 625 l 6
 444 689 414 721 352 721 c 3
 290 721 236 696 192 674 c 1
 145 378 l 1
 127 378 l 1
EndSplineSet
Validated: 33
Ligature2: "'ordn' Ordinals lookup 21-1" h
EndChar

StartChar: i.superior
Encoding: 384 -1 313
Width: 175
VWidth: 0
Flags: W
HStem: 782 56<189.516 214.617>
VStem: 125 93
DStem2: 125 378 143 378 0.145748 0.989322<2.62347 360.36 419.13 465.944>
LayerCount: 2
Fore
SplineSet
125 378 m 1
 181 734 l 1
 199 734 l 1
 143 378 l 1
 125 378 l 1
186 793 m 2
 191 826 l 2
 192 834 197 838 205 838 c 2
 209 838 l 2
 217 838 219 833 218 826 c 2
 213 793 l 2
 212 785 207 782 200 782 c 2
 196 782 l 2
 189 782 185 786 186 793 c 2
EndSplineSet
Validated: 1
Ligature2: "'ordn' Ordinals lookup 21-1" i
EndChar

StartChar: j.superior
Encoding: 385 -1 314
Width: 160
VWidth: 0
Flags: W
HStem: 713 20G<177.834 200> 782 56<190.516 215.617>
VStem: 96 8<196 208.485>
DStem2: 96 196 143 375 0.150642 0.988588<19.3849 543.677 603.567 650.629>
LayerCount: 2
Fore
SplineSet
96 196 m 1
 181 733 l 1
 200 733 l 1
 143 375 l 2
 135 317 119 248 104 196 c 1
 96 196 l 1
187 793 m 6
 192 826 l 6
 193 834 198 838 206 838 c 6
 210 838 l 6
 218 838 220 833 219 826 c 6
 214 793 l 6
 213 785 208 782 201 782 c 6
 197 782 l 6
 190 782 186 786 187 793 c 6
EndSplineSet
Validated: 1
Ligature2: "'ordn' Ordinals lookup 21-1" j
EndChar

StartChar: k.superior
Encoding: 386 -1 315
Width: 339
VWidth: 0
Flags: W
HStem: 556 19<176 214.887>
VStem: 127 299
DStem2: 127 378 145 378 0.157325 0.987547<2.83185 185.573 202.256 527.57> 277 591 261 584 0.503349 -0.864083<0 227.833>
LayerCount: 2
Fore
SplineSet
127 378 m 1
 210 899 l 1
 228 899 l 1
 176 575 l 1
 251 581 386 676 407 739 c 1
 426 739 l 1
 408 685 343 629 277 591 c 1
 397 385 l 1
 376 385 l 1
 261 584 l 1
 241 571 192 558 173 556 c 1
 145 378 l 1
 127 378 l 1
EndSplineSet
Validated: 1
Ligature2: "'ordn' Ordinals lookup 21-1" k
EndChar

StartChar: l.superior
Encoding: 387 -1 316
Width: 288
VWidth: 0
Flags: W
HStem: 378 10<236.25 292>
DStem2: 146 504 164 504 0.157115 0.98758<-56.0423 400.98>
LayerCount: 2
Fore
SplineSet
146 504 m 2
 209 900 l 1
 227 900 l 1
 164 504 l 2
 150 418 181 402 228 396 c 2
 294 388 l 1
 292 378 l 1
 229 378 l 6
 155 378 133 424 146 504 c 2
EndSplineSet
Validated: 33
Ligature2: "'ordn' Ordinals lookup 21-1" l
EndChar

StartChar: m.superior
Encoding: 388 -1 317
Width: 691
VWidth: 0
Flags: W
HStem: 712 20G<171.836 193> 721 18<288.066 391.667 537.859 641.549>
DStem2: 119 378 137 378 0.156249 0.987718<2.81248 307.941 313.698 358.402> 387 378 405 378 0.155963 0.987763<2.80733 295.703> 637 378 655 378 0.155963 0.987763<2.80733 295.123>
LayerCount: 2
Fore
SplineSet
119 378 m 1x40
 175 732 l 1
 193 732 l 1x80
 186 685 l 1
 223 709 288 739 349 739 c 3
 400 739 428 718 440 688 c 1
 477 712 540 739 599 739 c 3
 681 739 703 684 694 625 c 2
 655 378 l 1
 637 378 l 1
 676 625 l 2
 686 689 653 721 600 721 c 3
 542 721 482 698 443 678 c 1
 447 662 447 644 444 625 c 2
 405 378 l 1
 387 378 l 1
 426 625 l 2
 436 689 403 721 350 721 c 3
 288 721 228 696 184 674 c 1
 137 378 l 1
 119 378 l 1x40
EndSplineSet
Validated: 33
Ligature2: "'ordn' Ordinals lookup 21-1" m
EndChar

StartChar: n.superior
Encoding: 389 -1 318
Width: 451
VWidth: 0
Flags: W
HStem: 712 20G<179.836 201> 721 18<296.865 397.618>
VStem: 127 325
DStem2: 127 378 145 378 0.156249 0.987718<2.81248 307.934 313.698 358.402> 395 378 413 378 0.155963 0.987763<2.80733 292.676>
LayerCount: 2
Fore
SplineSet
127 378 m 1x60
 183 732 l 1
 201 732 l 1xa0
 194 685 l 1
 231 709 296 739 357 739 c 3
 439 739 461 684 452 625 c 2
 413 378 l 9
 395 378 l 17
 434 625 l 2
 444 687 407 721 360 721 c 31
 292 721 236 696 192 674 c 1
 145 378 l 1
 127 378 l 1x60
EndSplineSet
Validated: 33
Ligature2: "'ordn' Ordinals lookup 21-1" n
EndChar

StartChar: o.superior
Encoding: 390 -1 319
Width: 436
VWidth: 0
Flags: W
HStem: 372 18<196.83 337.805> 720 18<240.405 376.543>
LayerCount: 2
Fore
SplineSet
131 547 m 0
 149 685 187 738 311 738 c 3
 438 738 460 682 441 550 c 0
 422 418 397 372 264 372 c 7
 141 372 115 426 131 547 c 0
149 550 m 0
 128 419 172 390 261 390 c 3
 392 390 403 434 423 550 c 0
 445 679 416 720 314 720 c 3
 200 720 170 683 149 550 c 0
EndSplineSet
Validated: 33
EndChar

StartChar: p.superior
Encoding: 391 -1 320
Width: 413
VWidth: 0
Flags: W
HStem: 367 17<210.324 319.525> 722 17<200.188 368.826>
DStem2: 98 194 116 194 0.15634 0.987703<2.81413 208.321 217.86 537.454>
LayerCount: 2
Fore
SplineSet
98 194 m 9
 183 731 l 1
 229 740 273 739 331 739 c 27
 416 739 459 664 441 550 c 0
 426 457 387 367 272 367 c 3
 238 367 193 377 148 397 c 1
 116 194 l 17
 98 194 l 9
150 407 m 1
 210 393 212 384 268 384 c 3
 360 384 406 448 423 556 c 0
 439 660 411 722 322 722 c 2
 200 722 l 25
 150 407 l 1
EndSplineSet
Validated: 33
Ligature2: "'ordn' Ordinals lookup 21-1" p
EndChar

StartChar: q.superior
Encoding: 392 -1 321
Width: 427
VWidth: 0
Flags: W
HStem: 367 17<209.799 312.386> 722 17<263.325 432.563>
DStem2: 350 194 368 194 0.15634 0.987703<2.81413 205.507 212.436 534.64>
LayerCount: 2
Fore
SplineSet
139 561 m 4
 157 675 213 739 307 739 c 3
 387 739 411 739 453 731 c 1
 368 194 l 17
 350 194 l 9
 382 397 l 1
 331 377 282 367 248 367 c 3
 133 367 124 468 139 561 c 4
157 556 m 0
 140 448 166 384 258 384 c 3
 314 384 320 393 384 407 c 1
 434 722 l 2
 312 722 l 2
 225 722 173 660 157 556 c 0
EndSplineSet
Validated: 33
Ligature2: "'ordn' Ordinals lookup 21-1" q
EndChar

StartChar: r.superior
Encoding: 393 -1 322
Width: 313
VWidth: 0
Flags: W
HStem: 718 18<288.311 402.75>
VStem: 175 8<687.75 732>
LayerCount: 2
Fore
SplineSet
119 378 m 1
 175 732 l 1
 183 732 l 1
 185 681 l 1
 224 704 285 736 350 736 c 27
 372 736 397 734 405 730 c 1
 402 714 l 1
 393 716 369 718 347 718 c 27
 283 718 236 696 183 671 c 1
 137 378 l 1
 119 378 l 1
EndSplineSet
Validated: 1
Ligature2: "'ordn' Ordinals lookup 21-1" r
EndChar

StartChar: s.superior
Encoding: 394 -1 323
Width: 374
VWidth: 0
Flags: W
HStem: 367 19<171.4 332.68> 544 18<155.785 361.614> 721 8<371.988 409> 724 18<195.814 369.264>
VStem: 111 299
LayerCount: 2
Fore
SplineSet
111 383 m 9xd8
 112 391 l 17
 276 386 l 2
 309 385 358 383 371 463 c 2
 375 488 l 2
 382 533 363 544 312 544 c 10
 212 544 l 2
 149 544 120 549 131 620 c 14
 136 656 l 18
 145 713 176 742 246 742 c 3xd8
 282 742 375 733 410 729 c 9
 409 721 l 17xe8
 250 724 l 2
 179 725 161 696 153 643 c 10
 149 619 l 18
 140 563 156 562 215 562 c 2
 316 562 l 2
 375 562 401 541 393 488 c 1
 387 451 l 2
 376 381 328 367 284 367 c 3
 250 367 137 380 111 383 c 9xd8
EndSplineSet
Validated: 33
Ligature2: "'ordn' Ordinals lookup 21-1" s
EndChar

StartChar: t.superior
Encoding: 395 -1 324
Width: 233
VWidth: 0
Flags: W
HStem: 379 8<246 301> 716 18<216 325> 716 8<122 188.5>
VStem: 224 8<805.808 833>
DStem2: 161 503 179 502 0.158107 0.987422<-60.2204 215.697>
LayerCount: 2
Fore
SplineSet
121 716 m 1xb0
 122 724 l 1xb0
 198 732 l 1
 224 833 l 1
 232 833 l 1
 216 734 l 1
 328 734 l 1
 325 716 l 1xd0
 213 716 l 1
 179 502 l 2
 167 429 183 400 246 393 c 2
 302 387 l 1
 301 379 l 1
 246 379 l 6
 175 379 146 411 161 503 c 2
 195 716 l 1
 121 716 l 1xb0
EndSplineSet
Validated: 33
Ligature2: "'ordn' Ordinals lookup 21-1" t
EndChar

StartChar: u.superior
Encoding: 396 -1 325
Width: 448
VWidth: 0
Flags: W
HStem: 378 18<187.249 287.954>
VStem: 129 325
DStem2: 129 492 147 492 0.155963 0.987763<-39.7223 250.06> 380 385 398 385 0.156249 0.987718<2.81248 47.5165 53.2894 358.402>
LayerCount: 2
Fore
SplineSet
129 492 m 2
 168 739 l 9
 186 739 l 17
 147 492 l 2
 137 430 177 396 229 396 c 7
 294 396 345 421 389 443 c 1
 436 739 l 1
 454 739 l 1
 398 385 l 1
 380 385 l 1
 387 432 l 1
 350 408 289 378 228 378 c 3
 146 378 120 433 129 492 c 2
EndSplineSet
Validated: 33
Ligature2: "'ordn' Ordinals lookup 21-1" u
EndChar

StartChar: v.superior
Encoding: 397 -1 326
Width: 363
VWidth: 0
Flags: W
HStem: 712 20G<130 154.921 435 448>
VStem: 436 9<710.115 732>
DStem2: 149 732 130 732 0.284365 -0.958716<0 345.203> 247 401 256 378 0.517519 0.855671<0 370.292>
LayerCount: 2
Fore
SplineSet
130 732 m 25
 149 732 l 17
 247 401 l 1
 416 677 l 6
 427 695 434 711 436 732 c 13
 445 732 l 21
 451 716 446 690 432 669 c 5
 256 378 l 9
 235 378 l 25
 130 732 l 25
EndSplineSet
Validated: 33
Ligature2: "'ordn' Ordinals lookup 21-1" v
EndChar

StartChar: w.superior
Encoding: 398 -1 327
Width: 580
VWidth: 0
Flags: W
HStem: 712 20G<130 155.861 432 445 651 664>
VStem: 433 9<710.695 732> 652 9<710.572 732>
DStem2: 150 732 130 732 0.284365 -0.958716<0 344.918> 247 401 256 378 0.511016 0.859571<0 235.558 258.533 369.139> 398 612 385 593 0.289389 -0.957211<14.425 221.45> 462 400 471 378 0.519668 0.854369<0 371.066>
LayerCount: 2
Fore
SplineSet
130 732 m 1
 150 732 l 1
 247 401 l 1
 413 678 l 2
 424 697 431 711 433 732 c 9
 442 732 l 17
 448 716 443 690 429 669 c 1
 398 612 l 1
 462 400 l 1
 632 677 l 2
 643 696 650 711 652 732 c 9
 661 732 l 17
 667 716 662 690 648 669 c 1
 471 378 l 1
 450 378 l 1
 385 593 l 1
 256 378 l 1
 235 378 l 1
 130 732 l 1
EndSplineSet
Validated: 33
Ligature2: "'ordn' Ordinals lookup 21-1" w
EndChar

StartChar: x.superior
Encoding: 399 -1 328
Width: 314
VWidth: 0
Flags: W
HStem: 712 20G<132 165.298 384.242 426>
DStem2: 74 378 97 378 0.680768 0.732499<15.6577 239.264 262.549 483.277> 153 732 132 732 0.522619 -0.852567<0 189.002 212.159 403.719>
LayerCount: 2
Fore
SplineSet
74 378 m 1
 239 558 l 5
 132 732 l 1
 153 732 l 1
 252 571 l 1
 403 732 l 1
 426 732 l 1
 262 555 l 1
 370 378 l 1
 348 378 l 1
 249 542 l 5
 97 378 l 1
 74 378 l 1
EndSplineSet
Validated: 1
Ligature2: "'ordn' Ordinals lookup 21-1" x
EndChar

StartChar: y.superior
Encoding: 400 -1 329
Width: 426
VWidth: 0
Flags: W
HStem: 165 13<132 146.391> 713 20G<164 189.111 497.5 513.5>
DStem2: 185 733 164 733 0.200396 -0.979715<0 308.927> 325 389 342 380 0.473535 0.880775<-125.476 0 17.0347 375.381>
LayerCount: 2
Fore
SplineSet
131 165 m 0
 132 178 l 0
 235 211 325 389 325 389 c 0
 301 382 235 386 218 469 c 2
 164 733 l 1
 185 733 l 1
 237 480 l 2
 254 397 307 406 337 410 c 1
 475 668 l 2
 485 686 495 705 500 732 c 9
 510 732 l 17
 517 710 502 680 492 659 c 1
 342 380 l 18
 254 216 181 173 131 165 c 0
EndSplineSet
Validated: 33
Ligature2: "'ordn' Ordinals lookup 21-1" y
EndChar

StartChar: z.superior
Encoding: 401 -1 330
Width: 369
VWidth: 0
Flags: W
HStem: 379 14<130 378.433> 718 14<154 408>
VStem: 109 325
DStem2: 111 393 130 393 0.67522 0.737616<12.8292 440.266>
LayerCount: 2
Fore
SplineSet
109 379 m 25
 111 393 l 25
 408 718 l 21
 152 718 l 17
 154 732 l 25
 434 732 l 25
 433 724 l 25
 130 393 l 17
 379 393 l 17
 380 392 377 379 377 379 c 25
 109 379 l 25
EndSplineSet
Validated: 1
Ligature2: "'ordn' Ordinals lookup 21-1" z
EndChar

StartChar: zero.tnum
Encoding: 402 -1 331
Width: 622
VWidth: 0
Flags: W
HStem: 0 24<167.089 438.415> 708 24<272.501 542.755>
DStem2: 83 162 107 162 0.15733 0.987546<-54.7638 478.678> 532 162 556 162 0.15733 0.987546<-70.394 476.429>
LayerCount: 2
Fore
SplineSet
83 162 m 10
 148 570 l 2
 165 678 250 732 345 732 c 2
 479 732 l 2
 601 732 635 661 621 570 c 26
 556 162 l 18
 537 43 462 0 363 0 c 2
 229 0 l 2
 138 0 64 42 83 162 c 10
107 162 m 2
 93 70 143 24 233 24 c 10
 367 24 l 18
 471 24 519 77 532 162 c 2
 597 570 l 2
 611 660 571 708 475 708 c 2
 341 708 l 2
 252 708 186 658 172 570 c 2
 107 162 l 2
EndSplineSet
Substitution2: "'onum' Oldstyle Figures in Latin lookup 5-1" zero.tosf
Substitution2: "'lnum' Lining Figures lookup 19-1" zero
EndChar

StartChar: one.tnum
Encoding: 403 -1 332
Width: 622
VWidth: 0
Flags: W
HStem: 0 18<158 336 360 525> 625 15<221 274.252> 712 20G<399.435 471>
DStem2: 336 18 360 18 0.153617 0.98813<3.68681 692.625>
LayerCount: 2
Fore
SplineSet
155 0 m 1
 158 18 l 1
 336 18 l 1
 445 702 l 1
 411 679 313 625 217 625 c 1
 221 640 l 1
 321 640 449 732 449 732 c 1
 471 732 l 1
 360 18 l 1
 528 18 l 1
 525 0 l 1
 155 0 l 1
EndSplineSet
Substitution2: "'onum' Oldstyle Figures in Latin lookup 5-1" one.tosf
Substitution2: "'lnum' Lining Figures lookup 19-1" one
EndChar

StartChar: two.tnum
Encoding: 404 -1 333
Width: 622
VWidth: 0
Flags: W
HStem: 0 24<108 533> 717 25<257.273 520.354> 717 15<172 257.273>
LayerCount: 2
Fore
SplineSet
63 0 m 25xc0
 67 23 l 17
 177 102 563 366 591 532 c 0
 615 674 551 717 438 717 c 2xc0
 170 717 l 2
 172 732 l 1xa0
 277 745 397 742 448 742 c 3
 596 742 638 655 617 530 c 0
 586 344 165 63 108 24 c 9
 537 24 l 25
 533 0 l 25
 63 0 l 25xc0
EndSplineSet
Substitution2: "'onum' Oldstyle Figures in Latin lookup 5-1" two.tosf
Substitution2: "'lnum' Lining Figures lookup 19-1" two
EndChar

StartChar: three.tnum
Encoding: 405 -1 334
Width: 622
VWidth: 0
Flags: W
HStem: -7 25<160.037 424.504> 4 14<77 147.336> 352 27<194 466.266> 359 14<194 404> 710 24<284.17 532.579> 710 14<182 241.321>
DStem2: 526 166 552 161 0.154968 0.98792<-75.3909 113.197 281.449 480.521>
LayerCount: 2
Fore
SplineSet
74 4 m 1x40
 77 18 l 1x40
 350 18 l 2
 429 18 507 49 526 166 c 2
 535 225 l 2
 551 325 461 350 404 352 c 2xa0
 192 359 l 2
 194 373 l 1x10
 408 379 l 1
 486 380 569 419 582 504 c 2
 592 573 l 2
 608 672 548 710 466 710 c 2x28
 180 710 l 1
 182 724 l 1x04
 244 735 357 736 474 734 c 0
 593 732 631 661 616 569 c 2
 606 500 l 2
 589 395 494 367 464 365 c 1
 495 360 577 324 561 220 c 1
 552 161 l 2
 535 52 470 -7 348 -7 c 0x88
 234 -7 112 -4 74 4 c 1x40
EndSplineSet
Substitution2: "'onum' Oldstyle Figures in Latin lookup 5-1" three.tosf
Substitution2: "'lnum' Lining Figures lookup 19-1" three
EndChar

StartChar: four.tnum
Encoding: 406 -1 335
Width: 522
VWidth: 0
Flags: W
HStem: 2 21G<410 437.143> 212 24<69 443 471 531.4> 222 14<494.6 559> 712 20G<409.444 452>
DStem2: 40 237 69 236 0.613941 0.789352<17.0149 627.096> 410 2 434 2 0.155869 0.987778<3.74087 212.577 240.648 553.302>
LayerCount: 2
Fore
SplineSet
40 237 m 5xd0
 425 732 l 5
 452 732 l 5
 69 236 l 5xd0
 447 236 l 5xb0
 484 472 l 5
 506 547 l 5
 520 547 l 5
 471 236 l 5xd0
 561 236 l 5
 559 222 l 5xb0
 467 212 l 5
 434 2 l 5
 410 2 l 5
 443 212 l 5
 48 212 l 5
 40 237 l 5xd0
EndSplineSet
Substitution2: "'onum' Oldstyle Figures in Latin lookup 5-1" four.tosf
Substitution2: "'lnum' Lining Figures lookup 19-1" four
EndChar

StartChar: five.tnum
Encoding: 407 -1 336
Width: 622
VWidth: 0
Flags: W
HStem: -4 24<209.853 456.321> 6 14<100 178.403> 407 24<263.203 531.532> 708 24<255 655>
DStem2: 143 282 184 365 0.20239 0.979305<89.5803 439.852> 567 168 590 166 0.159546 0.98719<-62.1916 164.555>
LayerCount: 2
Fore
SplineSet
98 6 m 5x70
 100 20 l 5x70
 397 20 l 6
 467 20 551 68 567 168 c 6
 582 263 l 6
 590 313 596 407 470 407 c 6
 317 407 l 6
 249 407 177 348 167 282 c 5
 143 282 l 5
 236 732 l 21
 659 732 l 5
 655 708 l 5
 255 708 l 29
 184 365 l 5
 195 380 240 431 317 431 c 4
 390 431 438 431 469 431 c 4
 587 431 621 362 606 265 c 6
 590 166 l 6
 568 29 462 -4 400 -4 c 7xb0
 276 -4 168 -4 98 6 c 5x70
EndSplineSet
Substitution2: "'onum' Oldstyle Figures in Latin lookup 5-1" five.tosf
Substitution2: "'lnum' Lining Figures lookup 19-1" five
EndChar

StartChar: six.tnum
Encoding: 408 -1 337
Width: 622
VWidth: 0
Flags: W
HStem: -1 24<223.262 463.688> 380 25<252.66 520.858> 714 24<320.586 556.973> 714 15<504.922 636>
DStem2: 545 146 570 148 0.116246 0.99322<-58.4896 189.755>
LayerCount: 2
Fore
SplineSet
140 384 m 0xe0
 181 642 276 738 368 738 c 0xe0
 469 738 578 736 638 729 c 1
 636 714 l 1xd0
 370 714 l 2
 243 714 183 506 165 394 c 1
 252 404 367 405 441 405 c 0
 575 405 601 341 588 259 c 2
 570 148 l 2
 552 36 494 -1 400 -1 c 2
 276 -1 l 2
 167 -1 92 81 140 384 c 0xe0
163 380 m 1
 138 224 131 23 275 23 c 2
 394 23 l 2
 456 23 528 42 545 146 c 2
 562 252 l 2
 579 357 529 380 445 380 c 2
 163 380 l 1
EndSplineSet
Substitution2: "'onum' Oldstyle Figures in Latin lookup 5-1" six.tosf
Substitution2: "'lnum' Lining Figures lookup 19-1" six
EndChar

StartChar: seven.tnum
Encoding: 409 -1 338
Width: 622
VWidth: 0
Flags: W
HStem: 0 21G<257 294.873> 708 24<185 607>
DStem2: 257 0 285 0 0.442655 0.896692<12.3943 789.787>
LayerCount: 2
Fore
SplineSet
181 708 m 5
 185 732 l 5
 623 732 l 5
 635 709 l 5
 285 0 l 5
 257 0 l 5
 607 708 l 5
 181 708 l 5
EndSplineSet
Substitution2: "'onum' Oldstyle Figures in Latin lookup 5-1" seven.tosf
Substitution2: "'lnum' Lining Figures lookup 19-1" seven
EndChar

StartChar: eight.tnum
Encoding: 410 -1 339
Width: 622
VWidth: 0
Flags: W
HStem: 0 24<189.864 432.213> 362 23<220.556 509.101> 713 24<281.702 541.281>
DStem2: 100 154 124 151 0.151701 0.988426<-54.32 152.006 291.971 498.242> 527 151 554 154 0.160893 0.986972<-59.7492 163.693 299.407 489.153>
LayerCount: 2
Fore
SplineSet
100 154 m 6
 115 253 l 6
 127 329 194 366 233 366 c 5
 149 381 146 453 154 506 c 6
 164 571 l 6
 185 705 258 737 361 737 c 6
 477 737 l 6
 589 737 637 680 618 557 c 6
 608 492 l 6
 599 438 554 384 497 380 c 5
 564 360 579 315 569 252 c 6
 554 154 l 6
 533 24 437 0 373 0 c 6
 258 0 l 6
 86 0 94 113 100 154 c 6
124 151 m 6
 109 58 177 24 262 24 c 6
 370 24 l 6
 431 24 512 55 527 151 c 6
 544 256 l 6
 561 362 483 362 433 362 c 6
 300 362 l 6
 254 362 154 338 141 256 c 6
 124 151 l 6
177 494 m 6
 161 393 235 385 301 385 c 6
 430 385 l 6
 527 385 576 448 583 494 c 6
 594 562 l 6
 611 672 566 713 473 713 c 6
 359 713 l 6
 250 713 202 666 187 562 c 6
 177 494 l 6
EndSplineSet
Substitution2: "'onum' Oldstyle Figures in Latin lookup 5-1" eight.tosf
Substitution2: "'lnum' Lining Figures lookup 19-1" eight
EndChar

StartChar: nine.tnum
Encoding: 411 -1 340
Width: 622
VWidth: 0
Flags: W
HStem: -6 24<178.322 415.414> 3 15<99 230.649> 327 25<215.205 475.987> 709 24<272.297 516.581>
DStem2: 147 478 171 473 0.148768 0.988872<-63.6482 173.125>
LayerCount: 2
Fore
SplineSet
97 3 m 5x70
 99 18 l 5x70
 365 18 l 6
 495 18 552 226 570 338 c 5
 483 328 361 327 287 327 c 4
 153 327 134 396 147 478 c 6
 165 589 l 6
 183 701 255 733 349 733 c 6
 465 733 l 6
 574 733 644 642 596 339 c 4
 555 81 460 -6 368 -6 c 4xb0
 267 -6 157 -4 97 3 c 5x70
171 473 m 6
 154 368 219 352 295 352 c 6
 572 352 l 5
 597 508 608 709 465 709 c 6
 345 709 l 6
 283 709 204 690 188 586 c 6
 171 473 l 6
EndSplineSet
Substitution2: "'onum' Oldstyle Figures in Latin lookup 5-1" nine.tosf
Substitution2: "'lnum' Lining Figures lookup 19-1" nine
EndChar

StartChar: zero.tosf
Encoding: 412 -1 341
Width: 622
VWidth: 0
Flags: W
HStem: 0 24<167.078 438.205> 607 24<255.946 523.939>
DStem2: 82.79 162 106.79 162 0.154475 0.987997<-58.8054 375.503> 531.79 162 555.79 162 0.154475 0.987997<-69.1951 375.645>
LayerCount: 2
Fore
SplineSet
82.79 162 m 10
 130.79 469 l 2
 147.79 577 228.79 631 323.79 631 c 2
 457.79 631 l 2
 584.79 631 617.79 556 603.79 469 c 2
 555.79 162 l 18
 536.79 43 466.79 0 367.79 0 c 2
 235.79 0 l 2
 144.79 0 63.79 42 82.79 162 c 10
106.79 162 m 2
 92.79 70 142.79 24 232.79 24 c 10
 366.79 24 l 18
 470.79 24 518.79 77 531.79 162 c 2
 579.79 469 l 2
 593.79 559 554.79 607 458.79 607 c 2
 324.79 607 l 2
 235.79 607 168.79 557 154.79 469 c 2
 106.79 162 l 2
EndSplineSet
Substitution2: "'lnum' Lining Figures lookup 19-1" zero
EndChar

StartChar: one.tosf
Encoding: 413 -1 342
Width: 622
VWidth: 0
Flags: W
HStem: 0 18<158 337 360 525> 525 15<204 257.252>
DStem2: 337 18 360 18 0.151331 0.988483<3.48062 591.197>
LayerCount: 2
Fore
SplineSet
155 0 m 1
 158 18 l 1
 337 18 l 1
 429 602 l 1
 395 579 296 525 200 525 c 1
 204 540 l 1
 304 540 432 632 432 632 c 1
 454 632 l 1
 360 18 l 1
 528 18 l 1
 525 0 l 1
 155 0 l 1
EndSplineSet
Substitution2: "'lnum' Lining Figures lookup 19-1" one
EndChar

StartChar: two.tosf
Encoding: 414 -1 343
Width: 622
VWidth: 0
Flags: W
HStem: 0 24<118 528> 615 23<244.749 498.13> 615 13<157 213.052>
LayerCount: 2
Fore
SplineSet
63 0 m 25xc0
 67 23 l 17
 167 71 556 298 581 453 c 0
 600 575 524 615 416 615 c 2xc0
 155 615 l 2
 157 628 l 1xa0
 209 636 317 643 431 638 c 1
 571 638 623 559 605 446 c 0
 579 281 183 54 118 24 c 9
 532 24 l 25
 528 0 l 25
 63 0 l 25xc0
EndSplineSet
Substitution2: "'lnum' Lining Figures lookup 19-1" two
EndChar

StartChar: three.tosf
Encoding: 415 -1 344
Width: 621
VWidth: 0
Flags: W
HStem: -108 25<155.373 428.109> -97 14<77 147.02> 251 27<194 466.266> 258 14<194 404> 609 24<283.403 530.856> 609 14<182 240.972>
DStem2: 526 60 552 57 0.159689 0.987167<-73.1749 111.998 286.203 477.516>
LayerCount: 2
Fore
SplineSet
74 -97 m 1x40
 77 -83 l 1x40
 350 -83 l 2
 429 -83 507 -57 526 60 c 2
 535 119 l 2
 551 219 461 249 404 251 c 2xa0
 192 258 l 2
 194 272 l 1x10
 408 278 l 1
 486 279 569 314 582 399 c 2
 592 468 l 2
 608 567 548 609 466 609 c 2x28
 180 609 l 1
 182 623 l 1x04
 244 634 355 635 472 633 c 0
 591 631 632 556 617 464 c 2
 606 393 l 2
 588 288 494 266 464 264 c 1
 495 259 577 220 561 116 c 1
 552 57 l 2
 535 -52 469 -108 347 -108 c 0x88
 233 -108 112 -105 74 -97 c 1x40
EndSplineSet
Substitution2: "'lnum' Lining Figures lookup 19-1" three
EndChar

StartChar: four.tosf
Encoding: 416 -1 345
Width: 522
VWidth: 0
Flags: W
HStem: 112 24<69 443 471 531.4> 122 14<494.6 559>
DStem2: 40 137 69 136 0.613941 0.789352<17.0149 627.096> 410 -98 434 -98 0.155869 0.987778<3.74087 212.577 240.648 553.302>
LayerCount: 2
Fore
SplineSet
40 137 m 5x80
 425 632 l 5
 452 632 l 5
 69 136 l 5x80
 447 136 l 5x40
 484 372 l 5
 506 447 l 5
 520 447 l 5
 471 136 l 5x80
 561 136 l 5
 559 122 l 5x40
 467 112 l 5
 434 -98 l 5
 410 -98 l 5
 443 112 l 5
 48 112 l 5
 40 137 l 5x80
EndSplineSet
Substitution2: "'lnum' Lining Figures lookup 19-1" four
EndChar

StartChar: five.tosf
Encoding: 417 -1 346
Width: 622
VWidth: 0
Flags: W
HStem: -104 24<209.853 456.321> -94 14<100 178.403> 307 24<263.203 531.532> 608 24<255 655>
DStem2: 143 182 184 265 0.20239 0.979305<89.5803 439.852> 567 68 590 66 0.159546 0.98719<-62.1916 164.555>
LayerCount: 2
Fore
SplineSet
98 -94 m 1x70
 100 -80 l 1x70
 397 -80 l 2
 467 -80 551 -32 567 68 c 2
 582 163 l 2
 590 213 596 307 470 307 c 2
 317 307 l 2
 249 307 177 248 167 182 c 1
 143 182 l 1
 236 632 l 17
 659 632 l 1
 655 608 l 1
 255 608 l 25
 184 265 l 1
 195 280 240 331 317 331 c 0
 390 331 438 331 469 331 c 0
 587 331 621 262 606 165 c 2
 590 66 l 2
 568 -71 462 -104 400 -104 c 3xb0
 276 -104 168 -104 98 -94 c 1x70
EndSplineSet
Substitution2: "'lnum' Lining Figures lookup 19-1" five
EndChar

StartChar: six.tosf
Encoding: 418 -1 347
Width: 621
VWidth: 0
Flags: W
HStem: -1 24<223.054 463.479> 380 25<252.452 520.65> 714 24<320.378 556.765> 714 15<504.714 635.792>
DStem2: 544.792 146 569.792 148 0.116246 0.99322<-58.4896 189.755>
LayerCount: 2
Fore
SplineSet
139.792 384 m 0xe0
 180.792 642 275.792 738 367.792 738 c 0xe0
 468.792 738 577.792 736 637.792 729 c 1
 635.792 714 l 1xd0
 369.792 714 l 2
 242.792 714 182.792 506 164.792 394 c 1
 251.792 404 366.792 405 440.792 405 c 0
 574.792 405 600.792 341 587.792 259 c 2
 569.792 148 l 2
 551.792 36 493.792 -1 399.792 -1 c 2
 275.792 -1 l 2
 166.792 -1 91.792 81 139.792 384 c 0xe0
162.792 380 m 1
 137.792 224 130.792 23 274.792 23 c 2
 393.792 23 l 2
 455.792 23 527.792 42 544.792 146 c 2
 561.792 252 l 2
 578.792 357 528.792 380 444.792 380 c 2
 162.792 380 l 1
EndSplineSet
Substitution2: "'lnum' Lining Figures lookup 19-1" six
EndChar

StartChar: seven.tosf
Encoding: 419 -1 348
Width: 622
VWidth: 0
Flags: W
HStem: 608 24<185 607>
DStem2: 257 -100 285 -100 0.442655 0.896692<12.3943 789.787>
LayerCount: 2
Fore
SplineSet
181 608 m 5
 185 632 l 5
 623 632 l 5
 635 609 l 5
 285 -100 l 5
 257 -100 l 5
 607 608 l 5
 181 608 l 5
EndSplineSet
Substitution2: "'lnum' Lining Figures lookup 19-1" seven
EndChar

StartChar: eight.tosf
Encoding: 420 -1 349
Width: 621
VWidth: 0
Flags: W
HStem: 0 24<189.253 431.602> 362 23<219.944 508.49> 713 24<281.091 540.67>
DStem2: 99.3887 154 123.389 151 0.151701 0.988426<-54.32 152.006 291.971 498.242> 526.389 151 553.389 154 0.160893 0.986972<-59.7492 163.693 299.407 489.153>
LayerCount: 2
Fore
SplineSet
99.3887 154 m 2
 114.389 253 l 2
 126.389 329 193.389 366 232.389 366 c 1
 148.389 381 145.389 453 153.389 506 c 2
 163.389 571 l 2
 184.389 705 257.389 737 360.389 737 c 2
 476.389 737 l 2
 588.389 737 636.389 680 617.389 557 c 2
 607.389 492 l 2
 598.389 438 553.389 384 496.389 380 c 1
 563.389 360 578.389 315 568.389 252 c 2
 553.389 154 l 2
 532.389 24 436.389 0 372.389 0 c 2
 257.389 0 l 2
 85.3887 0 93.3887 113 99.3887 154 c 2
123.389 151 m 2
 108.389 58 176.389 24 261.389 24 c 2
 369.389 24 l 2
 430.389 24 511.389 55 526.389 151 c 2
 543.389 256 l 2
 560.389 362 482.389 362 432.389 362 c 2
 299.389 362 l 2
 253.389 362 153.389 338 140.389 256 c 2
 123.389 151 l 2
176.389 494 m 2
 160.389 393 234.389 385 300.389 385 c 2
 429.389 385 l 2
 526.389 385 575.389 448 582.389 494 c 2
 593.389 562 l 2
 610.389 672 565.389 713 472.389 713 c 2
 358.389 713 l 2
 249.389 713 201.389 666 186.389 562 c 2
 176.389 494 l 2
EndSplineSet
Substitution2: "'lnum' Lining Figures lookup 19-1" eight
EndChar

StartChar: nine.tosf
Encoding: 421 -1 350
Width: 621
VWidth: 0
Flags: W
HStem: -106 24<178.322 415.414> -97 15<99 230.649> 227 25<215.205 475.987> 609 24<272.297 516.581>
DStem2: 147 378 171 373 0.148768 0.988872<-63.6482 173.125>
LayerCount: 2
Fore
SplineSet
97 -97 m 1x70
 99 -82 l 1x70
 365 -82 l 2
 495 -82 552 126 570 238 c 1
 483 228 361 227 287 227 c 0
 153 227 134 296 147 378 c 2
 165 489 l 2
 183 601 255 633 349 633 c 2
 465 633 l 2
 574 633 644 542 596 239 c 0
 555 -19 460 -106 368 -106 c 0xb0
 267 -106 157 -104 97 -97 c 1x70
171 373 m 2
 154 268 219 252 295 252 c 2
 572 252 l 1
 597 408 608 609 465 609 c 2
 345 609 l 2
 283 609 204 590 188 486 c 2
 171 373 l 2
EndSplineSet
Substitution2: "'lnum' Lining Figures lookup 19-1" nine
EndChar

StartChar: partialdiff
Encoding: 422 8706 351
Width: 677
VWidth: 0
Flags: W
HStem: -5 24<225.623 369.343> 416 24<272.459 477.358> 716 24<313.144 475.966>
LayerCount: 2
Fore
SplineSet
93 227 m 1
 117 378 208 440 375 440 c 3
 426 440 519 432 581 385 c 1
 613 585 580 716 395 716 c 3
 316 716 242 683 201 660 c 1
 197 672 l 1
 271 716 317 740 402 740 c 3
 594 740 641 602 605 386 c 0
 572 188 490 -5 295 -5 c 31
 175 -5 68 69 93 227 c 1
117 228 m 0
 94 82 190 19 301 19 c 3
 495 19 562 268 578 371 c 1
 547 390 454 416 378 416 c 3
 236 416 139 370 117 228 c 0
EndSplineSet
Validated: 33
EndChar

StartChar: summation
Encoding: 423 8721 352
Width: 497
VWidth: 0
Flags: W
HStem: -200 27<45 494> 708 24<180 638>
DStem2: 12 -173 45 -173 0.539216 0.842168<17.7941 524.836> 180 708 152 708 0.313649 -0.949539<0 452.917>
LayerCount: 2
Fore
SplineSet
8 -200 m 1
 12 -173 l 1
 295 269 l 1
 152 708 l 1
 156 732 l 1
 642 732 l 1
 638 708 l 9
 180 708 l 21
 326 266 l 9
 45 -173 l 25
 498 -173 l 17
 494 -200 l 1
 8 -200 l 1
EndSplineSet
Validated: 1
EndChar

StartChar: product
Encoding: 424 8719 353
Width: 579
VWidth: 0
Flags: W
HStem: 0 21G<106 133.164 443 470.164> 708 24<136 218 242 555 579 666>
DStem2: 106 0 130 0 0.156249 0.987718<3.74998 716.804> 443 0 467 0 0.156249 0.987718<3.74998 716.804>
LayerCount: 2
Fore
SplineSet
106 0 m 1
 218 708 l 1
 132 708 l 1
 136 732 l 1
 670 732 l 1
 666 708 l 1
 579 708 l 1
 467 0 l 1
 443 0 l 1
 555 708 l 1
 242 708 l 1
 130 0 l 1
 106 0 l 1
EndSplineSet
Validated: 1
EndChar

StartChar: pi
Encoding: 425 960 354
Width: 621
VWidth: 0
Flags: W
HStem: -5 25<432.722 558.284> 6 14<527.969 561> 507 24<96 178 202 439 463 592>
DStem2: 98 0 122 0 0.155863 0.987779<3.7407 513.273> 385 166 409 166 0.156409 0.987692<-85.0857 345.249>
LayerCount: 2
Fore
SplineSet
92 507 m 1xa0
 96 531 l 1
 596 531 l 1
 592 507 l 1
 463 507 l 1
 409 166 l 2
 392 61 414 20 480 20 c 2xa0
 563 20 l 1
 561 6 l 1x60
 502 -6 512 -5 481 -5 c 7
 400 -5 364 34 385 166 c 2
 439 507 l 1
 202 507 l 1
 122 0 l 1
 98 0 l 1
 178 507 l 1
 92 507 l 1xa0
EndSplineSet
Validated: 33
EndChar

StartChar: integral
Encoding: 426 8747 355
Width: 384
VWidth: 0
Flags: W
HStem: -204 24<-6 138.447> -194 14<-6 17.1846> 776 24<405.166 547> 776 14<518.767 547>
DStem2: 225 88 249 88 0.155963 0.987763<-184.2 612.203>
LayerCount: 2
Fore
SplineSet
-8 -194 m 1x40
 -6 -180 l 1
 90 -180 l 1
 186 -180 198 -84 225 88 c 9
 291 506 l 18
 316 665 331 800 448 800 c 7xa0
 509 800 519 798 549 790 c 1x10
 547 776 l 1
 449 776 l 1
 350 776 338 649 315 506 c 1
 249 88 l 2
 224 -71 214 -204 94 -204 c 3xa0
 53 -204 4 -203 -8 -194 c 1x40
EndSplineSet
Validated: 1
EndChar

StartChar: Omega
Encoding: 427 937 356
Width: 786
VWidth: 0
Flags: W
HStem: 0 12<73 184.417 566.364 684> 715 24<390.49 580.811>
LayerCount: 2
Fore
SplineSet
71 0 m 1
 73 12 l 1
 264 24 l 1
 109 154 109 289 127 400 c 4
 152 554 227 739 489 739 c 3
 737 739 769 561 740 379 c 0
 721 262 644 115 498 23 c 1
 686 12 l 1
 684 0 l 1
 456 0 l 1
 460 24 l 1
 617 118 695 253 716 385 c 0
 743 558 715 715 488 715 c 3
 261 715 178 565 149 383 c 0
 125 234 165 140 295 24 c 1
 291 0 l 1
 71 0 l 1
EndSplineSet
Validated: 33
EndChar

StartChar: radical
Encoding: 428 8730 357
Width: 545
VWidth: 0
Flags: W
HStem: 0 21G<241.431 275.275> 334 24<68 154>
DStem2: 171 358 154 334 0.268239 -0.963352<18.5604 329.524> 261 41 265 0 0.456971 0.889482<0 853.792>
LayerCount: 2
Fore
SplineSet
64 334 m 1
 68 358 l 1
 171 358 l 1
 261 41 l 5
 652 800 l 1
 676 800 l 1
 265 0 l 1
 247 0 l 1
 154 334 l 1
 64 334 l 1
EndSplineSet
Validated: 1
EndChar

StartChar: florin
Encoding: 429 402 358
Width: 531
VWidth: 0
Flags: W
HStem: -204 24<-3 115.736> -192 12<-3 9.36546> 421 24<276 370 402 538> 776 24<557.995 689> 776 12<669.806 689>
DStem2: 265 88 289 88 0.303204 0.952926<-176.608 349.161 381.733 623.748>
LayerCount: 2
Fore
SplineSet
-8 -192 m 1x60
 -3 -180 l 2
 72 -180 l 2
 181 -180 234 -11 265 88 c 2
 370 421 l 1
 268 421 l 1
 276 446 l 1
 378 446 l 1
 398 506 l 2
 446 652 482 800 605 800 c 3xb0
 654 800 688 790 694 788 c 1x28
 689 776 l 2
 601 776 l 0
 503 776 463 633 422 506 c 2
 402 445 l 1
 546 445 l 1
 538 421 l 1
 394 421 l 1
 289 88 l 2
 253 -28 204 -204 69 -204 c 7xb0
 30 -204 -3 -196 -8 -192 c 1x60
EndSplineSet
Validated: 1
EndChar

StartChar: approxequal
Encoding: 430 8776 359
Width: 473
VWidth: 0
Flags: W
HStem: 220 16<299.232 354.729> 293 16<167.919 222.791> 396 16<326.785 382.335> 469 16<195.919 250.758>
LayerCount: 2
Fore
SplineSet
89 251 m 17
 128 281 165 309 204 309 c 3
 243 309 288 236 320 236 c 3
 359 236 401 270 427 289 c 9
 432 282 l 17
 393 249 359 220 317 220 c 3
 275 220 235 293 202 293 c 3
 164 293 133 269 93 243 c 9
 89 251 l 17
117 427 m 17
 156 457 193 485 232 485 c 3
 271 485 315 412 347 412 c 3
 386 412 429 446 455 465 c 9
 460 458 l 17
 421 425 387 396 345 396 c 3
 303 396 263 469 230 469 c 3
 192 469 161 445 121 419 c 9
 117 427 l 17
EndSplineSet
Validated: 1
EndChar

StartChar: uni2206
Encoding: 431 8710 360
Width: 746
VWidth: 0
Flags: W
HStem: 0 24<64 671> 712 20G<461.596 499.738>
DStem2: 20 0 64 24 0.527074 0.849819<43.5869 833.078> 494 732 480 695 0.275762 -0.961226<31.7047 729.358>
LayerCount: 2
Fore
SplineSet
20 0 m 1
 474 732 l 1
 494 732 l 1
 704 0 l 1
 20 0 l 1
64 24 m 1
 671 24 l 1
 480 695 l 5
 64 24 l 1
EndSplineSet
Validated: 1
EndChar

StartChar: lozenge
Encoding: 432 9674 361
Width: 544
VWidth: 0
Flags: W
HStem: 0 21G<242.724 291.281> 712 20G<351.9 401.415>
DStem2: 106 370 79 373 0.420754 -0.907175<0 379.81> 79 373 106 370 0.627074 0.77896<14.5941 449.226> 267 26 276 0 0.607134 0.7946<0 438.813> 392 732 378 709 0.425918 -0.904762<14.8467 383.054>
LayerCount: 2
Fore
SplineSet
79 373 m 1
 368 732 l 1
 392 732 l 1
 561 373 l 1
 276 0 l 1
 252 0 l 1
 79 373 l 1
106 370 m 5
 267 26 l 1
 533 375 l 1
 378 709 l 1
 106 370 l 5
EndSplineSet
Validated: 1
EndChar

StartChar: onequarter
Encoding: 188 188 362
Width: 922
VWidth: 0
Flags: W
HStem: 0 21G<210 243.195 766 787.133> 167 19<534 792 813 848.818> 178 8<832.182 871> 656 11<116 156.348>
DStem2: 198 256 216 256 0.157023 0.987595<2.82642 456.554> 210 0 230 0 0.550691 0.834709<11.0138 922.477> 503 177 534 186 0.62245 0.782659<26.3399 380.753> 766 1 784 1 0.156249 0.987718<2.81248 168.024 190.071 309.742>
LayerCount: 2
Fore
SplineSet
115 656 m 0x90
 116 667 l 0
 196 667 274 734 274 734 c 1
 292 734 l 1
 216 256 l 1
 198 256 l 1
 269 707 l 1
 252 694 192 656 115 656 c 0x90
210 0 m 1
 718 770 l 1
 738 770 l 1
 230 0 l 1
 210 0 l 1
503 177 m 1
 740 475 l 1
 762 475 l 1
 534 186 l 1xd0
 795 186 l 1xb0
 814 307 l 1
 831 355 l 1
 840 355 l 1
 813 186 l 1xd0
 872 186 l 1
 871 178 l 1xb0
 810 167 l 1
 784 1 l 1
 766 1 l 1
 792 167 l 1
 505 167 l 1xd0
 503 177 l 1
EndSplineSet
Validated: 1
Ligature2: "'frac' Diagonal Fractions lookup 11 subtable" one slash four
Ligature2: "'frac' Diagonal Fractions lookup 11 subtable" one fraction four
LCarets2: 2 0 0 
EndChar

StartChar: brokenbar
Encoding: 166 166 363
Width: 217
VWidth: 0
Flags: W
VStem: 74 157
DStem2: 74 -72 98 -72 0.156023 0.987753<3.74455 332.096 510.935 852.439>
LayerCount: 2
Fore
SplineSet
74 -72 m 1
 126 256 l 1
 150 256 l 5
 98 -72 l 5
 74 -72 l 1
153 429 m 1
 207 770 l 1
 231 770 l 5
 177 429 l 5
 153 429 l 1
EndSplineSet
Validated: 1
EndChar

StartChar: currency
Encoding: 164 164 364
Width: 469
VWidth: 0
Flags: W
HStem: 143 15<198.497 288.228> 462 15<244.714 334.699>
DStem2: 79 164 87 154 0.755757 0.654852<0 61.8671 415.854 484.85> 137 481 127 472 0.643023 -0.765847<0.462399 61.2301 366.01 415.046>
LayerCount: 2
Fore
SplineSet
79 164 m 1
 127 205 l 1
 108 235 98 277 105 319 c 0
 112 362 135 397 167 426 c 1
 127 472 l 1
 137 481 l 1
 176 434 l 1
 209 461 248 477 290 477 c 0
 332 477 367 463 392 438 c 5
 445 482 l 5
 454 472 l 1
 401 428 l 1
 425 399 437 355 430 310 c 0
 423 267 402 232 372 201 c 1
 404 163 l 1
 393 154 l 1
 362 192 l 1
 328 162 289 143 244 143 c 0
 197 143 158 163 134 195 c 1
 87 154 l 1
 79 164 l 1
119 314 m 0
 106 230 158 158 242 158 c 0
 326 158 403 230 416 314 c 0
 429 397 373 462 290 462 c 0
 209 462 132 395 119 314 c 0
EndSplineSet
Validated: 33
EndChar

StartChar: onehalf
Encoding: 189 189 365
Width: 948
VWidth: 0
Flags: W
HStem: 1 18<586 853> 465 18<619.125 845.582> 465 11<614 738.915> 656 11<116 156.348>
DStem2: 164 0 184 0 0.550691 0.834709<11.0138 922.477> 198 256 216 256 0.157023 0.987595<2.82642 456.554>
LayerCount: 2
Fore
SplineSet
115 656 m 0x90
 116 667 l 0
 196 667 274 734 274 734 c 1
 292 734 l 1
 216 256 l 1
 198 256 l 1
 269 707 l 1
 252 694 192 656 115 656 c 0x90
164 0 m 1
 672 770 l 1
 692 770 l 5
 184 0 l 5
 164 0 l 1
544 1 m 25
 546 15 l 17
 622 69 872 238 889 344 c 0
 900 413 887 465 791 465 c 2xd0
 614 465 l 2
 612 465 615 477 616 476 c 1xb0
 683 484 728 483 800 483 c 3xd0
 898 483 921 421 909 343 c 0
 890 221 628 49 586 19 c 9
 856 19 l 25
 853 1 l 25
 544 1 l 25
EndSplineSet
Validated: 33
Ligature2: "'frac' Diagonal Fractions lookup 11 subtable" one slash two
Ligature2: "'frac' Diagonal Fractions lookup 11 subtable" one fraction two
LCarets2: 2 0 0 
EndChar

StartChar: threequarters
Encoding: 190 190 366
Width: 1032
VWidth: 0
Flags: W
HStem: 0 21G<316 349.195 851 872.133> 167 19<617 877 898 933.818> 178 8<917.182 956> 252 18<88.2506 319.577> 263 7<77 94.894> 492 10<154 304.746> 715 18<156.481 389.609> 715 10<145 182.035>
DStem2: 316 0 336 0 0.550691 0.834709<11.0138 922.477> 388 375 405 369 0.156163 0.987731<-55.4545 56.3553 181.219 294.97> 587 177 617 186 0.624055 0.78138<25.7541 381.376> 851 1 869 1 0.156249 0.987718<2.81248 168.024 190.071 309.742>
LayerCount: 2
Fore
SplineSet
76 263 m 1x8c
 77 270 l 1x8c
 252 270 l 2
 334 270 375 293 388 375 c 2
 391 398 l 2
 400 458 347 487 295 488 c 2
 152 492 l 2
 154 502 l 1
 291 506 l 2
 353 508 417 539 423 589 c 2
 427 625 l 2
 439 700 387 715 337 715 c 2x96
 144 715 l 1
 145 725 l 1x85
 192 734 265 733 341 733 c 0
 428 733 454 682 445 622 c 2
 439 584 l 2
 431 527 366 499 342 497 c 1
 363 493 419 462 410 399 c 2
 405 369 l 2
 394 298 359 252 260 252 c 0x96
 186 252 117 254 76 263 c 1x8c
316 0 m 1
 824 770 l 1
 844 770 l 5
 336 0 l 5
 316 0 l 1
587 177 m 1
 825 475 l 1
 847 475 l 1
 617 186 l 1xc4
 880 186 l 1xa4
 899 307 l 1
 916 355 l 1
 925 355 l 1
 898 186 l 1xc4
 957 186 l 1
 956 178 l 1xa4
 895 167 l 1
 869 1 l 1
 851 1 l 1
 877 167 l 1
 590 167 l 1xc4
 587 177 l 1
EndSplineSet
Validated: 33
Ligature2: "'frac' Diagonal Fractions lookup 11 subtable" three slash four
Ligature2: "'frac' Diagonal Fractions lookup 11 subtable" three fraction four
LCarets2: 2 0 0 
EndChar

StartChar: Hbar
Encoding: 435 294 369
Width: 607
VWidth: 0
Flags: W
HStem: 0 21G<85 112.158 529 556.166> 342 24<167 583> 537 15<107 170 196 614 640 703> 712 20G<197.778 225 641.778 669>
DStem2: 85 0 109 0 0.156517 0.987675<3.7564 349.993 374.324 543.686 562.57 741.134> 529 0 553 0 0.156517 0.987675<3.7564 346.237 370.567 543.686 562.57 741.134>
LayerCount: 2
Fore
SplineSet
85 0 m 1
 170 537 l 5
 105 537 l 5
 107 552 l 1
 172 552 l 1
 201 732 l 1
 225 732 l 1
 196 552 l 1
 616 552 l 1
 645 732 l 1
 669 732 l 1
 640 552 l 1
 705 552 l 1
 703 537 l 5
 638 537 l 5
 553 0 l 1
 529 0 l 1
 583 342 l 1
 163 342 l 1
 109 0 l 1
 85 0 l 1
167 366 m 1
 587 366 l 1
 614 537 l 5
 194 537 l 5
 167 366 l 1
EndSplineSet
Validated: 1
Substitution2: "'c2sc' Capitals to Small Capitals in Latin lookup 17 subtable" hbar.smcp
EndChar

StartChar: hbar
Encoding: 440 295 374
Width: 540
VWidth: 0
Flags: W
HStem: 0 21G<60 87.1648 440 467.189> 516 24<299.446 439.43> 631 14<92 160 186 328> 764 20G<180.835 208>
DStem2: 60 0 84 0 0.156221 0.987722<3.74931 471.578 478.551 638.875 656.765 793.746> 440 0 464 0 0.15747 0.987524<3.77928 435.287>
LayerCount: 2
Fore
SplineSet
60 0 m 1
 160 631 l 1
 90 631 l 1
 92 645 l 1
 162 645 l 1
 184 784 l 1
 208 784 l 1
 186 645 l 1
 330 645 l 1
 328 631 l 1
 184 631 l 1
 158 469 l 1
 223 507 305 540 386 540 c 0
 492 540 537 458 523 370 c 2
 464 0 l 1
 440 0 l 1
 499 370 l 2
 512 454 471 516 382 516 c 0
 294 516 236 495 156 455 c 1
 84 0 l 1
 60 0 l 1
EndSplineSet
Validated: 33
Substitution2: "'smcp' Lowercase to Small Capitals lookup 16-1" hbar.smcp
EndChar

StartChar: jcircumflex
Encoding: 442 309 376
Width: 126
VWidth: 0
Flags: W
HStem: 511 20G<149.829 177>
VStem: 26 281
DStem2: 26 -270 92 -4 0.156596 0.987663<2.03574 811.006> 35 596 53 596 0.762062 0.647504<13.7171 197.802> 209 726 196 712 0.601964 -0.798523<3.3538 152.567>
LayerCount: 2
Fore
SplineSet
26 -270 m 1
 153 531 l 1
 177 531 l 1
 92 -4 l 2
 79 -90 65 -182 39 -270 c 1
 26 -270 l 1
35 596 m 5
 188 726 l 5
 209 726 l 5
 307 596 l 5
 290 596 l 5
 196 712 l 5
 53 596 l 5
 35 596 l 5
EndSplineSet
Validated: 1
Substitution2: "'smcp' Lowercase to Small Capitals lookup 16-1" jcircumflex.smcp
EndChar

StartChar: f_f
Encoding: 457 64256 391
Width: 728
VWidth: 0
Flags: W
HStem: 0 19G<109 136.156 469 496.143> 507 24<217 549 577 751> 507 12<94 151.75> 745 31<287.82 456.723> 754 32<633.773 825.165>
DStem2: 109 0 133 0 0.156126 0.987737<3.74703 513.273 541.35 710.643> 469 -2 493 -2 0.156284 0.987712<3.75081 515.248 543.329 734.695>
LayerCount: 2
Fore
SplineSet
92 507 m 1xa0
 94 519 l 1xa0
 193 531 l 1
 207 620 l 2
 216 676 237 776 357 776 c 0
 389 776 425 767 464 759 c 1
 462 745 l 1xd0
 461 745 356 752 356 752 c 2
 291 756 246 717 231 620 c 2
 217 531 l 1
 553 531 l 1
 569 630 l 2
 578 684 596 786 686 786 c 0
 716 786 800 778 834 768 c 1
 831 754 l 1
 830 754 691 762 691 762 c 2
 624 766 604 698 593 630 c 2
 577 531 l 1
 755 531 l 1
 751 507 l 1xc8
 573 507 l 9xa0
 493 -2 l 17
 469 -2 l 1
 549 507 l 1xc0
 213 507 l 1
 133 0 l 1
 109 0 l 1
 189 507 l 1
 92 507 l 1xa0
EndSplineSet
Validated: 33
Ligature2: "'dlig' Discretionary Ligatures lookup 14-1" f f
LCarets2: 1 0 
EndChar

StartChar: f_f_i
Encoding: 458 64259 392
Width: 962
VWidth: 0
Flags: W
HStem: 0 21G<109 136.156 470 497.156 841 868.168> 507 24<217 550 578 921> 507 17<94 122.286 842.286 921> 745 31<287.82 456.723> 761 25<699.438 913.201>
DStem2: 109 0 133 0 0.156126 0.987737<3.74703 513.273 541.35 710.643> 470 0 494 0 0.155615 0.987818<3.73476 513.273 541.338 674.998> 841 0 865 0 0.156447 0.987686<3.75472 513.273>
LayerCount: 2
Fore
SplineSet
92 507 m 1xa0
 94 519 l 1
 193 531 l 1
 207 620 l 2
 216 676 237 776 357 776 c 0
 389 776 425 767 464 759 c 1
 462 745 l 1xd0
 461 745 356 752 356 752 c 2
 291 756 246 717 231 620 c 2
 217 531 l 1
 554 531 l 1
 562 584 l 2
 581 702 651 786 771 786 c 0
 807 786 883 782 947 767 c 1
 945 753 l 1
 944 753 774 761 774 761 c 2
 682 765 606 711 586 584 c 2
 578 531 l 1xc8
 948 524 l 1xa0
 865 0 l 1
 841 0 l 1
 921 507 l 1xc0
 574 507 l 1xa0
 494 0 l 1
 470 0 l 1
 550 507 l 1xc0
 213 507 l 1
 133 0 l 1
 109 0 l 1
 189 507 l 1
 92 507 l 1xa0
EndSplineSet
Validated: 33
Ligature2: "'dlig' Discretionary Ligatures lookup 14-1" f f i
LCarets2: 2 0 0 
EndChar

StartChar: ffl
Encoding: 459 64260 393
Width: 1104
VWidth: 0
Flags: W
HStem: 3 13<994.024 1035> 507 24<217 546 574 717> 507 12<94 151.75> 745 31<287.354 456.712> 762 24<690.498 966>
DStem2: 109 0 133 0 0.156126 0.987737<3.74703 513.273 541.35 710.586> 466 0 490 0 0.154326 0.98802<3.70382 513.272 541.306 678.545> 875 192 899 192 0.156304 0.987709<-89.4673 577.218>
LayerCount: 2
Fore
SplineSet
92 507 m 1xa0
 94 519 l 1xa0
 193 531 l 1
 207 620 l 2
 216 676 236 776 356 776 c 0
 388 776 425 767 464 759 c 1
 462 745 l 1xd0
 461 745 356 752 356 752 c 2
 291 756 246 717 231 620 c 2
 217 531 l 9
 550 531 l 17
 558 589 l 2
 575 697 635 787 749 786 c 5
 993 786 l 1
 899 192 l 2
 874 35 936 31 965 27 c 2
 965 27 1031 16 1038 16 c 1
 1035 3 l 1
 968 3 l 2
 884 3 854 60 875 192 c 2
 966 762 l 1
 751 762 l 2
 671 762 602 710 582 584 c 2
 574 531 l 1
 721 531 l 1
 717 507 l 1xc8
 570 507 l 1xa0
 490 0 l 1
 466 0 l 1
 546 507 l 9xc0
 213 507 l 17
 133 0 l 1
 109 0 l 1
 189 507 l 1
 92 507 l 1xa0
EndSplineSet
Validated: 33
Ligature2: "'dlig' Discretionary Ligatures lookup 14-1" f f l
LCarets2: 2 0 0 
EndChar

StartChar: c_t
Encoding: 460 -1 394
Width: 776
VWidth: 0
Flags: W
HStem: -7 24<152.554 350.96> -4 13<704.024 746> 506 24<227.812 636 663 835>
VStem: 671 16<645.625 678>
DStem2: 585 185 609 185 0.156271 0.987714<-89.3586 325.026 352.951 352.951>
LayerCount: 2
Fore
SplineSet
81 267 m 4xb0
 117 496 200 530 298 530 c 0
 639 530 l 1
 671 678 l 1
 687 678 l 1
 663 530 l 1
 838 530 l 1
 835 508 l 1
 660 508 l 1
 609 185 l 2
 584 28 646 24 675 20 c 2
 675 20 741 9 748 9 c 1
 746 -4 l 1
 682 -4 l 2x70
 598 -4 564 53 585 185 c 2
 636 506 l 1
 294 506 l 3
 208 506 137 468 104 260 c 0
 71 54 131 17 217 17 c 3
 309 17 425 38 425 38 c 1
 423 22 l 17
 338 -1 296 -6 213 -7 c 0
 114 -7 44 34 81 267 c 4xb0
EndSplineSet
Validated: 33
Ligature2: "'dlig' Discretionary Ligatures lookup 14-1" c t
LCarets2: 1 0 
EndChar

StartChar: s_t
Encoding: 461 64262 395
Width: 829
VWidth: 0
Flags: W
HStem: 2 14<66 188.198 716.524 792> 249 24<135.188 407.791> 508 24<190.509 683 711 882>
DStem2: 98 360 122 355 0.144307 0.989533<-59.3436 107.183> 433 120 457 113 0.124035 0.992278<-56.9861 95.0821> 632 187 656 187 0.156271 0.987714<-89.3859 325.026>
LayerCount: 2
Fore
SplineSet
64 2 m 9
 66 16 l 17
 310 16 l 18
 357 16 418 27 433 120 c 2
 440 169 l 2
 448 218 418 249 347 249 c 10
 219 249 l 2
 125 249 82 257 98 360 c 10
 105 408 l 18
 117 490 161 532 264 532 c 0
 687 532 l 1
 718 680 l 1
 734 680 l 1
 711 532 l 1
 886 532 l 1
 882 508 l 1
 707 508 l 1
 656 187 l 2
 631 30 693 26 722 22 c 2
 722 22 787 11 794 11 c 1
 792 -2 l 1
 728 -2 l 2
 644 -2 611 55 632 187 c 2
 683 508 l 1
 258 508 l 6
 174 508 140 473 129 401 c 10
 122 355 l 18
 108 269 148 273 223 273 c 2
 351 273 l 2
 427 273 475 239 464 169 c 2
 457 113 l 2
 442 4 367 -8 303 -8 c 3
 254 -8 101 -2 64 2 c 9
EndSplineSet
Validated: 33
Ligature2: "'dlig' Discretionary Ligatures lookup 14-1" s t
LCarets2: 1 0 
EndChar

StartChar: t_t
Encoding: 462 -1 396
Width: 699
VWidth: 0
Flags: W
HStem: -1 13<243.594 285 620.375 657> 508 24<204 547 575 746> 508 16<95 169.375>
DStem2: 125 188 149 188 0.156581 0.987665<-89.3831 324.038> 497 189 521 189 0.155238 0.987877<-76.0467 321.907 349.963 349.963>
LayerCount: 2
Fore
SplineSet
92 508 m 1xa0
 95 524 l 1xa0
 180 532 l 1
 211 680 l 1
 227 680 l 1
 204 532 l 1
 551 532 l 1xc0
 582 679 l 1
 598 679 l 1
 575 531 l 1
 750 531 l 1
 746 507 l 1
 571 507 l 1
 521 189 l 2
 496 32 558 28 587 24 c 2
 587 24 652 13 659 13 c 1
 657 0 l 1
 594 0 l 6
 510 0 476 57 497 189 c 2
 547 507 l 1
 200 508 l 1
 149 188 l 2
 124 31 186 27 215 23 c 2
 215 23 280 12 287 12 c 1
 285 -1 l 1
 221 -1 l 2
 137 -1 104 56 125 188 c 2
 176 508 l 1
 92 508 l 1xa0
EndSplineSet
Validated: 33
Ligature2: "'dlig' Discretionary Ligatures lookup 14-1" t t
LCarets2: 1 0 
EndChar

StartChar: f_t
Encoding: 463 -1 397
Width: 731
VWidth: 0
Flags: W
HStem: -1 13<646.024 688> 507 24<207 577 605 776> 507 14<94 156.3> 762 24<275.576 462> 762 13<425.761 462>
VStem: 613 16<647.406 680>
DStem2: 99 0 123 0 0.155238 0.987877<3.72571 513.273 541.328 732.706> 527 188 551 188 0.156581 0.987665<-89.4104 322.894 350.982 350.982>
LayerCount: 2
Fore
SplineSet
92 507 m 1xa4
 94 521 l 1xa4
 183 531 l 1
 198 630 l 2
 207 684 226 786 316 786 c 0xd4
 346 786 430 785 464 775 c 1x8c
 462 762 l 1
 320 762 l 2
 252 762 234 708 222 630 c 2
 207 531 l 1
 581 531 l 1
 613 680 l 1
 629 680 l 1
 605 531 l 1
 780 531 l 1
 776 507 l 1xd4
 601 507 l 1xa4
 551 188 l 2
 526 31 588 27 617 23 c 2
 617 23 683 12 690 12 c 1
 688 -1 l 1
 622 -1 l 6
 538 -1 506 56 527 188 c 2
 577 507 l 1xc4
 203 507 l 1
 123 0 l 1
 99 0 l 1
 179 507 l 1
 92 507 l 1xa4
EndSplineSet
Validated: 33
Ligature2: "'dlig' Discretionary Ligatures lookup 14-1" f t
LCarets2: 1 0 
EndChar

StartChar: t_y
Encoding: 464 -1 398
Width: 867
VWidth: 0
Flags: W
HStem: -273 14<467 487.998> -1 13<243.594 285> 507 25<204 448.607> 508 16<95 169.375>
DStem2: 125 188 149 188 0.156581 0.987665<-89.465 324.038> 520 419 495 408 0.19043 -0.981701<-68.5594 372.241> 653 -4 680 -3 0.431245 0.902235<-176.845 0 23.6494 581.004>
LayerCount: 2
Fore
SplineSet
92 508 m 1xd0
 95 524 l 1xd0
 180 532 l 1
 211 680 l 1
 227 680 l 1
 204 532 l 1
 369 532 l 2
 484 531 505 498 520 419 c 2
 578 120 l 2
 598 17 665 21 665 21 c 1
 870 450 l 2
 880 472 894 506 898 534 c 9
 913 534 l 17
 921 505 902 461 893 442 c 2
 680 -3 l 10
 680 -3 562 -273 467 -273 c 9
 467 -259 l 17
 538 -260 653 -4 653 -4 c 17
 632 -3 573 14 553 114 c 2
 495 408 l 2
 477 497 453 507 365 507 c 2
 200 507 l 1xe0
 149 188 l 2
 124 31 186 27 215 23 c 2
 215 23 280 12 287 12 c 1
 285 -1 l 1
 218 -1 l 2
 134 -1 104 56 125 188 c 2
 176 508 l 1
 92 508 l 1xd0
EndSplineSet
Validated: 33
Ligature2: "'dlig' Discretionary Ligatures lookup 14-1" t y
LCarets2: 1 0 
EndChar

StartChar: f_y
Encoding: 465 -1 399
Width: 888
VWidth: 0
Flags: W
HStem: -275 14<488 508.998> 0 21G<99 126.156> 507 25<207 467.607> 507 14<94 156.3> 762 24<275.576 462> 762 13<425.761 462>
DStem2: 99 0 123 0 0.155238 0.987877<3.72571 513.273 541.328 732.706> 539 419 514 408 0.19043 -0.981701<-69.0161 372.447> 674 -6 701 -5 0.429625 0.903008<-176.869 0 23.8346 583.233>
LayerCount: 2
Fore
SplineSet
92 507 m 1xd0
 94 521 l 1
 183 531 l 1
 198 630 l 2
 207 684 226 786 316 786 c 0xd8
 346 786 430 785 464 775 c 1xc4
 462 762 l 1
 320 762 l 2
 252 762 234 708 222 630 c 2
 207 531 l 1
 388 532 l 2
 503 533 524 498 539 419 c 2
 597 120 l 2
 617 17 686 19 686 19 c 1
 890 448 l 2
 900 470 915 504 919 532 c 9
 934 532 l 17
 942 503 923 459 914 440 c 2
 701 -5 l 10
 701 -5 583 -275 488 -275 c 9
 488 -261 l 17
 559 -262 674 -6 674 -6 c 17
 651 -4 592 14 572 114 c 2
 514 408 l 2
 496 497 472 507 384 507 c 2xe8
 203 507 l 9
 123 0 l 17
 99 0 l 1
 179 507 l 1
 92 507 l 1xd0
EndSplineSet
Validated: 33
Ligature2: "'dlig' Discretionary Ligatures lookup 14-1" f y
LCarets2: 1 0 
EndChar

StartChar: kgreenlandic
Encoding: 466 312 400
Width: 442
VWidth: 0
Flags: W
HStem: 0 21G<60 87.1373 369.863 410> 255 24<128 239> 511 20G<140.836 168 459.349 509>
DStem2: 60 0 84 0 0.156249 0.987718<3.74998 261.868 286.198 537.603> 263 264 239 255 0.486486 -0.873689<0 288.059> 243 279 263 264 0.677593 0.735437<2.52032 344.565>
LayerCount: 2
Fore
SplineSet
60 0 m 1
 144 531 l 1
 168 531 l 1
 128 279 l 1
 243 279 l 1
 478 531 l 5
 509 531 l 1
 263 264 l 1
 410 0 l 1
 381 0 l 1
 239 255 l 1
 124 255 l 9
 84 0 l 17
 60 0 l 1
EndSplineSet
Validated: 1
EndChar

StartChar: Tbar
Encoding: 472 358 406
Width: 591
VWidth: 0
Flags: W
HStem: 0 21G<261 288.171> 410 14<198 326 352 480> 708 24<143 373 397 637>
DStem2: 261 0 285 0 0.156249 0.987718<3.74998 415.12 433.011 716.804>
LayerCount: 2
Fore
SplineSet
139 708 m 1
 143 732 l 1
 641 732 l 1
 637 708 l 1
 397 708 l 1
 352 424 l 1
 482 424 l 1
 480 410 l 1
 350 410 l 1
 285 0 l 1
 261 0 l 1
 326 410 l 1
 196 410 l 1
 198 424 l 1
 328 424 l 1
 373 708 l 1
 139 708 l 1
EndSplineSet
Validated: 1
Substitution2: "'c2sc' Capitals to Small Capitals in Latin lookup 17 subtable" tbar.smcp
EndChar

StartChar: gcommaaccent
Encoding: 477 291 411
Width: 518
VWidth: 0
Flags: W
HStem: -10 24<173.167 340.534> 513 24<258.046 506.719> 729 5<403.188 413>
DStem2: 266 -249 262 -272 0.997805 -0.066226<-226.497 48.1944> 381 706 391 679 0.141421 0.989949<-25.3144 22.9337> 381 706 406 668 0.141421 0.989949<-108.851 -25.1973 27.2943 28.756> 424 -104 448 -104 0.15572 0.987801<-65.3369 134.648 150.15 619.795>
LayerCount: 2
Fore
SplineSet
38 -248 m 1
 40 -234 l 1
 266 -249 l 2
 320 -253 407 -212 424 -104 c 2
 445 29 l 1
 377 3 277 -10 232 -10 c 3
 79 -10 67 117 92 275 c 0
 119 443 193 537 318 537 c 3
 424 537 501 528 547 524 c 1
 448 -104 l 2
 428 -228 338 -280 262 -272 c 2
 38 -248 l 1
116 271 m 0
 88 95 119 14 235 14 c 3
 309 14 362 28 448 49 c 1
 522 508 l 2
 323 513 l 2
 207 516 140 420 116 271 c 0
367 608 m 2
 381 706 l 2
 387 742 414 734 414 734 c 1
 413 729 l 0
 400 729 397 720 396 715 c 2
 391 679 l 1
 396 679 l 2
 402 679 407 676 406 668 c 2
 397 608 l 2
 395.804 600.027 391 596 384 596 c 2
 376 596 l 2
 368 596 366 601 367 608 c 2
EndSplineSet
Validated: 33
AlternateSubs2: "'salt' Access All Alternates in Latin lookup 4-1" gcommaaccent.salt
Substitution2: "'smcp' Lowercase to Small Capitals lookup 16-1" gcommaaccent.smcp
EndChar

StartChar: gcommaaccent.salt
Encoding: 478 -1 412
Width: 503
VWidth: 0
Flags: W
HStem: -270 24<131.289 401.732> 174 24<195.388 435.574> 509 24<245.578 469.969> 709 5<397.732 407>
DStem2: 44 -114 68 -116 0.163008 0.986625<-53.2921 168.138 204.624 262.774 409.313 549.578> 142 66 101 47 0.992511 -0.122155<-30.6183 307.535> 375 686 386 659 0.131501 0.991316<-25.319 23.6121> 375 686 401 648 0.131501 0.991316<-108.87 -25.2235 27.0083 28.6318> 479 -116 503 -116 0.112328 0.993671<-66.9657 77.9891 401.472 539.624>
LayerCount: 2
Fore
SplineSet
44 -114 m 0
 89 114 l 0
 98 175 135 189 174 194 c 1
 132 218 112 291 120 344 c 0
 140 474 212 534 319 533 c 2
 417 532 l 2
 486 531 573 485 555 344 c 0
 545 267 500 174 363 174 c 2
 216 174 l 2
 143 174 121 153 116 121 c 0
 112 95 100 71 142 66 c 2
 381 36 l 2
 449 27 521 -4 508 -83 c 2
 503 -116 l 2
 493 -182 474 -270 327 -270 c 2
 197 -270 l 2
 95 -270 25 -210 44 -114 c 0
68 -116 m 2
 50 -204 123 -246 188 -246 c 2
 332 -246 l 2
 442 -246 468 -185 479 -116 c 2
 483 -88 l 2
 493 -27 457 3 361 15 c 2
 101 47 l 1
 68 -116 l 2
144 344 m 0
 134 285 162 198 239 198 c 2
 377 198 l 2
 498 198 525 306 531 344 c 0
 547 446 493 509 419 509 c 2
 313 509 l 2
 231 509 166 469 144 344 c 0
362 588 m 2
 375 686 l 2
 380.597 722.064 408 714 408 714 c 1
 407 709 l 0
 394 709 392 700 391 695 c 2
 386 659 l 1
 391 659 l 2
 397 659 402.196 655.973 401 648 c 2
 393 588 l 2
 391.935 580.009 386 576 379 576 c 2
 371 576 l 2
 363 576 361.07 580.989 362 588 c 2
EndSplineSet
Validated: 33
EndChar

StartChar: tbar
Encoding: 479 359 413
Width: 344
VWidth: 0
Flags: W
HStem: 1 13<244.594 286> 318 14<67 146 172 295> 508 24<204 375> 508 16<95 169.375>
VStem: 65 314
DStem2: 126 190 150 190 0.170917 0.985285<-88.7687 129.535 147.773 321.867 350.299 350.299>
LayerCount: 2
Fore
SplineSet
65 318 m 1xd8
 67 332 l 1
 148 332 l 1
 176 508 l 1
 92 508 l 1
 95 524 l 1xd8
 180 532 l 1
 211 680 l 1
 227 680 l 1
 204 532 l 1
 379 532 l 1
 375 508 l 1xe8
 200 508 l 1
 172 332 l 1
 297 332 l 1
 295 318 l 1
 170 318 l 1
 150 190 l 2
 125 34 178 31 216 25 c 2
 216 25 281 14 288 14 c 1
 286 1 l 1
 214 1 l 2
 138 1 104 49 126 190 c 2
 146 318 l 1
 65 318 l 1xd8
EndSplineSet
Validated: 33
AlternateSubs2: "'salt' Access All Alternates in Latin lookup 4-1" tbar.salt
Substitution2: "'smcp' Lowercase to Small Capitals lookup 16-1" tbar.smcp
EndChar

StartChar: Eng
Encoding: 480 330 414
Width: 622
VWidth: 0
Flags: W
HStem: -257 18<347 416.278> 0 21G<80 108.158> 712 20G<192.831 230.123 637.842 665>
DStem2: 80 0 105 0 0.156517 0.987675<3.91292 696.387> 221 732 213 684 0.415005 -0.909819<40.3513 751.798> 512 -85 536 -84 0.155963 0.987763<-93.0184 85.9874 134.648 827.122>
LayerCount: 2
Fore
SplineSet
80 0 m 1
 196 732 l 1
 221 732 l 1
 533 48 l 1
 641 732 l 1
 665 732 l 1
 549 0 l 1
 536 -84 l 2
 512 -236 462 -257 344 -257 c 1
 347 -239 l 1
 435 -229 488 -236 512 -85 c 2
 525 0 l 1
 213 684 l 1
 105 0 l 1
 80 0 l 1
EndSplineSet
Validated: 1
Substitution2: "'c2sc' Capitals to Small Capitals in Latin lookup 17 subtable" eng.smcp
EndChar

StartChar: eng
Encoding: 481 331 415
Width: 554
VWidth: 0
Flags: W
HStem: -245 15<268.8 295.576> 0 21G<60 87.1858> 511 20G<140.836 156.645> 516 24<295.158 427.093>
VStem: 144 12<486.75 531>
DStem2: 426 -89 450 -90 0.156734 0.987641<-58.6865 516.411>
LayerCount: 2
Fore
SplineSet
60 0 m 1xd8
 144 531 l 1
 156 531 l 1xe8
 158 469 l 1
 225 504 295 540 376 540 c 3
 482 540 537 458 523 370 c 2
 464 0 l 1
 450 -90 l 1
 430 -217 328 -239 273 -245 c 1
 264 -230 l 1
 342 -217 409 -182 426 -89 c 1
 440 0 l 1
 499 370 l 2
 510 441 462 516 372 516 c 3
 288 516 221 485 156 452 c 1
 84 0 l 1
 60 0 l 1xd8
EndSplineSet
Validated: 33
Substitution2: "'smcp' Lowercase to Small Capitals lookup 16-1" eng.smcp
EndChar

StartChar: exclam.smcp
Encoding: 502 -1 436
Width: 247
VWidth: 0
Flags: W
HStem: 0 21G<90.5 109.5>
VStem: 84 117
DStem2: 95 74 130 74 0.174691 0.984623<-72.0058 15.222> 120 166 132 166 0.168354 0.985727<2.02025 408.166>
LayerCount: 2
Fore
SplineSet
84 12 m 2
 95 74 l 2
 96 82 101 86 109 86 c 2
 120 86 l 2
 128 86 131 81 130 74 c 2
 119 12 l 2
 117.592 4.0625 113 0 106 0 c 2
 94 0 l 2
 87 0 82.7646 5.03809 84 12 c 2
120 166 m 1
 179 570 l 1
 201 570 l 1
 132 166 l 1
 120 166 l 1
EndSplineSet
Validated: 1
EndChar

StartChar: quotedbl.smcp
Encoding: 503 -1 437
Width: 287
VWidth: 0
Flags: W
HStem: 392 201
VStem: 99 150
LayerCount: 2
Fore
SplineSet
99 392 m 1
 113 526 l 1
 124 593 l 1
 149 593 l 1
 138 526 l 1
 111 392 l 1
 99 392 l 1
199 392 m 1
 213 526 l 1
 224 593 l 1
 249 593 l 1
 238 526 l 1
 211 392 l 1
 199 392 l 1
EndSplineSet
Validated: 1
EndChar

